<?xml version="1.0" encoding="utf-8"?>
<!-- Generator: Adobe Illustrator 27.5.0, SVG Export Plug-In . SVG Version: 6.00 Build 0)  -->
<svg version="1.1" id="Capa_1" xmlns="http://www.w3.org/2000/svg" xmlns:xlink="http://www.w3.org/1999/xlink" x="0px" y="0px"
	 viewBox="0 0 2363 1905" style="enable-background:new 0 0 2363 1905;" xml:space="preserve">
<g>
	<path style="fill:#DDD0BF;" d="M2184.639,1227.779c-4.032-6.465-9.312-12.666-15.748-18.611
		c-21.662-20.008-16.192-5.292-33.245-20.8c-11.882-10.804-1.766-22.648,8.196-42.164c4.337-8.494,8.645-18.422,11.097-30.382
		c8.083-39.438-8.424-42.189-41.267-57.772c-17.324-8.219-24.899-18.612-35.035-24.802c-9.079-5.544-20.21-7.724-42.334-1.802
		c-46.824,12.532-66.757,66.612-89.481,94.199c-10.499,12.747-38.335,17.883-65.247,19.729
		c-12.451-50.928-27.31-85.071-57.619-122.042c-22.935-27.975-54.692-57.593-101.047-97.411
		c-131.13-112.639-284.421-180.022-342.954-258.903c-116.02-156.349-473.809-253.33-763.105-215.767v0.004
		c-7.18-0.454-14.489-0.837-21.992-1.11c0,0-137.855,0-189.722,103.67c-40.321,80.588-40.454,192.147-87.668,276.279
		c-70.609,125.819-127.531,154.356-144.341,297.257c-16.811,142.9,18.254,178.518,67.009,247.447
		c31.661,44.763,124.405,79.015,290.839,80.696c34.713,0.351,79.714,1.903,127.74,2.927v0.002c0,0,0.138,0.002,0.174,0.003
		c25.731,0.547,52.305,0.93,78.669,0.904c15.124,0.158,32.039,0.327,50.44,0.499c224.234,2.092,666.912,4.561,723.089-7.826
		c75.651-16.681,163.071,5.661,228.635-4.913c0.534-0.086,1.099-0.217,1.64-0.312c18.9-3.337,41.825-12.388,64.322-26.939
		c43.992-28.454,86.184-77.947,92.898-147.018c18.418,3.594,40.985,13.362,64.378,36.321
		c56.387,55.342,107.347,31.484,157.299,25.283c49.951-6.2,60.052-29.392,69.622-55.909c0.997-2.764,1.747-5.478,2.35-8.162
		C2195.69,1254.931,2192.764,1240.802,2184.639,1227.779z"/>
	<path style="fill:#7C3939;" d="M1898.63,1234.778c-0.597-6.716-1.481-13.565-2.751-20.583c-0.102-0.56-0.159-1.101-0.265-1.664
		c-1.563-8.305-3.083-16.196-4.589-23.784c-1.773-8.932-3.527-17.418-5.296-25.471c-0.541-2.46-1.086-4.845-1.631-7.231
		c-0.832-3.638-1.673-7.197-2.523-10.672c-12.451-50.928-27.31-85.071-57.619-122.042c-22.935-27.975-54.692-57.593-101.047-97.411
		c-131.13-112.639-284.421-180.022-342.954-258.903c-116.02-156.349-473.809-253.33-763.105-215.767v0.004
		c-7.18-0.454-14.489-0.837-21.992-1.11c0,0-137.855,0-189.722,103.67c-40.321,80.588-40.454,192.147-87.668,276.279
		c-70.609,125.819-127.531,154.356-144.341,297.257c-16.811,142.9,18.254,178.518,67.009,247.447
		c31.661,44.763,124.405,79.015,290.839,80.696c34.713,0.351,79.714,1.903,127.74,2.927c0.058,0.002,0.116,0.003,0.174,0.004
		c25.731,0.547,52.305,0.93,78.669,0.904c16.956-0.017,33.79-0.213,50.253-0.648c0.06,0.383,0.105,0.766,0.187,1.147
		c224.234,2.092,666.912,4.561,723.089-7.826c75.651-16.681,163.071,5.661,228.635-4.913c0.534-0.086,1.099-0.217,1.64-0.312
		c18.9-3.337,41.825-12.388,64.322-26.939c43.992-28.454,86.184-77.947,92.898-147.018
		C1899.754,1260.737,1899.81,1248.047,1898.63,1234.778z"/>
	<path style="fill:#F7B9B3;" d="M1023.55,1112.531c-28.58-156.619-82.377-203.423-82.377-252.177c0-48.755,13.193-68.829,0-159.713
		c-8.769-60.412-30.536-131.551-101.287-182.656c-33.291-24.046-77.456-43.642-136.193-55.611
		c-25.984-5.294-54.821-9.095-86.844-11.121c-7.18-0.454-14.489-0.837-21.992-1.11c0,0-137.855,0-189.722,103.67
		c-40.321,80.588-40.454,192.147-87.668,276.279c-70.609,125.819-127.531,154.356-144.341,297.257
		c-16.811,142.9,18.254,178.518,67.009,247.447c31.661,44.763,124.405,79.015,290.839,80.696
		c34.713,0.351,79.714,1.903,127.74,2.927c0.058,0.002,0.116,0.003,0.174,0.004c25.731,0.547,52.305,0.93,78.669,0.904
		c16.956-0.017,33.79-0.213,50.253-0.648c83.9-2.22,157.599-10.782,181.945-35.129
		C1020.188,1373.114,1049.868,1256.759,1023.55,1112.531z"/>
	<g>
		<path style="fill:#CF5651;" d="M787.348,705.685c20.174-26.058,2.274-39.462-1.681-61.363
			c-8.287-45.899-50.875-79.691-70.983-93.351c-2.125-0.235-4.246-0.495-6.35-0.795c-29.42-4.203-40.347,3.363-40.347,3.363
			s-26.057,25.218-55.477,24.377c-29.421-0.841-39.507,2.522-74.812,16.812c-3.134,1.268-5.796,2.668-8.255,4.122
			c18.068,29.164,56.627,87.319,173.007,77.42C761.817,671.219,767.175,731.743,787.348,705.685z"/>
		<path style="fill:#CF5651;" d="M779.783,799.831c-9.494,49.845-2.57,94.479,50.139,142.99c3.292,3.029,6.727,6.07,10.383,9.133
			c46.29,38.765,75.808,7.753,87.887-10.655c-8.332-19.019-16.479-35.627-24.004-49.003c-30.26-53.798-10.087-58.842-5.044-122.726
			c2.243-28.404,7.593-83.062-15.602-137.083c-16.59-38.64-47.802-76.942-105.229-105.088c-0.756,3.656-1.886,8.036-3.573,12.69
			c-2.91,8.022-17.857,11.641-36.067,12.024c14.629,15.472,46.438,51.717,60.443,88.006
			C817.609,688.033,789.871,746.874,779.783,799.831z"/>
		<path style="fill:#CF5651;" d="M314.833,1272.571c6.949-0.737,14.771-1.469,23.648-2.849
			c37.826-5.884,32.783-32.783,47.913-80.697c15.13-47.913,17.652-66.406,0.841-82.378c-16.812-15.971-29.42,35.305-41.188,58.842
			c-11.768,23.536-11.768,24.378-42.87,25.218c-23.781,0.643-26.476-6.075-41.437-9.654c-4.606-1.101-10.331-1.916-18.243-2.114
			c-22.596-0.564-36.804,8.726-43.717,14.891c0.802,65.406,15.376,116.082,44.517,151.77c8.698-7.668,21.853-22.082,27.779-43.094
			C279.152,1277.415,292.172,1274.973,314.833,1272.571z"/>
		<path style="fill:#CF5651;" d="M260.784,1163.764c12.658,2.12,24.758,6.155,33.988,11.811
			c26.057,15.972,31.941-12.609,55.477-46.233c23.536-33.623,11.768-25.218,44.551-52.957c32.782-27.739,72.29-6.725,105.073-22.696
			c32.782-15.971,26.897-48.755,0-80.697c-26.899-31.943-57.159-26.899-64.26-69.769c-7.1-42.87,5.419-32.783,12.144-78.175
			c3.474-23.456-3.378-41.921-10.811-54.341c-3.185-5.323-6.451-9.535-9.084-12.526c-2.55,2.054-5.154,4.395-7.845,7.185
			c-22.696,23.537-11.768,46.233-29.421,70.61c-10.629,14.679-21.534,18.057-28.552,18.441
			c-5.51,11.105-11.857,21.539-19.361,31.154c-52.724,67.555-137.608,160.688-142.634,288.093
			C213.127,1162.473,237.871,1159.927,260.784,1163.764z"/>
		<path style="fill:#CF5651;" d="M645.291,1312.592c41.189-3.362,51.275-1.681,72.289-23.536
			c21.015-21.855,36.145-33.624,73.971-41.189c37.826-7.565,58.841-6.725,85.739-32.783c26.898-26.059,15.971-56.32,45.391-101.712
			c29.42-45.392,26.058-28.58,42.029-47.073c2.599-3.009,4.427-6.321,5.764-9.735c-8.688-28.28-18.093-55.174-27.605-79.606
			c-9.505,18.601-36.88,25.622-58.854,27.138c-10.702,0.738-27.238-6.956-43.63-19.014c-20.945-15.407-41.658-37.942-49.673-59.161
			c-14.291-37.827-26.899-32.783-31.943-71.441c-5.043-38.658,4.203-46.242,10.928-71.46c6.724-25.218,7.566-26.059-11.768-61.364
			c-19.333-35.305-36.985-21.855-69.768-33.623c-32.782-11.768-44.55-2.522-79.014-5.044c-31.228-2.285-83.16-61.164-92.636-72.199
			c-8.946,14.084-4.286,31.53-4.87,46.14c-0.841,21.015,0,27.74-26.058,59.682c-11.282,13.83-20.829,20.404-29.872,25.331
			c-4.142,2.257-8.181,4.181-12.228,6.281c1.642,2.219,3.299,4.826,4.912,7.773c9.859,18.003,18.069,48.439,11.131,77.457
			c-9.247,38.667-8.406,50.436-4.203,73.972c4.203,23.537,44.551,36.146,65.098,59.682c20.548,23.536,22.322,36.986,12.235,78.175
			c-10.086,41.189-34.464,28.581-72.289,29.421c-37.826,0.841-42.029,5.884-52.956,20.174c-10.928,14.29,5.884,17.652,5.884,52.957
			c0,35.305-8.405,41.189-12.608,76.494c-4.203,35.305-22.696,42.03-42.159,50.436c-8.178,3.532-16.435,5.429-24.695,7.255
			c-11.4,2.52-22.805,4.901-34.015,11.238c-19.333,10.928-14.29,19.334-26.898,44.552c-5.909,11.817-11.431,18.242-15.65,21.775
			c25.036,23.758,58.403,38.988,100.548,45.472c32.276,4.966,92.573,9.49,162.638,12.32c0.024-3.355,1.59-7.883,6.316-14
			c14.291-18.493,26.899-31.943,40.348-60.523C580.566,1314.274,604.102,1315.954,645.291,1312.592z"/>
		<path style="fill:#CF5651;" d="M460.127,723.689c0.638-0.399,1.297-0.778,1.918-1.192c22.696-15.13,27.739-44.551,29.42-82.378
			c1.682-37.827,25.218-53.798,49.595-65.567c24.376-11.768,47.912-6.725,70.607-7.565c22.696-0.841,25.218-16.812,44.551-28.58
			c19.333-11.768,34.464,2.522,56.319-3.362c13.326-3.588,17.884-16.535,19.425-26.107c-35.735-11.444-78.829-19.708-130.86-23.488
			c0,0-83.723-15.14-138.52,39.34c-15.815,15.724-29.238,37.204-37.522,66.575c-20.043,71.062-26.26,139.837-40.546,198.311
			c5.758-11.318,11.795-23.722,14.488-31.032C404.726,743.108,437.455,737.884,460.127,723.689z"/>
	</g>
	<path style="fill:#C04B4B;" d="M314.833,1272.571c-33.183-17.883-55.618-37.879-52.844-52.444
		c2.16-11.342,0.852-24.429-0.249-39.075c-4.606-1.101-10.331-1.916-18.243-2.114c-22.596-0.564-36.804,8.726-43.717,14.891
		c0.802,65.406,15.376,116.082,44.517,151.77c8.698-7.668,21.853-22.082,27.779-43.094
		C279.152,1277.415,292.172,1274.973,314.833,1272.571z"/>
	<path style="fill:#C04B4B;" d="M260.784,1163.764c-0.722-27.415,3.365-59.35,31.465-94.944
		c50.435-63.885,87.421-53.798,100.87-127.77c13.449-73.972-10.087-77.334,15.131-129.451c8.986-18.572,19.46-30.095,28.696-40.891
		c-3.185-5.323-6.451-9.535-9.084-12.526c-2.55,2.054-5.154,4.395-7.845,7.185c-22.696,23.537-11.768,46.233-29.421,70.61
		c-10.629,14.679-21.534,18.057-28.552,18.441c-5.51,11.105-11.857,21.539-19.361,31.154
		c-52.724,67.555-137.608,160.688-142.634,288.093C213.127,1162.473,237.871,1159.927,260.784,1163.764z"/>
	<path style="fill:#C04B4B;" d="M526.769,1403.376c14.291-18.493,26.899-31.943,40.348-60.523
		c13.449-28.579,36.984-26.898,78.173-30.261c41.189-3.362,51.275-1.681,72.289-23.536c21.015-21.855,36.145-33.624,73.971-41.189
		c37.826-7.565,58.841-6.725,85.739-32.783c26.898-26.059,15.971-56.32,45.391-101.712c29.42-45.392,26.058-28.58,42.029-47.073
		c2.599-3.009,4.427-6.321,5.764-9.735c-8.688-28.28-18.093-55.174-27.605-79.606c-9.505,18.601-36.88,25.622-58.854,27.138
		c-10.702,0.738-27.238-6.956-43.63-19.014c15.215,58.628,31.169,120.841,8.327,174.523
		c-33.623,79.016-132.811,65.566-203.42,79.016s-80.695,67.247-164.753,75.654c-43.103,4.31-101.2-11.287-146.708-32.253
		c-11.4,2.52-22.805,4.901-34.015,11.238c-19.333,10.928-14.29,19.334-26.898,44.552c-5.909,11.817-11.431,18.242-15.65,21.775
		c25.036,23.758,58.403,38.988,100.548,45.472c32.276,4.966,92.573,9.49,162.638,12.32
		C520.477,1414.021,522.043,1409.494,526.769,1403.376z"/>
	<path style="fill:#C04B4B;" d="M443.481,748.225c1.642,2.219,3.299,4.826,4.912,7.773c2.833-4.276,5.321-8.853,7.316-14.054
		C451.567,744.2,447.529,746.125,443.481,748.225z"/>
	<path style="fill:#C04B4B;" d="M458.683,682.149c-11.761-80.65-9.484-114.35,3.899-157.359
		c-15.815,15.724-29.238,37.204-37.522,66.575c-20.043,71.062-26.26,139.837-40.546,198.311
		c5.758-11.318,11.795-23.722,14.488-31.032c5.723-15.535,38.453-20.758,61.124-34.954
		C461.472,712.763,461.197,699.384,458.683,682.149z"/>
	<path style="fill:#C04B4B;" d="M761.291,1278.969c-20.175-4.203-19.334,14.289-31.943,28.579
		c-12.608,14.291-22.695,19.334-63.042,19.334c-40.348,0-45.391-5.043-75.652,5.044c-30.261,10.087-21.855,37.826-23.536,63.884
		c-0.73,11.318-2.571,18.506-4.419,23.024c53.825,1.555,110.972,2.058,164.247,1.013c12.498-19.31,39.01-61.538,52.838-92.965
		C798.275,1284.852,781.464,1283.171,761.291,1278.969z"/>
	<path style="fill:#C04B4B;" d="M927.724,1136.908c-17.652,31.943-9.247,55.479-22.696,87.421
		c-13.449,31.943-32.782,24.377-58.84,24.377c-26.058,0-36.986,8.407-47.913,16.812c-10.927,8.406,11.768,34.465-4.202,62.204
		c-15.971,27.74-25.218,39.509-34.464,68.929c-3.259,10.369-5.785,17.558-7.707,22.582c94.345-2.816,172-11.019,189.271-27.625
		c43.711-42.03,77.333-127.771,55.478-233.685c-4.594-22.261-10.038-44.492-16-66.27
		C968.744,1103.943,942.595,1109.998,927.724,1136.908z"/>
	<path style="fill:#C04B4B;" d="M857.116,784.7c-18.493,43.711-42.029,43.711-33.623,121.045
		c1.296,11.925,3.596,24.333,6.429,37.076c3.292,3.029,6.727,6.07,10.383,9.133c46.29,38.765,75.808,7.753,87.887-10.655
		c-8.332-19.019-16.479-35.627-24.004-49.003c-30.26-53.798-10.087-58.842-5.044-122.726c2.243-28.404,7.593-83.062-15.602-137.083
		c-6.491,7.666-12.716,21.543-16.339,46.299C857.116,747.715,875.609,740.99,857.116,784.7z"/>
	<path style="fill:#6D3232;" d="M1898.63,1234.778c-0.597-6.716-1.481-13.565-2.751-20.583c-0.102-0.56-0.159-1.101-0.265-1.664
		c-1.563-8.305-3.083-16.196-4.589-23.784c-1.773-8.932-3.527-17.418-5.296-25.471c-0.541-2.46-1.086-4.845-1.631-7.231
		c-0.832-3.638-1.673-7.197-2.523-10.672c-12.451-50.928-27.31-85.071-57.619-122.042c15.606,40.542,21.286,90.573,19.996,122.824
		c-1.682,42.029-15.131,43.711-70.609,47.073c-55.478,3.363-85.738-25.218-206.781-30.261
		c-121.044-5.044-154.666,35.305-220.231,52.117c-65.565,16.812-136.173-8.406-166.434-31.943
		c-30.262-23.536-25.218-85.74-52.117-178.997c-26.898-93.256-43.709-116.891-94.437-195.906
		c-50.728-79.016-29.968-80.697-38.374-131.968c-8.405-51.272-62.202-110.123-104.231-152.152
		c-42.029-42.03-187.047-61.742-187.047-61.742c58.738,11.968,102.903,31.564,136.193,55.611
		c70.751,51.104,92.518,122.244,101.287,182.656c13.193,90.884,0,110.958,0,159.713c0,48.754,53.797,95.558,82.377,252.177
		c26.318,144.229-3.362,260.583-53.797,311.019c-24.346,24.347-98.045,32.908-181.945,35.129c0.06,0.383,0.105,0.766,0.187,1.147
		c224.234,2.092,666.912,4.561,723.089-7.826c75.651-16.681,163.071,5.661,228.635-4.913c0.534-0.086,1.099-0.217,1.64-0.312
		c18.9-3.337,41.825-12.388,64.322-26.939c43.992-28.454,86.184-77.947,92.898-147.018
		C1899.754,1260.737,1899.81,1248.047,1898.63,1234.778z"/>
	<path style="fill:#8D4243;" d="M946.625,537.567c29.852,45.392,13.3,68.928,56.88,94.146
		c43.581,25.218,67.116,23.536,127.638,28.581c60.522,5.044,82.64-5.044,127.059,25.218c44.418,30.261,67.954,35.305,67.954,35.305
		s72.738,16.318,50.435-33.623c-22.303-49.942-45.391-33.623-85.739-72.292c-40.347-38.666-107.351-68.928-164.631-89.102
		c-57.28-20.174-163.193-58.842-232.12-63.885c0,0-40.348-3.892-20.173,21.591C894.101,508.986,916.774,492.175,946.625,537.567z"/>
	<path style="fill:#8D4243;" d="M1458.968,922.557c28.579,43.711,13.449,75.653,68.927,68.929
		c55.478-6.725,60.522-9.977,107.594,0.896c47.072,10.873,52.115,23.481,107.594,60.888c55.478,37.406,73.97,31.522,65.564,0
		c-8.406-31.523-45.391-63.514-85.739-101.316c-40.347-37.802-51.905-61.319-117.575-97.474
		c-65.67-36.155-141.321-118.533-186.712-121.896c0,0-30.261,15.131-13.449,58.842
		C1421.983,835.136,1430.388,878.847,1458.968,922.557z"/>
	<path style="fill:#C6BAAC;" d="M2184.639,1227.779c-4.032-6.465-9.312-12.666-15.748-18.611
		c-21.662-20.008-16.192-5.292-33.245-20.8c-11.882-10.804-1.766-22.648,8.196-42.164c4.337-8.494,8.645-18.422,11.097-30.382
		c8.083-39.438-8.424-42.189-41.267-57.772c-17.324-8.219-24.899-18.612-35.035-24.802c-0.305,6.901-5.545,10.998,6.344,30.092
		c17.599,28.264,41.323,20.481,36.443,50.46c-4.88,29.979-18.831,40.881-18.831,40.881s-51.772,16.724-41.219,45.44
		c10.552,28.717,44.545,32.522,30.828,56.265c-13.717,23.742-86.525,8.821-107.328-9.984
		c-20.803-18.804-37.357-32.447-74.429-31.691c-5.023,0.102-9.892-0.136-14.568-0.517c1.27,7.018,2.154,13.867,2.751,20.583
		c1.18,13.269,1.124,25.958-0.05,38.039c18.418,3.594,40.985,13.362,64.378,36.321c56.387,55.342,107.347,31.484,157.299,25.283
		c49.951-6.2,60.052-29.392,69.622-55.909c0.997-2.764,1.747-5.478,2.35-8.162
		C2195.69,1254.931,2192.764,1240.802,2184.639,1227.779z"/>
	<path style="fill:#A69484;" d="M2107.893,1175.734c-9.492,28.817-10.019,37.56,23.709,45.736
		c24.385,5.912,41.187,0.786,53.037,6.309c-4.032-6.465-9.312-12.666-15.748-18.611c-21.662-20.008-16.192-5.292-33.245-20.8
		c-11.882-10.804-1.766-22.648,8.196-42.164C2127.517,1151.865,2114.373,1156.059,2107.893,1175.734z"/>
	<path style="fill:#A69484;" d="M2072.315,1310.638c-52.504-3.334-56.422,3.449-94.542-26.492
		c-26.916-21.141-52.408-44.941-79.144-49.368c1.18,13.269,1.124,25.958-0.05,38.039c18.418,3.594,40.985,13.362,64.378,36.321
		c56.387,55.342,107.347,31.484,157.299,25.283c49.951-6.2,60.052-29.392,69.622-55.909c0.997-2.764,1.747-5.478,2.35-8.162
		c-5.149,3.756-12.469,8.078-22.253,14.151C2138.011,1304.342,2124.819,1313.972,2072.315,1310.638z"/>
	<path style="fill:#F2EBE4;" d="M1962.432,1189.328c40.831-29.566,39.856-43.926,66.533-78.163
		c26.678-34.239,46.508-40.5,26.924-60.109c0,0-0.231-23.321-37.29-0.055c-37.059,23.265-19.859,38.289-46.596,66.95
		c-26.736,28.661-22.628,33.297-62.5,39.667c-9.519,1.521-17.485,3.466-23.774,5.659c1.77,8.053,3.524,16.539,5.296,25.471
		C1916.391,1198.753,1924.113,1217.076,1962.432,1189.328z"/>
	<path style="fill:#5E2D2D;" d="M1898.63,1234.778c-0.597-6.716-1.481-13.565-2.751-20.583c-0.102-0.56-0.159-1.101-0.265-1.664
		c-1.563-8.305-3.083-16.196-4.589-23.784c-1.773-8.932-3.527-17.418-5.296-25.471c-0.541-2.46-1.086-4.845-1.631-7.231
		c-1.809,10.229-4.928,20.543-9.885,30.458c-26.899,53.798-23.536,35.304-42.029,87.421c-18.493,52.117-48.754,67.248-48.754,67.248
		h-97.506l-100.869,13.449c0,0-174.839-63.884-230.318-26.899c-55.477,36.986-122.724,52.117-191.651,36.146
		c-68.928-15.971-107.594-47.913-100.869-93.306c6.724-45.392,31.942-75.653,18.493-141.219
		c-13.449-65.566-23.536-95.827-58.84-164.756c-35.304-68.928-40.348-67.247-43.711-131.132
		c-3.362-63.885,26.357-95.411-18.493-189.973c-44.849-94.562-119.78-125.495-119.78-125.495l0,0
		c70.751,51.104,92.518,122.244,101.287,182.656c13.193,90.884,0,110.958,0,159.713c0,48.754,53.797,95.558,82.377,252.177
		c26.318,144.229-3.362,260.583-53.797,311.019c-24.346,24.347-98.045,32.908-181.945,35.129c0.06,0.383,0.105,0.766,0.187,1.147
		c224.234,2.092,666.912,4.561,723.089-7.826c75.651-16.681,163.071,5.661,228.635-4.913c0.534-0.086,1.099-0.217,1.64-0.312
		c18.9-3.337,41.825-12.388,64.322-26.939c43.992-28.454,86.184-77.947,92.898-147.018
		C1899.754,1260.737,1899.81,1248.047,1898.63,1234.778z"/>
</g>
</svg>
