<?xml version="1.0" encoding="utf-8"?>
<!-- Generator: Adobe Illustrator 27.5.0, SVG Export Plug-In . SVG Version: 6.00 Build 0)  -->
<svg version="1.1" xmlns="http://www.w3.org/2000/svg" xmlns:xlink="http://www.w3.org/1999/xlink" x="0px" y="0px"
	 viewBox="0 0 500 500" style="enable-background:new 0 0 500 500;" xml:space="preserve">
<g id="BACKGROUND">
	<rect style="fill:#FFB685;" width="500" height="500"/>
</g>
<g id="OBJECTS">
	<path style="fill:#FFC197;" d="M354.878,212.48c-4.01,13.44-17.28,19.87-27.82,27.51c-6.66,4.84-11.21,10.42-15.02,17.7
		c-3.54,6.78-7,13.65-13.39,18.2c-13.12,9.33-30.9,6.67-45.05,13.84c-14.26,7.23-26.75,17.19-43.68,13.22
		c-8.65-2.04-16.41-6.64-24.69-9.7c-9.53-3.53-18.94-3.22-28.91-2.46c-5.29,0.4-10.62,0.54-15.71,0.01
		c-10.52-1.09-20.03-5.04-26.13-15.41c-4.03-6.85-6.13-14.67-10.34-21.44c-4.9-7.86-12.77-13.11-20.08-18.5
		c-12.12-8.96-24.22-20.63-22.02-37.08c2.3-17.29,16.42-30.23,21.03-46.82c2.71-9.77,2.22-19.19,1.68-29.17
		c-0.43-8.14,0.07-16.55,5.05-23.35c6.51-8.9,17.35-13.41,28.14-16.62c3.99-1.49,8.03-2.8,11.9-4.08
		c8.99-2.97,17.44-6.48,24.93-12.38c5.97-4.7,11.55-10.12,18.28-13.77c6.28-3.41,13.02-4.65,20.03-2.97
		c4.78,1.14,9.22,3.43,14.03,4.45c4.42,0.94,8.9,0.41,13.25-0.63c6.07-1.44,11.93-3.72,18.02-5.01c1.94-0.42,3.89-0.73,5.88-0.89
		c8.25-0.64,15.95,2.27,22.49,7.15c13.55,10.11,20.57,27.54,35.67,35.69c7.12,3.84,15.43,4.62,22.76,7.98
		c6.58,3.01,11.47,8.11,14.23,14.79c7.11,17.23-0.97,35.96,4.21,53.48C348.028,181.14,359.748,196.19,354.878,212.48z"/>
	<g>
		<g>
			<path style="fill:#FF8A3B;" d="M252.098,443.249c3.714,0.655,7.752,0.331,11.402-0.571c1.519-0.375,2.936-1.025,4.231-1.872
				L216.143,133.31l-3.988,0.032l38.61,309.618C251.212,443.077,251.661,443.172,252.098,443.249z"/>
			<path style="fill:#F47E2F;" d="M252.098,443.249c2.139,0.377,4.384,0.421,6.602,0.226l-45.462-310.142l-1.084,0.009
				l38.61,309.618C251.212,443.077,251.661,443.172,252.098,443.249z"/>
		</g>
		<g>
			<g>
				<path style="fill:#FF9E29;" d="M323.102,187.279c0,60.92-49.38,86.95-110.29,86.95c-23.4,0-45.09-3.84-62.93-12.02
					c-28.63-13.12-47.37-37.41-47.37-74.93c0-7.17,0.68-14.18,2-20.97c2.74-14.27,8.24-27.56,15.92-39.3
					c19.68-30.12,53.7-50.02,92.38-50.02c26.59,0,51,9.41,70.05,25.09c13.11,10.8,23.69,24.57,30.71,40.28
					c4.88,10.93,8.03,22.81,9.1,35.27C322.962,180.809,323.102,184.029,323.102,187.279z"/>
				<path style="fill:#FF8827;" d="M282.862,102.079c-1.61,2.21-3.35,4.33-5.07,6.37c-4.47,5.26-9.52,10.01-15,14.22
					c-10.69,8.21-22.94,14.24-35.66,18.61c-13.82,4.74-28.39,7.74-43.02,8.05c-23,0.49-46.8-6.48-63.68-22.32
					c19.68-30.12,53.7-50.02,92.38-50.02C239.402,76.989,263.812,86.399,282.862,102.079z"/>
				<path style="fill:#FF8827;" d="M322.672,177.629c-4.35,9.07-10.13,17.45-17.32,24.5c-10.25,10.04-23.16,16.66-36.72,21.05
					c-14.72,4.77-30.07,6.98-45.31,9.43c-15.21,2.44-30.54,5.18-44.87,11.03c-10.55,4.31-20.63,10.35-28.57,18.57
					c-28.63-13.12-47.37-37.41-47.37-74.93c0-7.17,0.68-14.18,2-20.97c14.46,0.66,28.7,6.38,41.78,12.23
					c9.62,4.3,19.18,8.8,29.29,11.86c9.29,2.8,18.92,4.48,28.61,5.04c19.45,1.1,39.21-2.25,57.09-10.02
					c16.13-7.01,30.6-17.58,42.38-30.61c3.56-3.93,6.87-8.1,9.91-12.45C318.452,153.289,321.602,165.169,322.672,177.629z"/>
				<path style="fill:#F9B264;" d="M317.472,188.339c0,52.285-33.558,74.627-74.954,74.627s-74.954-22.342-74.954-74.627
					s33.558-94.67,74.954-94.67S317.472,136.054,317.472,188.339z"/>
				<path style="fill:#ED7318;" d="M231.655,92.009c-19.43,4.184-35.633,17.263-46.651,33.445
					c-11.468,16.842-18.322,37.238-19.718,57.537c-0.803,11.686,0.369,23.546,3.767,34.769c0.93,3.071,5.758,1.762,4.821-1.329
					c-5.816-19.206-4.657-39.853,1.307-58.877c5.639-17.99,15.503-35.274,30.267-47.292c8.001-6.513,17.437-11.256,27.536-13.431
					C236.129,96.153,234.798,91.332,231.655,92.009z"/>
				<path style="fill:#ED7318;" d="M208.036,253.469c-12.464-4.927-23.16-14.049-30.128-25.476
					c-1.673-2.743-5.999-0.234-4.317,2.524c7.691,12.612,19.396,22.351,33.116,27.774c1.256,0.497,2.745-0.544,3.075-1.746
					C210.172,255.124,209.296,253.967,208.036,253.469z"/>
				<path style="fill:#FF9E29;" d="M306.203,151.841c-4.481-13.486-11.699-26.173-21.921-36.139
					c-5.541-5.402-11.941-9.956-18.983-13.183c-1.227-0.562-2.692-0.349-3.421,0.897c-0.629,1.076-0.336,2.855,0.897,3.42
					c11.917,5.46,21.664,14.669,28.751,25.616c8.041,12.422,12.484,26.715,14.699,41.266c1.332,8.752,1.813,17.624,1.886,26.469
					c0.026,3.216,5.027,3.224,5,0C312.977,183.895,311.364,167.373,306.203,151.841z"/>
				<path style="fill:#FF9E29;" d="M307.793,212.466c-1.387-0.316-2.623,0.419-3.075,1.746c-1.749,5.136-4.166,9.988-7.305,14.661
					c-0.731,1.088-0.246,2.817,0.897,3.421c1.261,0.666,2.64,0.265,3.421-0.897c3.298-4.91,5.903-10.258,7.809-15.856
					C309.961,214.303,309.056,212.754,307.793,212.466z"/>
				<path style="fill:#FF8827;" d="M172.569,253.379c-6.435,0-6.445,10,0,10C179.003,263.379,179.014,253.379,172.569,253.379z"/>
				<path style="fill:#FF8827;" d="M118.36,152.885c-6.435,0-6.445,10,0,10C124.795,162.885,124.805,152.885,118.36,152.885z"/>
				<path style="fill:#FF8827;" d="M140.878,159.14c-6.435,0-6.445,10,0,10C147.312,169.14,147.323,159.14,140.878,159.14z"/>
				<path style="fill:#FF8827;" d="M131.704,142.877c-6.435,0-6.445,10,0,10C138.138,152.877,138.149,142.877,131.704,142.877z"/>
				<path style="fill:#ED7318;" d="M148.383,237.951c-6.435,0-6.445,10,0,10C154.818,247.951,154.829,237.951,148.383,237.951z"/>
				<path style="fill:#ED7318;" d="M166.731,233.364c-6.435,0-6.445,10,0,10C173.165,243.364,173.176,233.364,166.731,233.364z"/>
				<path style="fill:#ED7318;" d="M151.302,219.186c-6.435,0-6.445,10,0,10C157.737,229.186,157.747,219.186,151.302,219.186z"/>
			</g>
			<path style="fill:#BA2A2A;" d="M245.125,159.647c-3.217,0-3.223,5,0,5C248.342,164.647,248.347,159.647,245.125,159.647z"/>
			<path style="fill:#FF8827;" d="M209.414,137.379c-1.303-0.689-2.59-0.232-3.42,0.897c-3.123,4.246-6.098,8.599-8.92,13.05
				c-0.701,1.106-0.267,2.805,0.897,3.42c1.234,0.652,2.672,0.284,3.42-0.897c2.822-4.452,5.797-8.804,8.92-13.05
				C211.088,139.742,210.522,137.964,209.414,137.379z"/>
			<path style="fill:#FF8827;" d="M205.822,177.257c-0.209-0.646-0.589-1.107-1.149-1.494c-2.41-1.667-4.82-3.334-7.23-5.001
				c-0.51-0.353-1.348-0.411-1.926-0.252c-0.58,0.16-1.208,0.608-1.494,1.149c-0.307,0.58-0.46,1.283-0.252,1.926
				c0.209,0.646,0.589,1.107,1.149,1.494c2.41,1.667,4.82,3.334,7.23,5.001c0.51,0.353,1.348,0.411,1.926,0.252
				c0.58-0.16,1.208-0.608,1.494-1.149C205.876,178.603,206.03,177.9,205.822,177.257z"/>
			<path style="fill:#FF8827;" d="M187.493,203.271c0.091-0.682,0.109-1.268-0.256-1.891c-0.303-0.519-0.898-1.013-1.494-1.149
				c-0.64-0.146-1.358-0.114-1.926,0.252c-0.505,0.326-1.064,0.869-1.149,1.494c-0.471,3.451-0.8,6.912-0.923,10.394
				c-0.046,1.308,1.183,2.559,2.5,2.5c1.394-0.062,2.45-1.098,2.5-2.5c0.057-1.595,0.15-3.189,0.285-4.78
				c0.065-0.763,0.139-1.526,0.222-2.288c0.041-0.381,0.085-0.761,0.131-1.142c0.027-0.222,0.055-0.444,0.083-0.665
				c0.012-0.093,0.019-0.15,0.024-0.187c0-0.001,0-0.001,0-0.003c0-0.001,0-0.002,0-0.003
				C187.495,203.258,187.495,203.253,187.493,203.271z"/>
			<path style="fill:#FF8827;" d="M212.955,246.205c-2.5-2.967-4.999-5.935-7.499-8.902c-0.846-1.004-2.675-0.937-3.536,0
				c-0.981,1.068-0.902,2.465,0,3.536c2.5,2.967,4.999,5.935,7.499,8.902c0.846,1.004,2.675,0.937,3.536,0
				C213.936,248.673,213.857,247.276,212.955,246.205z"/>
			<path style="fill:#FF8827;" d="M257.265,248.958c-0.196-0.605-0.571-1.189-1.149-1.494c-0.637-0.337-1.22-0.349-1.926-0.252
				c-3.102,0.425-6.167,1.075-9.174,1.946c-1.255,0.364-2.166,1.779-1.746,3.075c0.413,1.275,1.73,2.136,3.075,1.746
				c3.007-0.871,6.072-1.521,9.174-1.946c0.574-0.079,1.217-0.676,1.494-1.149C257.327,250.348,257.46,249.558,257.265,248.958z"/>
			<path style="fill:#FF8827;" d="M304.611,180.124c-0.054-0.672-0.243-1.278-0.732-1.768c-0.434-0.434-1.145-0.76-1.768-0.732
				c-0.647,0.029-1.317,0.241-1.768,0.732c-0.428,0.466-0.785,1.112-0.732,1.768c0.185,2.317,0.371,4.633,0.556,6.95
				c0.054,0.672,0.243,1.278,0.732,1.768c0.434,0.434,1.145,0.76,1.768,0.732c0.647-0.029,1.317-0.241,1.768-0.732
				c0.428-0.466,0.785-1.112,0.732-1.768C304.982,184.758,304.797,182.441,304.611,180.124z"/>
			<path style="fill:#FF8827;" d="M292.659,152.881c-0.044-0.667-0.249-1.284-0.732-1.768c-0.434-0.434-1.145-0.76-1.768-0.732
				c-0.647,0.029-1.317,0.241-1.768,0.732c-0.432,0.47-0.776,1.108-0.732,1.768c0.093,1.39,0.185,2.78,0.278,4.17
				c0.044,0.667,0.249,1.284,0.732,1.768c0.434,0.434,1.145,0.76,1.768,0.732c0.647-0.029,1.317-0.241,1.768-0.732
				c0.432-0.47,0.776-1.108,0.732-1.768C292.845,155.661,292.752,154.271,292.659,152.881z"/>
			<path style="fill:#FF8827;" d="M285.251,171.994c-0.524-0.481-1.07-0.639-1.768-0.732c-2.78-0.372-5.559-0.745-8.339-1.117
				c-0.586-0.078-1.372,0.336-1.768,0.732c-0.434,0.434-0.76,1.145-0.732,1.768c0.029,0.647,0.241,1.317,0.732,1.768
				c0.524,0.481,1.07,0.639,1.768,0.732c2.78,0.372,5.559,0.745,8.339,1.117c0.586,0.078,1.372-0.336,1.768-0.732
				c0.434-0.434,0.76-1.145,0.732-1.768C285.954,173.115,285.742,172.445,285.251,171.994z"/>
			<path style="fill:#FF8827;" d="M273.292,237.855c-2.964-3.55-6.819-6.184-11.095-7.895c-0.563-0.225-1.426-0.041-1.926,0.252
				c-0.519,0.303-1.013,0.898-1.149,1.494c-0.329,1.445,0.443,2.554,1.746,3.075c0.045,0.018,0.202,0.084,0.269,0.111
				c0.214,0.094,0.427,0.191,0.638,0.292c0.469,0.223,0.932,0.461,1.386,0.714c0.885,0.491,1.74,1.036,2.56,1.631
				c0.089,0.064,0.177,0.129,0.264,0.195c0.004,0.003,0.013,0.009,0.019,0.014c-0.025-0.017,0.147,0.114,0.189,0.148
				c0.107,0.086,0.213,0.172,0.318,0.26c0.379,0.315,0.748,0.64,1.108,0.977c0.76,0.711,1.471,1.47,2.137,2.268
				c0.841,1.008,2.678,0.934,3.536,0C274.276,240.319,274.19,238.93,273.292,237.855z"/>
			<path style="fill:#778C1E;" d="M294.804,140.512l-4.709-6.129c-0.415-0.54-0.809-0.96-1.494-1.149
				c-0.598-0.165-1.395-0.09-1.926,0.252c-0.534,0.344-1.004,0.857-1.149,1.494c-0.138,0.608-0.147,1.407,0.252,1.926l4.709,6.129
				c0.415,0.54,0.809,0.96,1.494,1.149c0.598,0.165,1.395,0.09,1.926-0.252c0.534-0.344,1.004-0.857,1.149-1.494
				C295.195,141.83,295.203,141.031,294.804,140.512z"/>
			<path style="fill:#778C1E;" d="M301.188,167.228c-0.077-0.325-0.227-0.609-0.447-0.85c-0.176-0.272-0.41-0.487-0.701-0.644
				c-0.58-0.307-1.283-0.46-1.926-0.252c-0.199,0.084-0.398,0.168-0.597,0.252c-0.376,0.222-0.675,0.521-0.897,0.897
				c-0.463,1.019-0.927,2.039-1.39,3.058c-0.183,0.287-0.282,0.597-0.297,0.93c-0.074,0.332-0.06,0.665,0.045,0.997
				c0.077,0.325,0.227,0.609,0.448,0.85c0.176,0.272,0.41,0.487,0.701,0.644c0.58,0.307,1.283,0.46,1.926,0.252
				c0.199-0.084,0.398-0.168,0.597-0.252c0.376-0.222,0.675-0.521,0.897-0.897l1.39-3.058c0.183-0.287,0.282-0.597,0.297-0.93
				C301.307,167.893,301.292,167.56,301.188,167.228z"/>
			<path style="fill:#778C1E;" d="M305.549,201.986c-0.475-0.436-1.104-0.766-1.768-0.732c-1.615,0.083-3.233,0.02-4.837-0.18
				c-0.019-0.003-0.039-0.005-0.058-0.008c-0.332-0.104-0.665-0.119-0.997-0.045c-0.333,0.015-0.643,0.114-0.93,0.297
				c-0.519,0.303-1.013,0.898-1.149,1.494c-0.146,0.64-0.114,1.358,0.252,1.926c0.329,0.51,0.866,1.053,1.494,1.149
				c2.067,0.315,4.135,0.474,6.224,0.367c0.661-0.034,1.291-0.256,1.768-0.732c0.434-0.434,0.76-1.145,0.732-1.768
				C306.252,203.107,306.04,202.436,305.549,201.986z"/>
			<path style="fill:#778C1E;" d="M233.558,240.54c-1.303-0.297-2.727,0.391-3.075,1.746c-0.834,3.243-1.668,6.487-2.502,9.73
				c-0.325,1.265,0.414,2.772,1.746,3.075c1.303,0.297,2.727-0.391,3.075-1.746c0.834-3.243,1.668-6.487,2.502-9.73
				C235.629,242.35,234.889,240.843,233.558,240.54z"/>
			<path style="fill:#778C1E;" d="M219.931,225.028c-0.521-0.479-1.071-0.646-1.768-0.732c-3.6-0.447-7.219-0.716-10.846-0.804
				c-1.308-0.032-2.559,1.173-2.5,2.5c0.062,1.382,1.098,2.466,2.5,2.5c3.627,0.089,7.246,0.357,10.846,0.804
				c0.59,0.073,1.368-0.332,1.768-0.732c0.434-0.434,0.76-1.145,0.732-1.768C220.634,226.149,220.422,225.479,219.931,225.028z"/>
			<path style="fill:#778C1E;" d="M197.973,212.417c-1.088-0.575-2.854-0.379-3.42,0.897c-1.768,3.981-3.537,7.962-5.305,11.943
				c-0.53,1.192-0.387,2.742,0.897,3.42c1.088,0.575,2.854,0.379,3.42-0.897c1.768-3.981,3.537-7.962,5.305-11.943
				C199.399,214.646,199.256,213.096,197.973,212.417z"/>
			<path style="fill:#778C1E;" d="M222.535,196.082c-0.344-0.534-0.857-1.004-1.494-1.149c-0.7-0.159-1.273-0.028-1.926,0.252
				c-3.243,1.391-6.486,2.782-9.728,4.173c-0.535,0.229-1.002,0.962-1.149,1.494c-0.165,0.598-0.09,1.395,0.252,1.926
				c0.344,0.534,0.857,1.004,1.494,1.149c0.7,0.159,1.273,0.028,1.926-0.252c3.243-1.391,6.486-2.782,9.728-4.173
				c0.535-0.229,1.002-0.962,1.149-1.494C222.952,197.41,222.877,196.613,222.535,196.082z"/>
			<path style="fill:#778C1E;" d="M195.442,190.049c-0.095-0.118-0.187-0.237-0.28-0.355c-1.528-2.007-2.876-4.142-4.025-6.388
				c-0.597-1.167-2.33-1.6-3.42-0.897c-1.19,0.768-1.535,2.173-0.897,3.42c1.415,2.767,3.141,5.334,5.087,7.755
				c0.376,0.468,1.196,0.732,1.768,0.732c0.613,0,1.346-0.272,1.768-0.732c0.437-0.476,0.762-1.102,0.732-1.768
				C196.143,191.115,195.88,190.594,195.442,190.049z"/>
			<path style="fill:#778C1E;" d="M219.484,156.901c-0.715-1.109-2.235-1.64-3.42-0.897c-2.602,1.631-5.084,3.445-7.456,5.395
				c-0.466,0.383-0.732,1.189-0.732,1.768c0,0.613,0.272,1.346,0.732,1.768c0.476,0.437,1.102,0.762,1.768,0.732
				c0.699-0.031,1.229-0.29,1.768-0.732c0.432-0.356,0.872-0.702,1.313-1.047c1.655-1.266,3.365-2.459,5.131-3.566
				C219.694,159.627,220.231,158.06,219.484,156.901z"/>
			<path style="fill:#778C1E;" d="M217.521,131.06c-2.069-2.826-3.919-5.805-5.533-8.913c-0.604-1.162-2.325-1.603-3.42-0.897
				c-1.184,0.764-1.543,2.177-0.897,3.421c1.615,3.108,3.464,6.087,5.533,8.913c0.397,0.542,0.823,0.964,1.494,1.149
				c0.598,0.165,1.395,0.09,1.926-0.252C217.667,133.809,218.348,132.188,217.521,131.06z"/>
			<g>
				<path style="fill:#720606;" d="M290.502,108.989c-3.52,5.12-10.21,2.73-14.82,0.67c-2.77-1.24-5.47-3.87-8.35-4.7
					c-1.94-0.57-1.08-1.5-1.06,0.84c0.01,0.67,0.2,1.37,0.48,2.06c0.04,0.09,0.08,0.19,0.12,0.29c0.33,0.78,0.76,1.52,1.11,2.17
					c3.35,6.2,8.88,10.86,12.01,17.25c2.73,5.58,4.27,11.81,3.11,18.01c-4.46,23.93-45.5,32.45-57.34,10.13
					c-3.33-6.28-2.76-13.33-1.7-20.1c0.89-5.62,3.01-13.02-0.28-18.27c-3.72-5.93-11.99-4.08-16.7-0.59
					c-5.41,4.02-9.12,10.37-12.2,16.23c-6.89,13.1-9.05,27.11-12.25,41.33c-2.55,11.31-7.93,25.22-20.44,28.4
					c-6.03,1.53-12.44-0.32-16.41-5.14c-3.47-4.21-4.41-9.63-5.26-14.86c-0.7-4.28-1.93-12.98-8.04-11.52
					c-5.5,1.32-9.29,5.68-15.37,5.55c-12.31-0.27-18.05-13.66-16.39-24.23c1.28-8.12,5.13-16.06,9.8-23.28
					c2.37-3.68,4.95-7.17,7.51-10.39c1.36-1.7,2.78-3.35,4.24-4.97c7.88-10.44,18.14-19.07,29.78-25.77
					c20.32-11.7,44.86-17.51,68.26-16.69c4.76,0.16,9.47,0.59,14.09,1.31c12.58,1.95,24.89,6.03,36.05,12.17
					c4.19,2.31,8.22,4.94,12.02,7.84c1.42,1.08,2.81,2.2,4.16,3.36C290.312,99.249,293.812,104.179,290.502,108.989z"/>
				<path style="fill:#93100C;" d="M282.472,92.729c-1.27,0.85-2.66,1.54-4.13,2.05c-2.27,0.79-4.75,1.06-7.13,0.79
					c-2.59-0.28-5.11-1.11-7.7-1.3c-1.9-0.14-3.94,0.09-5.05,1.74c-0.94,1.4-1.04,3.27-0.8,4.97c0.43,3.16,2.1,5.91,3.64,8.72
					c0.92,1.68,1.79,3.39,2.33,5.2c1.31,4.43,0.28,9.69-3.5,12.64c-1.88,1.46-4.24,2.01-6.56,1.41c-2.47-0.63-4.55-2.48-6.18-4.36
					c-3.05-3.55-4.92-7.79-6.86-12c-1.83-3.98-3.8-8.12-7.25-10.97c-3.47-2.87-8.11-3.91-12.53-3.93
					c-9.61-0.05-19.36,4.27-26.71,10.3c-7.97,6.56-13.1,15.39-16.88,24.88c-1.94,4.89-3.61,9.89-5.37,14.85
					c-1.72,4.86-3.35,10.02-5.87,14.53c-2.26,4.06-6.58,8.29-11.63,6.46c-5.04-1.83-7.41-7.87-8.25-12.74
					c-0.85-4.91-0.59-9.99-1.63-14.87c-0.41-1.96-1.08-4.17-2.74-5.44c-1.46-1.12-3.11-1.22-4.93-1.01
					c-4.25,0.48-8.38,2.46-12.74,2.85c-4.81,0.43-9.11-1.62-11.91-5.52c-0.63-0.87-1.15-1.79-1.57-2.75
					c2.37-3.68,4.95-7.17,7.51-10.39c1.36-1.7,2.78-3.35,4.24-4.97c7.88-10.44,18.14-19.07,29.78-25.77
					c2.68,4.71,3.71,10.6,3.81,15.87c0.06,3.05-0.08,6.1-0.08,9.16c-0.01,2.82-0.02,5.79,0.69,8.53c1.13,4.3,7.12-0.53,8.92-2.09
					c6.78-5.89,11.06-13.98,15.72-21.52c4.97-8.04,10.64-15.7,18.98-20.51c6.16-3.55,13.14-5.51,20.22-6.13
					c4.76,0.16,9.47,0.59,14.09,1.31c12.58,1.95,24.89,6.03,36.05,12.17C274.642,87.199,278.672,89.829,282.472,92.729z"/>
				<path style="fill:#BA2A2A;" d="M126.166,165.146c-2.732,1.6-5.948,3.126-9.21,2.681c-2.393-0.327-4.479-1.831-5.929-3.71
					c-4.075-5.282-3.104-12.476-1.854-18.559c0.272-1.321-0.384-2.701-1.746-3.075c-1.237-0.34-2.802,0.417-3.075,1.746
					c-1.644,7.997-2.338,16.785,3.192,23.489c2.26,2.74,5.436,4.625,8.976,5.056c4.319,0.526,8.51-1.165,12.17-3.309
					C131.464,167.838,128.951,163.515,126.166,165.146z"/>
				<path style="fill:#BA2A2A;" d="M133.186,161.501c-3.217,0-3.223,5,0,5C136.404,166.501,136.409,161.501,133.186,161.501z"/>
				<path style="fill:#BA2A2A;" d="M238.692,154.492c-6.13-3.231-6.952-10.86-6.539-17.046c0.521-7.806,2.519-15.825-0.379-23.422
					c-0.481-1.261-1.684-2.128-3.075-1.746c-1.207,0.332-2.23,1.807-1.746,3.075c3.018,7.91,0.217,16.372,0.098,24.504
					c-0.105,7.245,2.271,15.343,9.118,18.952C239.012,160.309,241.542,155.995,238.692,154.492z"/>
				<path style="fill:#BA2A2A;" d="M163.925,195.853c-0.422-1.305-1.719-2.098-3.075-1.746c-0.24,0.062-0.479,0.121-0.722,0.171
					c-0.033,0.007-0.269,0.048-0.395,0.072c-0.117,0.01-0.467,0.048-0.532,0.053c-0.206,0.014-0.411,0.024-0.617,0.027
					c-0.454,0.008-0.907-0.009-1.359-0.049c-0.087-0.008-0.243-0.029-0.308-0.038c-0.206-0.035-0.412-0.071-0.616-0.116
					c-1.603-0.35-3.163-1.048-4.185-1.917c-0.308-0.262-0.606-0.533-0.888-0.822c-0.169-0.173-0.333-0.351-0.491-0.534
					c-0.007-0.008-0.208-0.263-0.272-0.339c-0.491-0.674-0.909-1.398-1.261-2.154c-0.031-0.071-0.076-0.177-0.099-0.238
					c-0.071-0.189-0.139-0.379-0.201-0.571c-0.136-0.423-0.251-0.852-0.342-1.287c-0.03-0.142-0.055-0.285-0.08-0.428
					c-0.002-0.038-0.051-0.39-0.057-0.463c-0.038-0.484-0.043-0.967-0.027-1.452c0.043-1.308-1.18-2.559-2.5-2.5
					c-1.391,0.062-2.454,1.098-2.5,2.5c-0.146,4.494,1.854,9.137,5.372,11.978c3.755,3.032,8.725,4.144,13.411,2.93
					C163.445,198.601,164.337,197.125,163.925,195.853z"/>
				<path style="fill:#BA2A2A;" d="M256.786,82.85c-17.467-6.781-36.613-8.947-55.169-6.451c-5.298,0.713-10.53,1.795-15.67,3.266
					c-3.088,0.884-1.775,5.71,1.329,4.821c17.332-4.961,35.853-5.444,53.42-1.375c5.024,1.164,9.954,2.694,14.761,4.56
					c1.259,0.489,2.743-0.538,3.075-1.746C258.921,84.512,258.05,83.341,256.786,82.85z"/>
				<path style="fill:#BA2A2A;" d="M265.325,86.628c-3.217,0-3.223,5,0,5C268.543,91.628,268.548,86.628,265.325,86.628z"/>
			</g>
			<g>
				<g>
					<path style="fill:#E85234;" d="M300.572,165.019c0.01,4.77-0.52,9.54-1.57,14.19c-0.14,0.64-0.29,1.27-0.46,1.9
						c-0.69,2.74-1.57,5.44-2.63,8.06c-0.09,0.24-0.18,0.47-0.29,0.7c-2.72,6.61-6.55,12.76-11.36,18.06
						c-6.77,7.46-15.41,13.15-24.87,16.63c-0.66,0.26-1.32,0.49-1.99,0.71c-2.79,0.93-5.64,1.67-8.52,2.21
						c-1.91,0.36-3.84,0.63-5.77,0.81c-0.53,0.05-1.07,0.09-1.6,0.12c-1.77,0.13-3.55,0.17-5.33,0.14c-1.75-1.26-3.35-2.8-4.75-4.35
						c-2.95-3.26-5.3-6.99-6.99-11.05c-0.05-0.11-0.09-0.23-0.14-0.34c0.01-1.1,0.08-2.21,0.2-3.31c0.19-1.99,0.51-3.98,0.82-5.95
						c0.18-1.1,0.35-2.19,0.5-3.28c0-0.01,0-0.01,0-0.02c0.22-1.58,0.42-3.28,0.53-5.01c0.2-2.63,0.21-5.37-0.13-8.01
						c0.34-0.49,0.69-0.97,1.06-1.44c0.12-0.16,0.25-0.32,0.37-0.47c0.81-1,1.7-1.93,2.67-2.77c0.21-0.19,0.43-0.37,0.66-0.55
						c0.36-0.27,0.72-0.54,1.09-0.79c1.85,0.29,3.72,0.5,5.59,0.6c5.7,0.31,11.52-0.28,16.92-2.04c0.45-0.14,0.9-0.29,1.34-0.46
						c2.22-0.81,4.36-1.83,6.38-3.07c0.46-0.28,0.9-0.57,1.34-0.88c0.89-0.6,1.74-1.26,2.55-1.96c0.82-0.7,1.6-1.43,2.34-2.21
						c2.04-2.14,3.76-4.57,5.05-7.2c0.36-0.71,0.68-1.44,0.96-2.18c0.77-1.98,1.28-4.05,1.51-6.18c0.18-1.68,0.15-3.39-0.07-5.07
						c-0.01-0.07-0.02-0.13-0.03-0.19c-0.05-0.41-0.11-0.81-0.19-1.21c-0.03-0.1-0.05-0.2-0.06-0.29c-0.19-0.91-0.43-1.81-0.73-2.69
						c-0.08-0.23-0.16-0.46-0.25-0.69c-0.25-0.69-0.53-1.36-0.85-2.01c-0.33-0.66-0.68-1.3-1.06-1.92c-0.25-0.42-0.52-0.82-0.8-1.21
						c-1.83-2.56-4.22-4.69-7.07-6.09c-4.75-2.33-10.61-2.17-15.34,0.07c-0.48,0.23-0.96,0.48-1.42,0.76
						c-0.91,0.55-1.78,1.18-2.56,1.9c-1.19,1.06-2.21,2.32-2.99,3.77c-0.71,1.33-1.24,2.84-1.12,4.36c0.13,1.51,1.03,3.03,2.46,3.56
						c1.49,0.54,3.4,0,4.57,1.09c1.15,1.08,0.62,3.2-0.71,4.09c-1.32,0.86-3.07,0.76-4.6,0.35c-1.56-0.42-2.98-1.14-4.25-2.09
						c-3.74-2.75-6.14-7.41-6.32-12.13c-0.24-6.31,3.01-12.43,7.72-16.63c10.11-9.01,26.25-9.2,37.88-2.28
						c7.8,4.66,13.64,12,17.38,20.36c1.22,2.74,2.23,5.59,2.99,8.5c0.37,1.41,0.69,2.82,0.95,4.25
						C300.242,157.769,300.562,161.389,300.572,165.019z"/>
					<path style="fill:#D13222;" d="M282.772,155.679c-0.3,6.14-2.54,12.09-5.99,17.19c-0.49,0.73-1.01,1.44-1.55,2.13
						c-4.34,5.53-10.07,9.86-16.29,13.12c-8.5,4.45-18.01,6.83-27.59,7.14c-1.67,0.06-3.34,0.05-5-0.02
						c0.2-2.63,0.21-5.37-0.13-8.01c0.34-0.49,0.69-0.97,1.06-1.44c0.12-0.16,0.25-0.32,0.37-0.47c0.81-1,1.7-1.93,2.67-2.77
						c0.21-0.19,0.43-0.37,0.66-0.55c0.36-0.27,0.72-0.54,1.09-0.79c1.85,0.29,3.72,0.5,5.59,0.6c5.7,0.31,11.52-0.28,16.92-2.04
						c0.45-0.14,0.9-0.29,1.34-0.46c2.22-0.81,4.36-1.83,6.38-3.07c0.46-0.28,0.9-0.57,1.34-0.88c0.89-0.61,1.74-1.26,2.55-1.96
						c0.82-0.7,1.6-1.44,2.34-2.21c2.04-2.14,3.76-4.57,5.05-7.2c0.35-0.71,0.67-1.44,0.96-2.18c0.76-1.98,1.28-4.05,1.5-6.18
						c0.18-1.68,0.15-3.39-0.06-5.07c-0.01-0.07-0.02-0.13-0.03-0.19c-0.05-0.41-0.11-0.81-0.19-1.21c-0.03-0.1-0.05-0.2-0.06-0.29
						c-0.19-0.91-0.43-1.81-0.73-2.69c-0.08-0.23-0.16-0.46-0.25-0.69c-0.25-0.68-0.54-1.35-0.85-2.01
						c-0.33-0.66-0.68-1.3-1.06-1.92c-0.25-0.42-0.52-0.82-0.8-1.21c-1.83-2.56-4.22-4.69-7.07-6.09
						c-4.75-2.33-10.61-2.17-15.34,0.07c-0.48,0.23-0.96,0.48-1.42,0.76c-0.91,0.54-1.78,1.18-2.56,1.89
						c2.68-3.58,6.73-6.2,11.15-7.06c6.9-1.36,14.3,1.35,19.15,6.44C280.772,141.439,283.112,148.669,282.772,155.679z"/>
					<path style="fill:#D13222;" d="M265.172,194.009c-3.09,1.98-6.33,3.7-9.72,5.1c-7.95,3.29-16.58,4.91-25.18,4.74
						c-1.65-0.03-3.31-0.13-4.95-0.3c0.18-1.1,0.35-2.19,0.5-3.28c0-0.01,0-0.01,0-0.02c0.89,0.09,1.78,0.16,2.68,0.21
						c0.76,0.04,1.51,0.07,2.27,0.07c11.34,0.16,22.78-3.04,32.33-9.16c0.76-0.48,1.75-0.48,2.35,0.29
						C265.972,192.319,265.932,193.519,265.172,194.009z"/>
					<path style="fill:#D13222;" d="M281.628,173.985c-2.816,4.895-6.681,9.025-11.39,12.142c-0.754,0.499-0.809,1.679-0.284,2.35
						c0.594,0.759,1.594,0.785,2.35,0.284c4.913-3.253,9.059-7.654,11.997-12.762c0.45-0.782,0.456-1.752-0.329-2.344
						C283.318,173.164,282.081,173.197,281.628,173.985z"/>
				</g>
				<path style="fill:#FF9988;" d="M300.572,165.019c0.01,4.77-0.52,9.54-1.57,14.19c-0.14,0.64-0.29,1.27-0.46,1.9
					c-0.69,2.74-1.57,5.44-2.63,8.06c-0.09,0.24-0.18,0.47-0.29,0.7c-2.72,6.61-6.55,12.76-11.36,18.06
					c-6.77,7.46-15.41,13.15-24.87,16.63c-0.66,0.26-1.32,0.49-1.99,0.71c-2.79,0.93-5.64,1.67-8.52,2.21
					c-1.91,0.36-3.84,0.63-5.77,0.81c-0.53,0.05-1.07,0.09-1.6,0.12c-1.77,0.13-3.55,0.17-5.33,0.14c-1.75-1.26-3.35-2.8-4.75-4.35
					c-2.95-3.26-5.3-6.99-6.99-11.05c-0.05-0.11-0.09-0.23-0.14-0.34c0.01-1.1,0.08-2.21,0.2-3.31c0.82,0.24,1.65,0.45,2.48,0.64
					c0.81,0.18,1.62,0.35,2.44,0.49c5.49,0.99,11.16,1.14,16.72,0.46c2.67-0.31,5.31-0.82,7.9-1.52c0.01,0,0.01,0,0.01,0
					c4.88-1.32,9.56-3.32,13.86-5.99c10.21-6.35,18.05-16.37,21.89-27.77c0.4-1.18,0.75-2.37,1.06-3.58
					c0.62-2.41,1.05-4.87,1.3-7.35c1.19-11.82-1.85-24.12-9.83-33.14c-8.78-9.93-24.56-14.22-36.44-7.25
					c-5.57,3.28-9.91,9.05-10.58,15.58c-0.42,4.23,0.93,8.75,3.67,12.05c-3.74-2.75-6.14-7.41-6.32-12.13
					c-0.24-6.31,3.01-12.43,7.72-16.63c10.11-9.01,26.25-9.2,37.88-2.28c7.8,4.66,13.64,12,17.38,20.36
					c1.22,2.74,2.23,5.59,2.99,8.5c0.37,1.41,0.69,2.82,0.95,4.25C300.242,157.769,300.562,161.389,300.572,165.019z"/>
				<path style="fill:#D13222;" d="M241.484,228.295c0.454,2.294,2.5,3.273,4.631,3.106c3.497-0.274,6.883-0.972,10.203-2.104
					c2.012-0.686,3.558-2.347,3.106-4.631c-0.37-1.87-2.603-3.797-4.631-3.106c-3.32,1.132-6.706,1.83-10.203,2.104
					C242.467,223.83,241.105,226.379,241.484,228.295z"/>
				<path style="fill:#D13222;" d="M273.247,206.626c-2.057,1.537-4.189,2.962-6.441,4.197c-1.866,1.024-3,3.044-2.116,5.158
					c0.755,1.806,3.279,3.147,5.158,2.116c2.873-1.576,5.64-3.304,8.266-5.266C282.176,209.796,277.319,203.583,273.247,206.626z"/>
				<path style="fill:#D13222;" d="M283.091,191.224c-0.686,0.832-1.38,1.655-2.089,2.467c-0.349,0.399-0.7,0.796-1.055,1.189
					c-0.043,0.046-0.09,0.098-0.156,0.17c-0.183,0.198-0.366,0.395-0.55,0.592c-1.403,1.505-2.008,3.874-0.446,5.557
					c1.316,1.418,4.055,2.056,5.557,0.446c1.791-1.921,3.536-3.883,5.207-5.91c1.316-1.596,0.719-4.41-0.979-5.489
					C286.656,189.022,284.495,189.521,283.091,191.224z"/>
				<path style="fill:#D13222;" d="M251.968,209.688c-3.269,1.05-6.535,1.671-9.963,1.852c-5.067,0.267-4.862,8.151,0.21,7.883
					c4.096-0.216,8.145-0.939,12.05-2.193C259.092,215.68,256.809,208.134,251.968,209.688z"/>
				<path style="fill:#E85234;" d="M242.996,228.897c-0.022,0.997,0.738,2.113,1.838,2.096c4.244-0.064,8.356-0.86,12.324-2.361
					c0.968-0.366,1.363-1.779,0.882-2.644c-0.564-1.013-1.608-1.273-2.644-0.881c-0.253,0.096-0.507,0.19-0.763,0.28
					c-0.055,0.02-0.084,0.03-0.117,0.042c-0.035,0.011-0.08,0.025-0.152,0.048c-0.452,0.144-0.904,0.284-1.361,0.411
					c-0.881,0.245-1.771,0.453-2.669,0.625c-1.885,0.359-3.545,0.521-5.242,0.547C244.062,227.074,243.021,227.774,242.996,228.897z
					"/>
				<path style="fill:#E85234;" d="M275.067,209.475c-1.102,0.875-2.255,1.683-3.459,2.413c-0.018,0.011-0.072,0.044-0.129,0.079
					c-0.13,0.079-0.264,0.152-0.396,0.226c-0.33,0.185-0.664,0.365-1.001,0.538c-0.625,0.323-1.261,0.623-1.905,0.907
					c-0.943,0.415-1.519,1.603-1.058,2.579c0.449,0.952,1.568,1.503,2.579,1.058c2.782-1.224,5.422-2.808,7.803-4.697
					c0.807-0.641,1.031-1.957,0.335-2.768C277.143,209.003,275.932,208.788,275.067,209.475z"/>
				<path style="fill:#E85234;" d="M285.421,193.298c-1.851,1.713-3.508,3.611-5.008,5.637c-0.287,0.387-0.329,1.072-0.21,1.517
					c0.123,0.458,0.472,0.956,0.897,1.185c0.456,0.245,1.009,0.37,1.517,0.21c0.517-0.163,0.863-0.463,1.185-0.897
					c0.153-0.206,0.31-0.41,0.466-0.613c1.198-1.507,2.506-2.923,3.919-4.231c0.758-0.702,0.783-2.077,0.021-2.787
					C287.407,192.572,286.23,192.549,285.421,193.298z"/>
				<path style="fill:#E85234;" d="M252.134,213.249c-3.628,0.83-6.687,1.335-10.391,1.713c-1.023,0.104-1.998,0.907-1.918,2.023
					c0.072,0.999,0.927,2.03,2.023,1.918c3.844-0.392,7.667-1.021,11.434-1.883c1.007-0.23,1.649-1.505,1.311-2.46
					C254.216,213.494,253.213,213.002,252.134,213.249z"/>
				<path style="fill:#D13222;" d="M293.016,180.556c-0.232,0.881-0.474,1.759-0.731,2.633c-0.126,0.43-0.256,0.859-0.389,1.286
					c-0.016,0.051-0.034,0.107-0.06,0.185c-0.07,0.217-0.141,0.433-0.213,0.649c-0.545,1.652-0.171,3.684,1.624,4.423
					c1.511,0.623,3.84,0.144,4.423-1.624c0.695-2.108,1.34-4.232,1.906-6.379c0.445-1.69-1.008-3.64-2.693-3.867
					C294.973,177.605,293.491,178.752,293.016,180.556z"/>
				<path style="fill:#E85234;" d="M295.538,181.323c-0.815,1.97-1.415,4.013-1.85,6.099c-0.083,0.398,0.127,0.939,0.376,1.239
					c0.256,0.308,0.701,0.567,1.108,0.592c0.436,0.027,0.905-0.073,1.239-0.376c0.339-0.308,0.499-0.661,0.592-1.108
					c0.044-0.212,0.093-0.424,0.141-0.635c0.386-1.581,0.889-3.13,1.512-4.634c0.334-0.807-0.134-1.871-0.97-2.147
					C296.806,180.063,295.894,180.462,295.538,181.323z"/>
				<path style="fill:#D13222;" d="M292.782,165.241c-0.036,0.775-0.081,1.549-0.14,2.322c-0.029,0.38-0.06,0.76-0.095,1.14
					c-0.005,0.045-0.01,0.095-0.017,0.165c-0.02,0.193-0.04,0.386-0.061,0.578c-0.159,1.472,0.514,3.097,2.14,3.393
					c1.369,0.249,3.223-0.565,3.393-2.14c0.203-1.879,0.362-3.761,0.45-5.649c0.069-1.486-1.488-2.85-2.931-2.739
					C293.885,162.435,292.856,163.654,292.782,165.241z"/>
				<path style="fill:#E85234;" d="M295.018,165.43c-0.327,1.785-0.463,3.593-0.453,5.407c0.002,0.346,0.273,0.759,0.533,0.964
					c0.268,0.211,0.684,0.347,1.028,0.295c0.368-0.055,0.741-0.222,0.964-0.533c0.227-0.317,0.298-0.639,0.295-1.028
					c-0.001-0.185,0.002-0.369,0.004-0.554c0.04-1.385,0.182-2.764,0.432-4.127c0.134-0.731-0.445-1.534-1.19-1.614
					C295.848,164.156,295.161,164.65,295.018,165.43z"/>
			</g>
			<path style="fill:#FF8827;" d="M250.952,229.909c0,0.15-0.02,0.31-0.05,0.47c-0.03,0.13-0.07,0.26-0.12,0.38
				c-0.36,0.95-1.29,1.74-2.33,1.65c-5.68-0.51-11.64-1.15-16.53-4.35c-4.27-2.79-6.84-6.91-7.45-11.97
				c-0.13-1.09-0.18-2.18-0.17-3.28c0.01-1.1,0.08-2.21,0.2-3.31c0.19-1.99,0.51-3.98,0.82-5.95c0.18-1.1,0.35-2.19,0.5-3.28
				c0-0.01,0-0.01,0-0.02c0.22-1.58,0.42-3.28,0.53-5.01c0.2-2.63,0.21-5.37-0.13-8.01c-0.59-4.68-2.29-9.06-6.13-12.01
				c-1.07-0.82-1.65-2.13-0.89-3.42c0.62-1.06,2.35-1.72,3.42-0.89c3.85,2.96,6.37,7.02,7.7,11.64c0.09,0.3,0.17,0.59,0.24,0.89
				c0.96,3.87,1.08,7.87,0.79,11.82c-0.06,0.93-0.15,1.85-0.25,2.77c-0.09,0.83-0.2,1.66-0.33,2.5c-0.15,1.1-0.33,2.21-0.5,3.32
				c-0.35,2.26-0.68,4.52-0.85,6.78c-0.07,0.95-0.1,1.9-0.1,2.85c0.01,4.4,1.64,8.1,5.44,10.46c2.1,1.31,4.42,2.08,6.82,2.57
				c1.14,0.24,2.3,0.42,3.46,0.56c1.14,0.13,2.28,0.24,3.41,0.34c0.15,0.01,0.29,0.04,0.43,0.07
				C250.042,227.739,250.952,228.619,250.952,229.909z"/>
		</g>
		<g>
			<path style="fill:#FFF2E6;" d="M264.6,85.298c-2.512-7.089-9.286-10.462-16.406-11.059c-17.722-1.488-34.539,10.319-47.763,20.68
				c-14.503,11.362-26.735,24.898-39.559,38.03c-5.866,6.007-12.34,12.168-20.334,15.183c-5.896,2.223-19.487,3.644-16.24-6.808
				c2.534-8.158,10.357-15.444,16.297-21.262c6.065-5.94,12.594-11.379,19.049-16.883c11.859-10.112,27.344-21.824,30.412-38.108
				c1.48-7.858-0.73-15.287-8.916-17.822c-7.344-2.275-16.149-1.089-23.37,1.081c-17.149,5.154-30.463,17.592-42.137,30.627
				c-6.902,7.706-13.493,15.719-21.016,22.843c-4.944,4.682-19.03,14.583-22.074,2.539c-2.478-9.805,2.535-21.593,7.688-29.686
				c5.458-8.569,13.108-15.651,21.137-21.779c5.048-3.853,0.072-12.542-5.047-8.635C82.386,54.876,69.729,67.802,64.454,84.968
				c-2.336,7.603-3.743,17.121-0.641,24.706c2.937,7.181,10.273,10.808,17.828,10.222c8.269-0.642,14.945-6.123,20.69-11.635
				c6.833-6.555,12.912-13.835,19.192-20.907c11.816-13.306,25.436-27.096,43.653-30.558c3.808-0.724,8.241-1.123,12.062-0.235
				c5.248,1.219,3.199,7.367,1.625,11.09c-3.355,7.938-10.134,14.094-16.377,19.787c-12.898,11.762-27.26,22.113-38.338,35.738
				c-4.928,6.06-10.579,13.286-10.421,21.534c0.147,7.678,6.032,13.275,13.3,14.687c16.378,3.18,30.924-9.061,41.471-19.946
				c14.734-15.207,28.929-30.922,46.541-42.929c8.437-5.752,17.952-11.504,28.375-12.293c4.184-0.317,9.909-0.198,11.73,4.354
				c1.62,4.049-0.5,8.554-2.926,11.749c-3.891,5.125,4.789,10.113,8.635,5.047C265.085,99.806,266.987,92.035,264.6,85.298z"/>
			<path style="fill:#FFDCC0;" d="M182.945,53.446c-2.901-3.19-7.468-4.077-11.602-3.914c-4.662,0.184-9.362,1.39-13.753,2.911
				c-9.334,3.234-17.804,8.512-25.333,14.856c-7.977,6.721-14.857,14.624-21.291,22.804c-5.878,7.473-11.3,16.406-19.743,21.27
				c-7.055,4.064-17.349,4.496-22.156-3.157c-5.022-7.995-2.081-17.77,1.919-25.486c1.178-2.272,2.464-4.486,3.752-6.698
				c1.298-2.229-2.158-4.245-3.454-2.019c-4.982,8.558-10.052,17.808-8.576,28.056c0.602,4.181,2.375,8.304,5.395,11.312
				c3.162,3.149,7.471,4.745,11.888,4.905c9.76,0.353,17.873-5.713,23.944-12.772c3.279-3.813,6.207-7.915,9.303-11.874
				c3.235-4.137,6.571-8.2,10.103-12.089c6.81-7.499,14.385-14.36,23.133-19.533c4.173-2.467,8.57-4.547,13.181-6.057
				c4.298-1.408,8.95-2.626,13.51-2.431c4.051,0.173,7.7,1.992,8.618,6.219c0.931,4.284-0.846,8.979-2.71,12.768
				c-4.326,8.794-11.496,15.831-18.712,22.29c-7.707,6.898-15.918,13.205-23.68,20.04c-3.898,3.432-7.697,6.995-11.213,10.821
				c-3.248,3.535-6.427,7.79-7.284,12.628c-0.409,2.309-0.284,4.645,0.578,6.84c0.395,1.005,1.34,1.705,2.46,1.397
				c0.958-0.263,1.794-1.449,1.397-2.46c-1.792-4.562,0.558-9.107,3.293-12.752c2.943-3.923,6.688-7.355,10.285-10.666
				c7.555-6.954,15.69-13.235,23.469-19.93c7.488-6.445,14.963-13.315,20.321-21.7C184.4,72.119,189.501,60.654,182.945,53.446z"/>
		</g>
	</g>
	<path style="fill:#FFDCC0;" d="M259.075,84.421c-0.921-2.43-2.294-5.002-4.614-6.357c-2.444-1.427-5.487-1.234-8.185-0.879
		c-5.736,0.754-11.063,3.18-16.189,5.749c-4.98,2.497-9.82,5.271-14.509,8.276c-9.409,6.03-18.231,12.977-26.468,20.522
		c-7.71,7.062-14.871,14.694-22.511,21.83c-8.472,7.913-17.628,15.189-28.325,19.855c-0.99,0.432-1.217,1.882-0.718,2.736
		c0.598,1.022,1.742,1.151,2.736,0.717c18.239-7.955,31.751-23.117,45.741-36.72c7.455-7.249,15.296-14.09,23.742-20.168
		c8.605-6.193,17.842-11.909,27.61-16.084c2.74-1.171,5.597-2.131,8.537-2.646c2.469-0.432,5.844-0.925,7.635,1.251
		c3.366,4.093,3.419,10.595,1.111,15.16c-1.158,2.292,2.291,4.319,3.454,2.019C260.494,94.991,260.952,89.375,259.075,84.421z"/>
	<g>
		<g>
			<g>
				<path style="fill:#FF9E29;" d="M225.528,366.055c0.692,2.765,1.193,5.464,1.509,8.086c4.113,33.587-21.611,54.977-57.105,63.866
					c-24.542,6.146-47.78,4.822-63.826-7.014c-8.967-6.62-15.684-16.525-19.119-30.241c-1.079-4.307-1.738-8.626-2.014-12.897
					c-0.598-9.468,0.708-18.743,3.653-27.398c7.546-22.188,25.857-40.206,50.283-46.323c17.276-4.327,34.662-1.959,49.426,5.456
					c12.175,6.136,22.562,15.709,29.603,27.811C221.271,353.091,223.846,359.343,225.528,366.055z"/>
				<path style="fill:#FF8827;" d="M188.335,319.589c-13.628,12.639-31.736,18.257-49.378,22.809
					c-17.196,4.441-35.261,8.336-50.331,18.058c7.546-22.188,25.857-40.206,50.283-46.323
					C156.185,309.806,173.571,312.173,188.335,319.589z"/>
				<path style="fill:#FF8827;" d="M225.528,366.055c0.692,2.765,1.193,5.464,1.509,8.086c-7.271,7.151-15.456,13.365-24.195,18.605
					c-12.15,7.301-25.415,12.746-39.109,16.392c-7.018,1.861-14.114,3.122-21.286,4.207c-7.489,1.133-15.184,2.267-22.153,5.393
					c-5.934,2.651-10.792,6.796-14.188,12.254c-8.967-6.62-15.684-16.525-19.119-30.241c-1.079-4.307-1.738-8.626-2.014-12.897
					c5.739-4.664,12.461-8.162,19.466-10.689c25.521-9.195,53.244-4.49,79.307-10.78c11.09-2.685,22.068-7.382,30.534-15.193
					c1.297-1.201,2.519-2.455,3.658-3.792C221.271,353.091,223.846,359.343,225.528,366.055z"/>
				<path style="fill:#FF8827;" d="M182.94,348.779c-6.242,1.563-3.823,11.266,2.429,9.7
					C191.611,356.916,189.192,347.213,182.94,348.779z"/>
				<path style="fill:#FF8827;" d="M198.916,342.199c-6.242,1.563-3.823,11.266,2.429,9.7
					C207.587,350.336,205.168,340.633,198.916,342.199z"/>
				<path style="fill:#FF8827;" d="M186.876,330.169c-6.242,1.563-3.823,11.266,2.429,9.7
					C195.547,338.306,193.128,328.603,186.876,330.169z"/>
				<path style="fill:#FF8827;" d="M124.212,424.958c-6.242,1.563-3.823,11.266,2.429,9.7
					C132.883,433.095,130.464,423.392,124.212,424.958z"/>
				<path style="fill:#FF8827;" d="M135.435,418.278c-6.242,1.563-3.823,11.266,2.429,9.7
					C144.106,426.415,141.687,416.712,135.435,418.278z"/>
				<path style="fill:#FF8827;" d="M153.946,426.968c-6.242,1.563-3.823,11.266,2.429,9.7
					C162.617,435.105,160.198,425.402,153.946,426.968z"/>
				<path style="fill:#ED7318;" d="M105.292,406.053c-6.242,1.563-3.823,11.266,2.429,9.7
					C113.963,414.191,111.544,404.488,105.292,406.053z"/>
				<path style="fill:#ED7318;" d="M118.331,389.462c-6.242,1.563-3.823,11.266,2.429,9.7
					C127.003,397.599,124.584,387.896,118.331,389.462z"/>
				<path style="fill:#ED7318;" d="M101.138,387.75c-6.242,1.563-3.823,11.266,2.429,9.7
					C109.809,395.887,107.39,386.184,101.138,387.75z"/>
				<path style="fill:#ED7318;" d="M197.111,379.619c-6.242,1.563-3.823,11.266,2.429,9.7
					C205.782,387.757,203.363,378.054,197.111,379.619z"/>
				<path style="fill:#ED7318;" d="M211.671,370.815c-6.242,1.563-3.823,11.266,2.429,9.7
					C220.342,378.952,217.923,369.249,211.671,370.815z"/>
			</g>
			<path style="fill:#720606;" d="M216.415,358.482c-4.969,6.378-14.891,7.925-22.495,7.036c-4.451-0.524-8.56-1.99-12.216-4.61
				c-3.355-2.407-6.277-6.17-10.204-7.65c-9.895-3.738-6.569,14.232-6.162,18.986c0.704,8.205,0.856,17.744-4.19,24.76
				c-5.032,6.992-15.031,8.558-23.062,6.951c-4.189-0.837-7.622-3.184-10.72-6.047c-2.7-2.509-5.576-6.706-9.45-7.396
				c-4.478-0.796-7.031,4.936-9.007,8.039c-2.198,3.447-4.761,6.965-8.335,9.118c-7.684,4.636-15.798,0.761-20.043-6.433
				c-4.738-8.05-4.586-17.943-2.977-26.831c0.027-0.141,0.051-0.291,0.077-0.432c0.167-0.856,0.344-1.715,0.535-2.557
				c0.672-5.673,1.941-10.939,3.229-14.684c1.265-3.677,2.842-7.217,4.696-10.598c7.513-13.799,19.55-24.926,33.765-31.847
				c16.71-8.154,35.956-10.953,54.199-6.976c0.577,0.123,1.157,0.257,1.729,0.402c4.461,1.099,8.936,2.669,13.242,4.673
				c11.207,5.234,21.327,13.411,27.368,23.866C220.306,343.024,221.493,351.963,216.415,358.482z"/>
			<path style="fill:#93100C;" d="M192.239,322.745c0.933,4.22,1.226,8.847-0.455,12.918c-1.522,3.721-4.29,6.827-8.177,8.099
				c-6.555,2.147-12.463-2.508-18.069-5.093c-2.845-1.318-5.773-1.977-8.814-0.865c-3.39,1.241-5.902,4.138-7.423,7.323
				c-3.742,7.823-2.071,17.044-3.014,25.383c-0.454,4.072-1.508,8.387-4.603,11.297c-3.089,2.897-7.485,3.864-11.297,1.819
				c-3.748-1.999-5.942-6.151-8.143-9.589c-1.932-3.021-4.288-6.462-7.89-7.59c-3.859-1.209-7.678,1.16-10.617,3.463
				c-3.591,2.827-6.885,6.054-11.216,7.737c-4.023,1.554-8.496,1.19-12.108-1.256c-1.034-0.71-1.958-1.52-2.781-2.417
				c0.167-0.856,0.344-1.715,0.535-2.557c0.672-5.673,1.941-10.939,3.229-14.684c1.265-3.677,2.842-7.217,4.696-10.598
				c1.039,2.049,3.442,1.808,5.239,0.873c2.798-1.464,4.291-4.518,5.966-7.051c2.017-3.02,4.438-5.74,7.921-7.025
				c2.82-1.047,5.978-0.621,8.366,1.214c2.12,1.634,3.472,3.945,4.766,6.229c1.136,1.983,2.194,4.028,3.96,5.029
				c1.938,1.112,4.409,0.071,6.114-1.48c2.228-2.012,3.515-4.736,4.61-7.484c1.199-2.991,2.226-6.052,3.625-8.949
				c2.978-6.179,8.176-10.367,14.904-11.825c3.451-0.751,7.057-0.881,10.574-0.628c1.681,0.125,3.352,0.377,5.018,0.609
				c1.579,0.213,3.396,0.51,4.914-0.138c2.255-0.957,3.462-3.63,3.689-5.934c0.06-0.623,0.07-1.244,0.028-1.863
				c4.461,1.099,8.936,2.669,13.242,4.673C190.419,315.768,191.473,319.277,192.239,322.745z"/>
			<path style="fill:#BA2A2A;" d="M161.761,345.313c-7.438,4.793-6.293,14.796-5.56,22.372c0.757,7.821,1.955,17.918-3.956,24.222
				c-2.668,2.845-6.671,4.646-10.559,3.537c-3.1-0.884-4.496,3.918-1.399,4.801c4.091,1.167,8.523,0.308,12.073-1.987
				c3.787-2.448,6.352-6.128,7.824-10.353c3.203-9.198,0.543-18.715,0.452-28.119c-0.034-3.47,0.366-8.044,3.587-10.119
				C166.911,347.934,164.476,343.563,161.761,345.313z"/>
			<path style="fill:#BA2A2A;" d="M92.844,399.844c-0.581-0.103-1.14-0.261-1.692-0.467c-0.011-0.016-0.464-0.22-0.565-0.276
				c-0.272-0.15-0.538-0.314-0.795-0.49c-0.117-0.079-0.231-0.162-0.344-0.246c-0.026-0.021-0.055-0.045-0.085-0.071
				c-0.237-0.207-0.469-0.419-0.69-0.642c-0.222-0.224-0.435-0.457-0.638-0.697c-0.073-0.086-0.143-0.174-0.213-0.262
				c-0.026-0.038-0.127-0.176-0.181-0.255c-0.856-1.263-1.342-2.403-1.721-3.729c-0.217-0.759-0.386-1.53-0.519-2.308
				c-0.149-0.874-0.195-1.32-0.257-2.128c-0.101-1.299-0.998-2.59-2.441-2.559c-1.241,0.027-2.667,1.047-2.559,2.441
				c0.295,3.794,1.038,7.764,3.277,10.937c1.916,2.716,4.677,4.961,8.024,5.553c1.285,0.227,2.755-0.293,3.1-1.701
				C94.839,401.747,94.219,400.087,92.844,399.844z"/>
			<path style="fill:#BA2A2A;" d="M101.309,395.299c-3.121,0.782-1.911,5.633,1.215,4.85
				C105.645,399.368,104.435,394.516,101.309,395.299z"/>
			<path style="fill:#BA2A2A;" d="M214.47,343.915c-4.952-11.815-15.602-20.979-27.96-24.281c-3.111-0.831-4.512,3.969-1.399,4.801
				c11.238,3.003,20.516,11.23,25.005,21.94c0.522,1.246,2.33,1.554,3.407,0.947C214.813,346.595,214.994,345.165,214.47,343.915z"
				/>
			<path style="fill:#778C1E;" d="M189.529,328.698c-5.963,2-12.031,3.471-18.248,4.423c-3.815,0.584-2.333,6.401,1.458,5.82
				c6.217-0.952,12.285-2.423,18.248-4.423C194.623,333.298,193.196,327.467,189.529,328.698z"/>
			<path style="fill:#778C1E;" d="M160.492,316.395c0.103,3.843,0.206,7.686,0.308,11.529c0.103,3.852,6.103,4.006,6,0.142
				c-0.103-3.843-0.205-7.686-0.308-11.529C166.389,312.685,160.389,312.531,160.492,316.395z"/>
			<path style="fill:#778C1E;" d="M132.393,337.324c-4.114-2.695-8.228-5.39-12.342-8.086c-3.237-2.121-6.312,3.032-3.085,5.146
				c4.114,2.695,8.228,5.39,12.342,8.086C132.545,344.591,135.62,339.438,132.393,337.324z"/>
			<path style="fill:#778C1E;" d="M116.628,356.784c-5.626,2.774-10.964,5.987-16.049,9.66c-3.092,2.233-0.183,7.49,2.953,5.225
				c5.085-3.673,10.422-6.886,16.049-9.66C123.042,360.303,120.088,355.078,116.628,356.784z"/>
			<path style="fill:#778C1E;" d="M137.145,354.283c0.096,5.125,0.191,10.25,0.287,15.375c0.072,3.856,6.072,4.007,6,0.142
				c-0.096-5.125-0.191-10.25-0.287-15.375C143.073,350.569,137.073,350.418,137.145,354.283z"/>
			<path style="fill:#778C1E;" d="M133.266,380.038c-2.82-1.991-5.641-3.982-8.461-5.974c-1.324-0.935-3.326-0.286-4.116,1.031
				c-0.886,1.478-0.297,3.178,1.031,4.116c2.82,1.991,5.641,3.982,8.461,5.974c1.324,0.935,3.326,0.286,4.116-1.031
				C135.183,382.676,134.594,380.975,133.266,380.038z"/>
			<path style="fill:#778C1E;" d="M94.1,352.932c-2.27,5.063-4.309,10.207-6.066,15.471c-1.226,3.673,4.541,5.335,5.761,1.679
				c1.593-4.774,3.392-9.472,5.451-14.065C100.809,352.532,95.679,349.41,94.1,352.932z"/>
			<path style="fill:#778C1E;" d="M147.572,327.258c-2.536-2.656-5.072-5.312-7.608-7.967c-2.667-2.792-6.963,1.397-4.29,4.196
				c2.536,2.656,5.072,5.312,7.608,7.967C145.949,334.247,150.245,330.058,147.572,327.258z"/>
		</g>
		<g>
			<path style="fill:#FFF2E6;" d="M161.427,316.84c-5.453-7.734-15.553-6.854-23.243-3.522
				c-16.967,7.354-28.218,22.901-40.743,35.769c-3.843,3.948-19.587,21.079-23.943,9.99c-1.931-4.916,1.116-10.815,3.466-15.036
				c2.636-4.734,5.975-8.892,9.904-12.611c3.549-3.359-1.753-8.795-5.31-5.429c-7.088,6.708-13.803,15.87-15.731,25.628
				c-1.78,9.005,3.259,19.482,13.697,18.551c9.482-0.846,17.444-9.682,23.645-16.097c7.084-7.328,13.576-15.239,21.081-22.155
				c3.655-3.369,7.534-6.463,11.821-8.995c4.22-2.492,9.805-5.59,14.89-4.415c13.738,3.176-4.266,17.228-8.449,20.497
				c-8.202,6.409-17.018,12.036-24.808,18.967c-6.431,5.722-15.906,14.559-15.167,24.027c1.064,13.629,16.94,10.449,25.368,6.439
				c11.135-5.298,19.592-14.899,27.49-24.079c3.162-3.675-2.114-9.144-5.31-5.429c-6.559,7.624-13.365,15.568-22.071,20.815
				c-3.926,2.367-8.776,4.748-13.461,4.861c-6.638,0.16-4.235-6.401-1.842-9.913c10.786-15.826,29.368-24.098,43.04-36.986
				C161.43,332.363,166.732,324.365,161.427,316.84z"/>
			<path style="fill:#FFDCC0;" d="M130.733,323.297c-0.369-0.654-1.4-1.057-2.07-0.575c-8.596,6.187-15.675,14.06-22.911,21.723
				c-3.62,3.833-7.301,7.621-11.272,11.095c-1.933,1.691-3.93,3.31-6.024,4.799c-2.208,1.57-4.534,3.18-7.064,4.185
				c-2.631,1.045-5.449,1.167-7.859-0.45c-1.881-1.262-3.234-3.426-3.36-5.706c-0.107-1.942-3.145-2.024-3.037-0.072
				c0.277,5.009,4.166,9.341,9.175,9.996c3.047,0.399,6.088-0.723,8.722-2.161c2.548-1.392,4.934-3.103,7.237-4.865
				c8.866-6.78,16.088-15.371,23.827-23.344c4.377-4.509,8.949-8.878,14.059-12.556
				C130.823,324.888,131.167,324.068,130.733,323.297z"/>
			<path style="fill:#FFDCC0;" d="M153.25,315.709c-4.869-3.398-10.918-1.324-15.751,0.96c-0.742,0.351-0.957,1.393-0.575,2.07
				c0.428,0.758,1.326,0.927,2.07,0.575c3.868-1.828,8.77-3.739,12.694-1c0.673,0.47,1.682,0.147,2.083-0.522
				C154.219,317.047,153.925,316.18,153.25,315.709z"/>
			<path style="fill:#FFDCC0;" d="M131.66,380.914c-5.497,3.005-11.688,6.58-18.176,6.308c-2.164-0.091-4.737-0.788-5.664-2.974
				c-1.039-2.449-0.12-5.659,0.884-7.981c1.155-2.67,3.035-5.095,5.374-6.831c0.658-0.488,1.014-1.292,0.575-2.07
				c-0.364-0.646-1.407-1.067-2.07-0.575c-2.566,1.905-4.704,4.31-6.139,7.181c-1.481,2.962-2.496,6.509-1.901,9.83
				c1.365,7.616,10.934,7.001,16.484,5.315c4.272-1.298,8.226-3.425,12.127-5.558C134.868,382.622,133.379,379.974,131.66,380.914z"
				/>
		</g>
	</g>
	<g>
		<g>
			<g>
				<path style="fill:#FF9E29;" d="M458.909,394.832c-4.327,20.12-13.936,34.501-27.093,43.976
					c-21.319,15.371-51.985,17.797-84.618,10.778c-39.673-8.533-70.962-28.601-79.194-60.475
					c-2.721-10.507-2.939-22.286-0.126-35.367c0.484-2.249,1.043-4.471,1.675-6.646c7.109-24.636,23.279-44.551,44.041-56.86
					c20.424-12.116,45.296-16.852,70.344-11.465c26.318,5.661,47.855,21.422,61.425,42.363c3.26,5.007,6.047,10.312,8.324,15.845
					C461.03,354.68,463.241,374.693,458.909,394.832z"/>
				<path style="fill:#FF8827;" d="M431.817,438.808c-21.319,15.371-51.985,17.797-84.618,10.778
					c-39.673-8.533-70.962-28.601-79.194-60.475c8.383-2.074,17.541-1.516,25.944,0.456c7.391,1.733,14.557,4.369,21.595,7.171
					c7.161,2.85,14.194,6.009,21.174,9.27c14.072,6.576,27.943,13.61,42.323,19.516c13.939,5.719,28.452,10.385,43.441,12.412
					C425.582,438.357,428.69,438.647,431.817,438.808z"/>
				<path style="fill:#FF8827;" d="M453.687,336.981c-4.442,5.53-9.471,10.554-15.345,14.753
					c-12.244,8.751-27.019,13.623-41.958,14.931c-7.578,0.661-15.246,0.403-22.765-0.733c-8.768-1.323-17.25-3.976-25.566-6.972
					c-17.422-6.264-34.801-14.492-53.586-15.371c-8.467-0.389-16.933,0.828-24.915,3.509c7.109-24.636,23.279-44.551,44.041-56.86
					c0.794,0.161,1.576,0.329,2.354,0.516c7.118,1.715,13.981,4.429,20.733,7.231c6.845,2.843,13.601,5.912,20.379,8.925
					c13.172,5.861,26.509,11.573,40.567,14.934c13.057,3.115,26.846,4.301,40.062,1.446c2.607-0.564,5.165-1.283,7.675-2.154
					C448.623,326.143,451.41,331.448,453.687,336.981z"/>
				<path style="fill:#FF8827;" d="M392.448,414.111c-6.291-1.353-8.404,8.421-2.103,9.776
					C396.636,425.241,398.749,415.466,392.448,414.111z"/>
				<path style="fill:#FF8827;" d="M413.936,421.292c-6.291-1.353-8.404,8.421-2.103,9.776
					C418.124,432.421,420.237,422.647,413.936,421.292z"/>
				<path style="fill:#FF8827;" d="M415.203,401.518c-6.291-1.353-8.404,8.421-2.103,9.776
					C419.391,412.647,421.504,402.873,415.203,401.518z"/>
				<path style="fill:#FF8827;" d="M444.038,398.336c-6.291-1.353-8.404,8.421-2.103,9.776
					C448.226,409.466,450.339,399.692,444.038,398.336z"/>
				<path style="fill:#FF8827;" d="M280.358,366.117c-6.291-1.353-8.404,8.421-2.103,9.776
					C284.546,377.246,286.659,367.472,280.358,366.117z"/>
				<path style="fill:#FF8827;" d="M303.766,376.27c-6.291-1.353-8.404,8.421-2.103,9.776
					C307.954,387.399,310.067,377.625,303.766,376.27z"/>
				<path style="fill:#FF8827;" d="M299.791,357.074c-6.291-1.353-8.404,8.421-2.103,9.776
					C303.979,368.204,306.092,358.43,299.791,357.074z"/>
				<path style="fill:#ED7318;" d="M306.599,327.402c-6.291-1.353-8.404,8.421-2.103,9.776
					C310.787,338.532,312.9,328.758,306.599,327.402z"/>
				<path style="fill:#ED7318;" d="M326.689,335.136c-6.291-1.353-8.404,8.421-2.103,9.776
					C330.877,346.265,332.99,336.491,326.689,335.136z"/>
				<path style="fill:#ED7318;" d="M316.201,415.626c-6.291-1.353-8.404,8.421-2.103,9.776
					C320.389,426.755,322.502,416.981,316.201,415.626z"/>
				<path style="fill:#ED7318;" d="M336.663,431.543c-6.291-1.353-8.404,8.421-2.103,9.776
					C340.851,442.672,342.964,432.898,336.663,431.543z"/>
				<path style="fill:#ED7318;" d="M364.194,430.372c-0.067-0.648-0.291-1.245-0.672-1.791c-0.275-0.326-0.55-0.651-0.825-0.977
					c-0.667-0.606-1.442-1.005-2.324-1.198c-0.446-0.035-0.891-0.07-1.337-0.105c-0.878,0.054-1.687,0.319-2.427,0.793
					c-0.165,0.107-0.33,0.213-0.495,0.32c-0.572,0.34-1.022,0.792-1.349,1.356c-0.431,0.517-0.707,1.114-0.826,1.793
					c-0.17,0.668-0.165,1.326,0.016,1.974c0.067,0.648,0.291,1.245,0.672,1.791c0.275,0.326,0.55,0.651,0.825,0.977
					c0.667,0.606,1.442,1.006,2.323,1.198c0.446,0.035,0.891,0.07,1.337,0.105c0.878-0.054,1.687-0.319,2.427-0.793
					c0.165-0.107,0.33-0.213,0.495-0.32c0.572-0.34,1.022-0.792,1.349-1.356c0.431-0.517,0.707-1.114,0.826-1.793
					C364.38,431.678,364.375,431.02,364.194,430.372z"/>
				<path style="fill:#ED7318;" d="M339.793,413.022c-6.291-1.353-8.404,8.421-2.103,9.776
					C343.981,424.152,346.094,414.378,339.793,413.022z"/>
				<path style="fill:#ED7318;" d="M304.734,405.482c-6.291-1.353-8.404,8.421-2.103,9.776
					C308.922,416.611,311.035,406.837,304.734,405.482z"/>
			</g>
			<path style="fill:#720606;" d="M440.782,370.967c-2.973,5.406-2.786,11.287-1.509,17.146c2.608,11.986,4.667,22.863-1.172,34.362
				c-4.887,9.597-14.078,16.754-24.567,19.203c-8.862,2.063-19.015,0.759-25.961-5.563c-7.381-6.722-7.024-16.138-3.699-24.792
				c3.342-8.691,9.317-18.637-2.597-23.307c-9.303-3.638-19.855-2.133-28.328-8.251c-9.57-6.917-7.9-17.247-6.884-27.533
				c1.185-12.071-7.127-19.177-17.311-23.853c-9.849-4.522-23.45-7.059-29.79-16.769c-5.538-8.494-2.409-19.237,4.19-26.092
				c5.028-7.971,14.214-12.633,23.242-15.612c2.014-0.661,4.031-1.24,5.984-1.761c3.621-0.95,7.273-1.668,10.929-2.16
				c22.437-3.02,45.137,2.436,64.481,14.605c9.936,6.259,18.972,13.849,27.091,22.326c3.71,3.867,7.542,7.974,11.114,12.292
				c3.956,4.768,7.602,9.787,10.431,15.04c1.301,2.418,2.302,4.945,2.932,7.484c1.908,7.632,0.51,15.463-5.931,21.299
				C449.053,362.998,443.735,365.608,440.782,370.967z"/>
			<path style="fill:#93100C;" d="M459.357,337.73c-1.363,2.581-3.038,4.993-4.889,7.131c-2.716,3.118-5.98,5.833-9.51,7.979
				c-3.704,2.241-7.755,3.671-11.743,5.279c-3.592,1.437-7.183,3.15-9.698,6.189c-2.725,3.301-3.655,7.673-4.188,11.814
				c-0.586,4.579-0.671,9.205-1.425,13.758c-0.626,3.814-2.02,7.82-5.048,10.391c-3.376,2.854-7.923,2.786-11.404,0.186
				c-3.464-2.586-5.19-7.069-4.975-11.299c0.241-5.022,2.391-9.5,3.522-14.33c0.788-3.38,1.161-7.585-1.323-10.401
				c-2.41-2.728-6.478-3.316-9.843-4.03c-4.011-0.852-7.966-1.867-11.261-4.427c-6.199-4.801-8.019-13.508-7.862-20.941
				c0.161-7.882,3.202-17.263-2.792-23.83c-5.613-6.148-14.341-7.892-21.765-10.849c-4.163-1.663-8.265-3.803-11.437-7.032
				c-2.82-2.867-4.828-6.419-5.975-10.266c-1.264-4.251-1.584-8.708-1.346-13.147c2.014-0.661,4.031-1.24,5.984-1.761
				c3.621-0.95,7.273-1.668,10.929-2.16c0.237,0.992,0.473,1.984,0.722,2.968c1.087,4.315,2.438,8.544,4.79,12.353
				c2.116,3.432,4.86,6.558,8.192,8.85c3.129,2.146,6.861,3.624,10.687,3.72c4.568,0.113,9.007-1.264,13.562-1.42
				c4.535-0.16,8.805,1.055,12.293,4.004c3.128,2.626,5.316,6.34,6.643,10.154c1.578,4.554,1.881,9.467,1.957,14.25
				c0.046,2.403,0.029,4.814,0.106,7.214c0.067,2.019,0.036,4.304,1.033,6.134c1.615,2.956,5.28,3.417,8.369,3.13
				c3.873-0.364,7.48-2.155,10.753-4.152c7.422-4.5,13.567-10.717,20.519-15.839c0.971-0.712,1.99-1.454,3.059-2.145
				c3.956,4.768,7.602,9.787,10.431,15.04C457.726,332.663,458.727,335.19,459.357,337.73z"/>
			<path style="fill:#BA2A2A;" d="M432.472,387.531c-0.821-3.112-5.571-1.548-4.752,1.559c3.848,14.589-1.393,30.742-12.723,40.594
				c-1.02,0.887-0.758,2.695,0.158,3.533c1.092,0.999,2.511,0.731,3.533-0.158C431.386,422.018,436.745,403.731,432.472,387.531z"/>
			<path style="fill:#BA2A2A;" d="M409.346,431.393c-3.145-0.677-4.202,4.211-1.051,4.888
				C411.44,436.957,412.497,432.07,409.346,431.393z"/>
			<path style="fill:#BA2A2A;" d="M311.767,310.463c-2.731-2.606-4.279-6.46-3.914-10.248c0.39-4.052,2.821-7.621,6.284-9.683
				c2.771-1.65,0.05-5.845-2.713-4.2c-4.644,2.764-7.98,7.776-8.495,13.187c-0.519,5.457,1.494,10.847,5.463,14.634
				C310.727,316.38,314.094,312.683,311.767,310.463z"/>
			<path style="fill:#BA2A2A;" d="M323.249,314.774c-3.145-0.677-4.202,4.211-1.051,4.888
				C325.343,320.338,326.399,315.451,323.249,314.774z"/>
			<path style="fill:#BA2A2A;" d="M364.848,374.019c-5.482-1.787-9.611-7.099-10.089-12.818c-0.6-7.17,2.768-14.064,1.805-21.277
				c-0.496-3.716-1.913-7.265-4.786-9.781c-2.423-2.122-5.799,1.568-3.375,3.69c4.995,4.373,3.252,12.105,2.217,17.758
				c-0.727,3.972-1.311,8.036-0.547,12.046c0.622,3.26,2.097,6.311,4.22,8.858c2.533,3.039,5.746,5.187,9.503,6.412
				c1.286,0.419,2.707-0.695,2.97-1.918C367.075,375.554,366.137,374.439,364.848,374.019z"/>
			<path style="fill:#BA2A2A;" d="M375.235,377.138c-3.145-0.677-4.202,4.211-1.051,4.888
				C377.329,382.703,378.386,377.816,375.235,377.138z"/>
			<path style="fill:#778C1E;" d="M338.231,301.346c-1.802-3.4-3.431-6.871-4.903-10.426c-1.468-3.544-7.184-1.708-5.702,1.871
				c1.666,4.024,3.526,7.962,5.565,11.81C335.001,308.018,340.029,304.738,338.231,301.346z"/>
			<path style="fill:#778C1E;" d="M367.245,311.276c-4.865,0.405-9.734,0.604-14.616,0.596c-3.859-0.007-3.514,5.985,0.343,5.992
				c4.882,0.008,9.751-0.19,14.616-0.596C371.425,316.948,371.108,310.954,367.245,311.276z"/>
			<path style="fill:#778C1E;" d="M376.838,293.466c-1.218-4.051-2.437-8.102-3.655-12.153c-1.112-3.698-6.816-1.833-5.702,1.871
				c1.219,4.051,2.437,8.102,3.655,12.153C372.248,299.036,377.952,297.17,376.838,293.466z"/>
			<path style="fill:#778C1E;" d="M408.451,308.805l-13.864,0.999c-3.844,0.277-3.523,6.27,0.343,5.992
				c4.621-0.333,9.242-0.666,13.864-0.999C412.637,314.52,412.316,308.527,408.451,308.805z"/>
			<path style="fill:#778C1E;" d="M386.221,325.927c-1.283-0.685-3.496-0.25-4.049,1.272c-1.15,3.166-2.3,6.331-3.449,9.497
				c-0.557,1.534-0.29,3.214,1.272,4.048c1.282,0.685,3.496,0.25,4.048-1.272c1.15-3.166,2.299-6.331,3.449-9.497
				C388.05,328.442,387.783,326.761,386.221,325.927z"/>
			<path style="fill:#778C1E;" d="M391.903,378.038c-0.79-3.625-1.296-7.287-1.583-10.985c-0.299-3.841-6.292-3.522-5.992,0.343
				c0.328,4.219,0.973,8.38,1.873,12.514C387.022,383.676,392.72,381.786,391.903,378.038z"/>
			<path style="fill:#778C1E;" d="M419.233,388.649c-0.089-1.461-1.559-3.121-3.167-2.824c-3.554,0.655-7.108,1.31-10.662,1.966
				c-1.586,0.292-2.932,1.405-2.824,3.167c0.089,1.461,1.559,3.121,3.167,2.824c3.554-0.655,7.108-1.31,10.662-1.966
				C417.995,391.524,419.341,390.411,419.233,388.649z"/>
			<path style="fill:#778C1E;" d="M423.637,353.852c-3.025,3.046-6.049,6.092-9.074,9.138c-2.729,2.748,1.713,6.785,4.428,4.05
				c3.025-3.046,6.049-6.092,9.074-9.138C430.794,355.154,426.352,351.117,423.637,353.852z"/>
			<path style="fill:#778C1E;" d="M445.095,331.814c-3.84-3.325-7.882-6.373-12.099-9.205c-3.205-2.153-5.948,3.191-2.776,5.321
				c3.785,2.542,7.379,5.328,10.825,8.312C443.966,338.771,448.018,334.345,445.095,331.814z"/>
			<path style="fill:#778C1E;" d="M416.409,403.505c-2.804,2.904-5.608,5.809-8.411,8.713c-2.689,2.786,1.749,6.825,4.428,4.05
				c2.804-2.905,5.608-5.809,8.412-8.713C423.527,404.77,419.088,400.73,416.409,403.505z"/>
		</g>
		<g>
			<path style="fill:#FFF2E6;" d="M365.157,287.789c14.126,3.223,26.837,10.543,39.886,16.559
				c6.359,2.932,12.895,5.708,19.653,7.593c4.648,1.297,9.99,1.94,14.44-0.341c13.839-7.094,3.071-25.447-4.164-33.151
				c-10.389-11.064-25.098-16.423-39.498-19.968c-5.511-1.357-7.36,7.261-1.853,8.616c12.32,3.033,24.729,7.357,33.986,16.406
				c3.8,3.715,7.564,8.599,8.895,13.845c1.949,7.68-4.517,7.481-9.953,5.976c-12.943-3.582-24.763-10.543-36.922-16.066
				c-10.422-4.735-23.614-10.747-35.368-9.476c-4.491,0.485-8.701,2.676-10.288,7.114c-1.892,5.291,1.029,10.528,4.887,14.099
				c8.766,8.112,21.84,11.681,32.691,16.039c11.77,4.727,23.801,9.712,33.98,17.428c2.458,1.863,13.387,10.562,4.766,10.411
				c-6.516-0.114-12.967-2.556-19.384-3.508c-5.832-0.865-13.291-1.594-18.414,1.982c-4.737,3.306-4.6,9.108-0.291,12.622
				c5.408,4.409,12.383,6.549,18.732,9.165c3.252,1.34,6.584,2.746,9.511,4.723c0.964,0.651,6.94,5.324,3.613,6.491
				c-5.344,1.874-2.623,10.259,2.749,8.375c5.011-1.757,7.684-6.789,6.603-11.988c-1.203-5.789-6.631-9.582-11.497-12.231
				c-6.035-3.285-12.714-5.146-18.854-8.207c-1.352-0.674-2.696-1.386-3.96-2.215c-0.091-0.06-0.186-0.122-0.279-0.182
				c0.155-0.065,0.438-0.133,1.041-0.101c3.64,0.189,6.989-0.21,10.679,0.426c8.56,1.474,28.362,9.123,31.731-4.07
				c3.038-11.9-14.123-21.138-22.452-25.829c-11.977-6.745-25.008-11.283-37.672-16.52c-6.023-2.491-13.894-5.16-18.282-10.237
				C347.631,284.352,362.08,287.087,365.157,287.789z"/>
			<path style="fill:#FFDCC0;" d="M411.521,360.65c-5.512-4.36-12.275-6.194-18.693-8.769c-1.715-0.688-3.411-1.433-5.043-2.302
				c-0.757-0.403-1.501-0.832-2.225-1.292c-0.45-0.285-1.384-0.75-1.49-1.349c-0.227-1.276,1.849-1.641,2.671-1.68
				c1.847-0.088,3.731,0.153,5.574,0.267c4.006,0.247,8.013,0.495,12.02,0.742c3.89,0.24,7.793,0.601,11.688,0.705
				c2.695,0.072,5.611-0.215,7.973-1.622c2.618-1.56,3.759-4.551,3.041-7.482c-0.783-3.196-3.452-5.671-5.775-7.822
				c-2.62-2.427-5.426-4.637-8.353-6.682c-11.861-8.291-25.47-13.316-39.119-17.807c-7.088-2.332-14.411-4.757-20.586-9.068
				c-2.091-1.46-4.489-3.608-4.944-6.257c-0.478-2.778,1.803-4.656,4.083-5.68c1.35-0.607,2.781-1.028,4.207-1.413
				c2.191-0.591,1.09-3.94-1.099-3.35c-2.933,0.791-5.926,1.823-8.198,3.92c-2.287,2.11-3.121,5.361-2.163,8.315
				c0.949,2.927,3.275,5.306,5.724,7.062c3.09,2.215,6.49,3.975,9.979,5.469c6.936,2.971,14.238,4.975,21.329,7.525
				c6.863,2.468,13.617,5.302,20.03,8.786c6.351,3.45,12.335,7.565,17.564,12.57c1.768,1.693,4.9,4.519,3.853,7.311
				c-0.844,2.25-3.968,2.597-6.012,2.693c-3.651,0.17-7.379-0.317-11.021-0.542c-4.079-0.252-8.159-0.504-12.238-0.756
				c-2.066-0.128-4.132-0.275-6.199-0.381c-1.667-0.085-3.374,0.016-4.869,0.832c-1.395,0.76-2.465,2.202-2.649,3.792
				c-0.206,1.786,0.798,3.246,2.193,4.255c6.163,4.456,13.872,5.979,20.666,9.169c5.12,2.404,10.361,6.354,12.063,12.001
				c0.396,1.314,0.516,2.656,0.452,4.025c-0.044,0.952,0.981,1.709,1.861,1.66c1.032-0.058,1.615-0.906,1.66-1.861
				C419.76,369.601,416.083,364.258,411.521,360.65z"/>
		</g>
	</g>
	<g>
		<g>
			<g>
				<path style="fill:#FFDCC0;" d="M351.873,248.719c0,0-6.559,25.661-30.59,39.241c0,0,36.186,2.154,44.831-17.771L351.873,248.719
					z"/>
				<path style="fill:#FFC69F;" d="M351.908,257.168c-2.218,7.901-6.791,15.068-12.967,20.466c-1.757,1.536-3.643,2.915-5.634,4.134
					c-0.467,0.286-0.039,1.023,0.43,0.736c7.162-4.386,12.97-10.906,16.535-18.509c0.998-2.129,1.821-4.336,2.457-6.6
					C352.878,256.866,352.057,256.64,351.908,257.168z"/>
				<path style="fill:#FFC69F;" d="M350.749,268.888c-2.916,4.935-7.253,8.765-11.514,12.51c-0.413,0.363,0.192,0.963,0.602,0.602
					c4.317-3.793,8.693-7.682,11.647-12.682C351.764,268.845,351.028,268.415,350.749,268.888z"/>
			</g>
			<g>
				<path style="fill:#FFDCC0;" d="M321.538,219.952c0,0,16.361,21.538,38.98,27.266l6.632-6.903c0,0-26.763-17.744-24.513-30.119
					l-8.645,3.434c0,0,1.303,5.684,2.961,8.289c0,0-6.217-2.013-6.987-5.566L321.538,219.952z"/>
				<path style="fill:#FFC69F;" d="M356.432,241.911c-7.357-2.337-14.098-6.489-19.518-11.984c-1.531-1.552-2.953-3.208-4.253-4.958
					c-0.323-0.435-1.063-0.011-0.736,0.43c4.709,6.335,10.953,11.486,18.08,14.885c2.008,0.957,4.08,1.775,6.2,2.449
					C356.729,242.899,356.954,242.076,356.432,241.911z"/>
				<path style="fill:#FFC69F;" d="M355.644,239.558c-3.966-1.8-7.723-4.025-11.207-6.638c-0.439-0.329-0.864,0.41-0.43,0.736
					c3.484,2.613,7.242,4.838,11.207,6.638C355.71,240.519,356.143,239.785,355.644,239.558z"/>
			</g>
			<g>
				<path style="fill:#FFDCC0;" d="M395.862,233.848c0,0-13.051,20.112-25.265,23.985l4.685,10.984c0,0,10.123,6.86,28.109-1.171
					l-3.179-14.949c0,0-6.358,4.073-6.358,3.571s4.35-7.362,4.35-7.362L395.862,233.848z"/>
				<path style="fill:#FFC69F;" d="M397.251,266.44c-5.799,1.043-11.789,2.095-17.648,0.88c-0.535-0.111-0.764,0.71-0.227,0.822
					c6.019,1.248,12.142,0.191,18.101-0.88C398.017,267.165,397.788,266.344,397.251,266.44z"/>
				<path style="fill:#FFC69F;" d="M390.137,263.58c-3.312,0.87-6.739,1.137-10.147,0.804c-0.545-0.053-0.542,0.799,0,0.852
					c3.479,0.341,6.993,0.054,10.373-0.834C390.894,264.263,390.669,263.441,390.137,263.58z"/>
			</g>
			<g>
				<path style="fill:#FFDCC0;" d="M358.42,203.224c0,0-1.848,14.565,21.521,29.129c0,0-10.76-24.999-7.174-32.607L358.42,203.224z"
					/>
				<path style="fill:#FFC69F;" d="M371.42,222.502c-5.122-3.52-8.637-9.245-9.433-15.412c-0.069-0.536-0.922-0.543-0.852,0
					c0.838,6.491,4.458,12.44,9.855,16.148C371.444,223.549,371.87,222.81,371.42,222.502z"/>
				<path style="fill:#FFC69F;" d="M370.544,218.323c-1.845-2.02-3.31-4.376-4.295-6.929c-0.195-0.506-1.019-0.286-0.822,0.226
					c1.041,2.696,2.565,5.17,4.514,7.305C370.312,219.331,370.913,218.727,370.544,218.323z"/>
			</g>
			<g>
				<path style="fill:#FFDCC0;" d="M312.629,270.019c0,0,14.55-13.21,25.041-13.724l-1.415-9.686c0,0-6.588-7.554-22.523-4.952
					l-0.607,12.513c0,0,5.891-1.898,5.786-1.5c-0.105,0.398-4.988,4.925-4.988,4.925L312.629,270.019z"/>
				<path style="fill:#FFC69F;" d="M318.345,243.897c4.814,0.387,9.781,0.805,14.171,2.994c0.401,0.2,0.754-0.403,0.351-0.604
					c-4.509-2.248-9.583-2.691-14.53-3.089C317.89,243.162,317.899,243.861,318.345,243.897z"/>
				<path style="fill:#FFC69F;" d="M323.385,247.651c2.807,0.003,5.579,0.508,8.21,1.486c0.421,0.156,0.596-0.52,0.178-0.675
					c-2.686-0.998-5.531-1.506-8.396-1.509C322.928,246.952,322.934,247.651,323.385,247.651z"/>
			</g>
		</g>
		<g>
			<g>
				<path style="fill:#FFDCC0;" d="M60.558,243.087c0,0-8.816,21.801,1.22,44.158c0,0-27.008-17.505-22.703-36.302L60.558,243.087z"
					/>
				<path style="fill:#FFC69F;" d="M56.086,249.11c-2.573,6.817-3.075,14.348-1.5,21.458c0.448,2.023,1.071,4.002,1.852,5.921
					c0.183,0.45-0.51,0.752-0.695,0.3c-2.813-6.906-3.534-14.625-2.082-21.937c0.407-2.047,0.98-4.059,1.717-6.012
					C55.551,248.383,56.258,248.655,56.086,249.11z"/>
				<path style="fill:#FFC69F;" d="M50.747,258.1c-0.513,5.064,0.573,10.085,1.649,15.005c0.104,0.477-0.644,0.588-0.748,0.114
					c-1.09-4.984-2.173-10.069-1.653-15.198C50.044,257.535,50.796,257.616,50.747,258.1z"/>
			</g>
			<g>
				<path style="fill:#FFDCC0;" d="M129.15,253.454c0,0-16.361,21.538-38.98,27.266l-6.632-6.903c0,0,26.763-17.744,24.513-30.119
					l8.645,3.434c0,0-1.303,5.684-2.961,8.289c0,0,6.217-2.013,6.987-5.566L129.15,253.454z"/>
				<path style="fill:#FFC69F;" d="M94.256,275.413c7.357-2.337,14.098-6.489,19.518-11.984c1.531-1.552,2.953-3.208,4.253-4.958
					c0.323-0.435,1.063-0.011,0.736,0.43c-4.709,6.335-10.953,11.486-18.08,14.885c-2.008,0.957-4.08,1.775-6.2,2.449
					C93.958,276.401,93.734,275.579,94.256,275.413z"/>
				<path style="fill:#FFC69F;" d="M95.043,273.06c3.966-1.8,7.723-4.025,11.207-6.638c0.439-0.329,0.864,0.41,0.43,0.736
					c-3.484,2.613-7.242,4.838-11.207,6.638C94.978,274.021,94.544,273.287,95.043,273.06z"/>
			</g>
			<g>
				<path style="fill:#FFDCC0;" d="M76.105,279.793c0,0,13.051,20.112,25.265,23.985l-4.685,10.984c0,0-10.123,6.86-28.109-1.171
					l3.179-14.949c0,0,6.358,4.073,6.358,3.571s-4.35-7.362-4.35-7.362L76.105,279.793z"/>
				<path style="fill:#FFC69F;" d="M74.715,312.386c5.799,1.043,11.789,2.095,17.648,0.88c0.535-0.111,0.764,0.71,0.227,0.822
					c-6.019,1.248-12.142,0.191-18.101-0.88C73.95,313.11,74.178,312.289,74.715,312.386z"/>
				<path style="fill:#FFC69F;" d="M81.829,309.526c3.312,0.87,6.739,1.137,10.147,0.804c0.545-0.053,0.542,0.799,0,0.852
					c-3.479,0.341-6.993,0.054-10.373-0.834C81.073,310.208,81.298,309.386,81.829,309.526z"/>
			</g>
			<g>
				<path style="fill:#FFDCC0;" d="M87.454,241.905c0,0,1.848,14.565-21.521,29.129c0,0,10.76-24.999,7.174-32.607L87.454,241.905z"
					/>
				<path style="fill:#FFC69F;" d="M74.453,261.184c5.122-3.52,8.637-9.245,9.433-15.412c0.069-0.536,0.922-0.543,0.852,0
					c-0.838,6.491-4.458,12.44-9.855,16.148C74.43,262.23,74.004,261.492,74.453,261.184z"/>
				<path style="fill:#FFC69F;" d="M75.33,257.005c1.845-2.02,3.31-4.376,4.295-6.929c0.195-0.506,1.019-0.286,0.822,0.226
					c-1.041,2.696-2.565,5.17-4.514,7.305C75.562,258.013,74.961,257.409,75.33,257.005z"/>
			</g>
			<g>
				<path style="fill:#FFDCC0;" d="M133.245,308.7c0,0-14.55-13.21-25.041-13.724l1.415-9.685c0,0,6.588-7.554,22.523-4.952
					l0.607,12.513c0,0-5.891-1.898-5.786-1.5c0.105,0.398,4.988,4.925,4.988,4.925L133.245,308.7z"/>
				<path style="fill:#FFC69F;" d="M127.529,282.579c-4.814,0.387-9.781,0.805-14.171,2.994c-0.401,0.2-0.754-0.403-0.351-0.604
					c4.509-2.248,9.583-2.691,14.53-3.089C127.984,281.844,127.975,282.543,127.529,282.579z"/>
				<path style="fill:#FFC69F;" d="M122.489,286.333c-2.807,0.003-5.579,0.508-8.21,1.486c-0.421,0.156-0.596-0.52-0.178-0.675
					c2.686-0.998,5.531-1.506,8.396-1.509C122.946,285.634,122.939,286.333,122.489,286.333z"/>
			</g>
			<g>
				<path style="fill:#FFDCC0;" d="M60.599,337.085c0,0-18.362-13.643-22.022-30.494l6.68-4.224c0,0,14.239,20.855,25.569,20.26
					l-3.681,5.971c0,0-5.048-1.418-7.29-2.836c0,0,1.403,4.669,4.56,5.523L60.599,337.085z"/>
				<path style="fill:#FFC69F;" d="M43.097,309.991c1.619,5.521,4.919,10.747,9.52,15.13c1.299,1.238,2.701,2.406,4.194,3.493
					c0.371,0.27-0.061,0.771-0.438,0.497c-5.408-3.938-9.643-8.888-12.236-14.331c-0.731-1.533-1.331-3.102-1.797-4.693
					C42.225,309.694,42.983,309.6,43.097,309.991z"/>
				<path style="fill:#FFC69F;" d="M45.17,310.758c1.36,3.021,3.119,5.927,5.246,8.667c0.268,0.345-0.428,0.591-0.693,0.25
					c-2.127-2.74-3.886-5.646-5.246-8.667C44.307,310.63,44.999,310.378,45.17,310.758z"/>
			</g>
		</g>
	</g>
</g>
</svg>
