<?xml version="1.0" encoding="utf-8"?>
<!-- Generator: Adobe Illustrator 27.5.0, SVG Export Plug-In . SVG Version: 6.00 Build 0)  -->
<svg version="1.1" id="Layer_1" xmlns="http://www.w3.org/2000/svg" xmlns:xlink="http://www.w3.org/1999/xlink" x="0px" y="0px"
	 viewBox="0 0 260.257 259.064" style="enable-background:new 0 0 260.257 259.064;" xml:space="preserve">
<g>
	<g>
		<g>
			<linearGradient id="SVGID_1_" gradientUnits="userSpaceOnUse" x1="106.5725" y1="142.3652" x2="156.2501" y2="142.3652">
				<stop  offset="0" style="stop-color:#302C30"/>
				<stop  offset="0.1748" style="stop-color:#373336"/>
				<stop  offset="0.5345" style="stop-color:#433E40"/>
				<stop  offset="0.566" style="stop-color:#3D383A"/>
				<stop  offset="0.6734" style="stop-color:#2E2A2B"/>
				<stop  offset="0.8011" style="stop-color:#262223"/>
				<stop  offset="1" style="stop-color:#231F20"/>
			</linearGradient>
			<path style="fill:url(#SVGID_1_);" d="M255.797,100.741c-0.016-1.95-0.045-3.9-0.091-5.849
				c-0.257-10.988,0.344-21.594-11.248-28.367c-10.991-6.318-63.184-23.688-76.96-28.205c-4.768-1.533-9.527-3.098-14.31-4.582
				c-4.675-1.45-9.426-2.781-14.303-3.326c-1.773-0.198-3.523-0.26-5.252-0.206c-3.999-0.369-8.021-0.158-11.995,0.759
				c-5.953,1.373-11.687,3.675-17.339,5.957c-5.583,2.254-11.095,4.684-16.554,7.224C73.917,50.58,60.299,57.451,46.717,64.387
				c-10.631,5.429-25.49,11.694-34.65,19.638c-11.136,9.657-6.887,21.681-6.882,34.992c0.008,17.735,0.818,35.478,0.818,53.188
				c0.011,7.091,0.039,14.18,0.09,21.271c0.025,3.457-0.023,6.923,0.103,10.378c0.109,3.01,0.486,6.141,1.873,8.86
				c2.609,5.115,8.12,7.553,13.158,9.626c6.397,2.633,12.917,4.95,19.466,7.175c13.371,4.541,26.799,8.916,40.202,13.362
				c18.489,6.134,38.801,13.101,58.696,11.619c25.824-1.924,48.252-18.618,70.825-29.511c6.818-3.29,13.735-6.356,20.831-8.999
				c6.009-2.238,12.407-4.266,17.2-8.731c7.687-7.098,7.698-18.979,7.281-28.632c-0.558-12.911-0.305-25.866-0.298-38.807
				C255.438,126.793,255.906,113.762,255.797,100.741z"/>
			<path style="fill:#484243;" d="M134.133,255.178c-17.728,0-35.788-5.997-51.902-11.348l-1.489-0.495
				c-4.032-1.338-8.066-2.668-12.1-3.999c-9.221-3.042-18.755-6.188-28.106-9.364c-5.427-1.843-12.546-4.325-19.495-7.185
				c-5.588-2.3-10.819-4.784-13.406-9.854c-1.524-2.987-1.83-6.412-1.925-9.063c-0.089-2.441-0.091-4.923-0.094-7.324
				c-0.001-1.023-0.002-2.046-0.009-3.068c-0.051-7.091-0.078-14.181-0.09-21.273c0-8.889-0.208-17.938-0.409-26.689
				c-0.199-8.684-0.405-17.664-0.409-26.499c-0.001-2.935-0.211-5.826-0.414-8.621c-0.713-9.803-1.386-19.063,7.464-26.737
				c7.238-6.277,17.955-11.486,27.41-16.081c2.6-1.263,5.055-2.457,7.337-3.622c12.289-6.275,26.609-13.532,41.045-20.249
				c5.916-2.753,11.338-5.119,16.578-7.235c5.577-2.252,11.344-4.579,17.411-5.979c3.886-0.897,7.972-1.156,12.149-0.769
				c1.727-0.056,3.516,0.012,5.261,0.207c4.96,0.554,9.849,1.935,14.393,3.345c3.413,1.059,6.868,2.177,10.21,3.258l4.105,1.326
				c6.653,2.181,65.311,21.497,77.052,28.246c11.078,6.472,11.258,16.271,11.448,26.644c0.013,0.708,0.026,1.419,0.043,2.132
				c0.046,1.952,0.075,3.904,0.091,5.856l0,0c0.06,7.242-0.06,14.605-0.175,21.726c-0.092,5.689-0.188,11.571-0.191,17.352
				c-0.001,3.017-0.017,6.034-0.031,9.053c-0.048,9.755-0.098,19.843,0.329,29.733c0.445,10.302,0.274,21.89-7.437,29.009
				c-4.364,4.065-10.011,6.134-15.472,8.134c-0.632,0.232-1.263,0.462-1.889,0.696c-6.425,2.393-13.225,5.331-20.789,8.981
				c-5.883,2.839-11.887,6.145-17.693,9.342c-16.775,9.236-34.121,18.787-53.307,20.216
				C137.802,255.114,135.968,255.178,134.133,255.178z M129.962,30.521c-2.824,0-5.568,0.306-8.215,0.917
				c-5.992,1.382-11.724,3.696-17.266,5.934c-5.224,2.109-10.631,4.469-16.531,7.214c-14.422,6.71-28.732,13.962-41.013,20.234
				c-2.29,1.169-4.75,2.365-7.354,3.63c-9.402,4.57-20.057,9.748-27.199,15.942c-8.482,7.356-7.857,15.965-7.132,25.934
				c0.205,2.812,0.416,5.721,0.417,8.691c0.004,8.823,0.21,17.798,0.409,26.477c0.201,8.757,0.409,17.812,0.409,26.711
				c0.012,7.089,0.039,14.178,0.09,21.268c0.008,1.024,0.008,2.048,0.009,3.074c0.003,2.392,0.005,4.866,0.093,7.29
				c0.092,2.551,0.383,5.839,1.82,8.658c2.436,4.775,7.498,7.17,12.911,9.398c6.923,2.85,14.024,5.326,19.437,7.164
				c9.347,3.175,18.88,6.32,28.098,9.361c4.034,1.331,8.069,2.662,12.1,4l1.49,0.494c17.695,5.876,37.747,12.538,57.018,11.101
				c18.975-1.414,36.227-10.913,52.911-20.099c5.818-3.203,11.833-6.516,17.74-9.366c7.591-3.664,14.418-6.613,20.872-9.017
				c0.628-0.233,1.259-0.465,1.894-0.697c5.37-1.967,10.923-4.001,15.145-7.934c7.407-6.839,7.563-18.172,7.127-28.257
				c-0.428-9.913-0.378-20.012-0.33-29.78c0.015-3.017,0.03-6.033,0.031-9.049c0.003-5.789,0.099-11.675,0.191-17.367
				c0.116-7.114,0.235-14.472,0.175-21.702l0,0c-0.017-1.948-0.046-3.895-0.091-5.842c-0.017-0.714-0.03-1.427-0.043-2.137
				c-0.186-10.094-0.361-19.627-10.965-25.823c-11.654-6.699-70.225-25.985-76.865-28.163l-4.105-1.325
				c-3.339-1.08-6.791-2.198-10.198-3.255c-4.499-1.396-9.334-2.762-14.213-3.307c-1.699-0.19-3.443-0.258-5.183-0.203
				C132.407,30.577,131.177,30.521,129.962,30.521z"/>
		</g>
		<g style="opacity:0.43;">
			
				<linearGradient id="SVGID_00000158017567971520516170000015646017231150373026_" gradientUnits="userSpaceOnUse" x1="106.5724" y1="129.4845" x2="156.2501" y2="129.4845">
				<stop  offset="0" style="stop-color:#524E58"/>
				<stop  offset="1" style="stop-color:#231F20"/>
			</linearGradient>
			<path style="fill:url(#SVGID_00000158017567971520516170000015646017231150373026_);" d="M255.729,178.622
				c-0.558-12.911-0.305-25.866-0.298-38.807c0.007-13.021,0.475-26.053,0.366-39.073c-0.016-1.95-0.045-3.9-0.091-5.849
				c-0.257-10.988,0.344-21.594-11.248-28.367c-10.991-6.318-63.184-23.688-76.959-28.205c-4.768-1.533-9.527-3.098-14.31-4.582
				c-4.675-1.45-9.426-2.781-14.303-3.326c-1.773-0.198-3.523-0.26-5.252-0.206c-3.999-0.369-8.021-0.158-11.995,0.758
				c-5.953,1.373-11.687,3.674-17.339,5.957c-5.583,2.254-11.095,4.684-16.554,7.224C73.917,50.58,60.299,57.451,46.717,64.387
				c-10.631,5.429-25.49,11.694-34.65,19.638c-2.325,2.016-3.972,4.137-5.134,6.35c0.148,5.387,2.164,10.458,5.871,14.614
				c4.73,5.303,11.159,8.882,17.541,11.818c4.144,1.907,8.418,3.503,12.667,5.156c4.839,1.882,9.681,3.759,14.511,5.665
				c9.432,3.72,18.824,7.549,28.065,11.723c4.76,2.15,9.479,4.392,14.139,6.75c1.679,0.85,3.367,1.691,5.041,2.561
				c5.602,1.94,11.277,3.669,17.173,4.374c4.691,0.561,9.45,0.447,14.096-0.434c4.99-0.946,9.869-2.344,14.658-4.026
				c4.792-1.682,9.493-3.606,14.213-5.478c4.154-1.647,8.363-3.146,12.486-4.873c4.019-1.683,8.046-3.418,12.264-4.551
				c3.308-0.889,7.197-1.654,10.562-0.63c4.423,1.346,6.555,5.677,7.464,9.899c1.186,5.509,0.901,11.313,0.361,16.882
				c-0.519,5.349-1.415,10.648-2.325,15.942c-1.356,7.896-2.09,15.898-2.575,23.891c-0.592,9.747-0.695,19.517-0.501,29.279
				c2.593-1.372,5.182-2.701,7.773-3.952c6.818-3.29,13.735-6.356,20.831-8.998c6.009-2.238,12.407-4.266,17.2-8.731
				C256.134,200.156,256.146,188.275,255.729,178.622z"/>
			<path style="fill:#484243;" d="M202.174,229.732l-0.016-0.788c-0.212-10.676-0.048-20.266,0.502-29.317
				c0.571-9.408,1.391-17.016,2.581-23.944c0.836-4.87,1.785-10.391,2.32-15.907c0.524-5.405,0.845-11.173-0.352-16.734
				c-0.774-3.596-2.64-8.17-7.131-9.536c-3.298-1.003-7.235-0.188-10.295,0.635c-3.909,1.05-7.723,2.651-11.411,4.198l-0.791,0.332
				c-2.505,1.049-5.082,2.029-7.573,2.977c-1.644,0.625-3.286,1.25-4.922,1.899l-2.49,0.991c-3.826,1.526-7.783,3.104-11.741,4.493
				c-5.221,1.832-10.039,3.155-14.728,4.044c-4.601,0.873-9.393,1.02-14.244,0.439c-6.144-0.735-11.934-2.548-17.274-4.397
				c-1.29-0.664-2.524-1.286-3.756-1.908l-1.345-0.679c-4.433-2.244-9.184-4.511-14.119-6.741
				c-10.11-4.566-20.298-8.658-28.044-11.713c-4.198-1.656-8.404-3.291-12.61-4.926l-3.875-1.504
				c-3.541-1.369-7.202-2.784-10.718-4.402c-5.57-2.563-12.616-6.236-17.701-11.936c-3.77-4.226-5.842-9.386-5.994-14.924
				l-0.003-0.127l0.059-0.112c1.26-2.399,2.976-4.522,5.247-6.491c7.238-6.277,17.955-11.486,27.41-16.081
				c2.6-1.263,5.055-2.457,7.337-3.622c12.289-6.275,26.609-13.532,41.045-20.249c5.915-2.752,11.337-5.119,16.577-7.234
				c5.578-2.252,11.346-4.58,17.412-5.98c3.886-0.897,7.972-1.156,12.149-0.769c1.727-0.058,3.516,0.012,5.261,0.207
				c4.96,0.554,9.849,1.935,14.393,3.345c3.413,1.059,6.868,2.177,10.21,3.258l4.105,1.326c6.653,2.181,65.311,21.497,77.052,28.246
				c11.078,6.472,11.258,16.271,11.448,26.644c0.013,0.708,0.026,1.419,0.043,2.132c0.046,1.952,0.075,3.904,0.091,5.856
				c0.06,7.242-0.059,14.605-0.175,21.726c-0.092,5.689-0.188,11.571-0.191,17.352c-0.001,3.017-0.017,6.034-0.031,9.053
				c-0.048,9.755-0.098,19.843,0.329,29.733c0.445,10.302,0.274,21.89-7.437,29.009c-4.364,4.065-10.011,6.134-15.472,8.134
				c-0.632,0.232-1.263,0.462-1.889,0.696c-6.427,2.393-13.227,5.331-20.789,8.981c-2.335,1.127-4.872,2.417-7.757,3.943
				L202.174,229.732z M196.659,132.073c1.261,0,2.514,0.144,3.701,0.506c4.942,1.504,6.967,6.41,7.797,10.26
				c1.228,5.706,0.876,11.812,0.369,17.032c-0.539,5.551-1.49,11.09-2.33,15.976c-1.184,6.892-2,14.467-2.569,23.839
				c-0.535,8.802-0.703,18.117-0.515,28.453c2.61-1.374,4.936-2.552,7.092-3.592c7.589-3.663,14.417-6.612,20.872-9.017
				c0.628-0.233,1.259-0.465,1.894-0.697c5.37-1.967,10.923-4.001,15.145-7.934c7.407-6.839,7.563-18.172,7.127-28.257
				c-0.428-9.913-0.378-20.012-0.33-29.78c0.015-3.017,0.03-6.033,0.031-9.048c0.003-5.789,0.099-11.675,0.191-17.367
				c0.116-7.115,0.235-14.472,0.175-21.702c-0.017-1.948-0.046-3.895-0.091-5.842c-0.017-0.714-0.03-1.427-0.043-2.137
				c-0.186-10.094-0.361-19.627-10.965-25.823c-11.654-6.699-70.225-25.985-76.865-28.163l-4.105-1.325
				c-3.339-1.08-6.791-2.198-10.198-3.255c-4.499-1.396-9.334-2.762-14.213-3.307c-1.7-0.189-3.442-0.257-5.183-0.203
				c-4.132-0.378-8.116-0.126-11.901,0.747c-5.992,1.382-11.723,3.696-17.267,5.934c-5.224,2.11-10.632,4.469-16.531,7.214
				c-14.422,6.71-28.732,13.962-41.013,20.234c-2.29,1.169-4.75,2.365-7.354,3.63c-9.402,4.57-20.057,9.748-27.199,15.942
				c-2.141,1.857-3.766,3.852-4.964,6.097c0.173,5.257,2.158,10.157,5.744,14.177c4.965,5.567,11.898,9.178,17.382,11.701
				c3.488,1.605,7.135,3.015,10.662,4.378l3.877,1.504c4.207,1.635,8.415,3.271,12.614,4.927
				c7.756,3.059,17.958,7.158,28.086,11.732c4.949,2.235,9.712,4.509,14.158,6.759l1.344,0.679c1.235,0.623,2.472,1.246,3.701,1.884
				c5.225,1.804,10.954,3.599,17.008,4.323c4.753,0.57,9.445,0.425,13.948-0.429c4.641-0.88,9.413-2.191,14.588-4.007
				c3.939-1.383,7.885-2.957,11.702-4.479l2.493-0.992c1.639-0.65,3.286-1.277,4.934-1.903c2.484-0.945,5.053-1.923,7.543-2.966
				l0.791-0.331c3.717-1.56,7.562-3.173,11.534-4.241C191.646,132.637,194.169,132.073,196.659,132.073z"/>
		</g>
		<g>
			<g>
				<path style="fill:#E9E9EA;" d="M130.408,31.569c-5.655,0.018-11.283,1.099-16.662,3.385c-9.129,3.88-88.783,39.713-99.51,50.668
					c0,0-8.445,5.706-2.739,11.412c5.706,5.706,77.143,32.181,98.597,36.974c21.454,4.793,36.518,0.913,59.341-7.532
					c22.824-8.445,77.029-37.887,79.996-41.539c2.967-3.652,3.842-9.934-3.994-15.063c-6.277-4.108-24.535-11.184-33.208-13.238
					c-8.672-2.054-66.519-22.592-66.531-22.595C140.691,32.412,135.539,31.553,130.408,31.569z"/>
				<path style="fill:#ADAFB1;" d="M127.775,136.566c-5.668,0-11.459-0.671-17.786-2.084c-25.025-5.59-93.737-32.007-98.835-37.104
					c-1.566-1.566-2.271-3.286-2.095-5.114c0.363-3.784,4.381-6.679,4.864-7.014c10.987-11.126,91.313-47.205,99.633-50.741
					c5.302-2.254,10.972-3.406,16.851-3.424l0.001,0.485l-0.001-0.485c0.047,0,0.096,0,0.143,0c5.06,0,10.206,0.839,15.298,2.496
					c6.009,2.131,58.254,20.633,66.492,22.585c8.543,2.023,26.946,9.104,33.362,13.304c3.607,2.361,5.768,5.245,6.25,8.339
					c0.398,2.558-0.384,5.268-2.145,7.436c-3.296,4.056-57.76,33.383-80.205,41.687
					C153.029,133.064,140.726,136.566,127.775,136.566z M130.41,32.054c-5.749,0.018-11.291,1.144-16.474,3.346
					c-8.312,3.533-88.604,39.582-99.354,50.561l-0.075,0.063c-0.042,0.028-4.152,2.85-4.484,6.335
					c-0.145,1.525,0.466,2.982,1.816,4.332c5.369,5.369,76.152,31.883,98.36,36.844c20.679,4.618,34.935,1.415,59.067-7.513
					c23.024-8.519,76.996-37.953,79.788-41.39c1.589-1.955,2.296-4.388,1.94-6.674c-0.439-2.816-2.452-5.471-5.823-7.677
					c-6.346-4.154-24.581-11.165-33.054-13.172c-8.288-1.963-60.579-20.481-66.514-22.586c-5.049-1.644-10.095-2.468-15.053-2.468
					C130.503,32.054,130.457,32.054,130.41,32.054L130.41,32.054z"/>
			</g>
			<path style="fill:#FFFFFF;" d="M244.733,72.54c-3.124-5.261-9.145-7.996-15.045-8.613c-4.757-0.497-9.307,0.345-13.723,1.767
				c-0.2-0.338-0.407-0.667-0.628-0.978c-2.707-3.81-6.982-6.546-10.995-8.807c-8.28-4.665-18.151-7.15-27.582-5.035
				c-0.991,0.222-1.963,0.508-2.922,0.828c-0.925-1.289-2.036-2.442-3.126-3.376c-2.856-2.448-6.378-4.09-10.096-4.674
				c-2.517-0.395-5.041-0.256-7.455,0.32c-3.36-2.642-7.171-4.67-11.31-5.781c-5.292-1.42-10.992-1.171-16.372-0.403
				c-2.444,0.349-4.862,0.948-7.043,2.133c-2.181,1.184-4.028,2.926-5.601,4.827c-0.178,0.215-0.338,0.438-0.509,0.655
				c-0.827-2.414-2.668-4.054-6.008-3.731c-3.688,0.357-7.271,2.929-10.086,5.167c-3.042,2.418-5.7,5.275-7.841,8.521
				c-0.114,0.173-0.226,0.35-0.337,0.527c-1.301-0.961-2.835-1.63-4.471-1.909c-5.505-0.936-8.264,5.178-8.996,9.633
				c-0.095,0.577-0.155,1.162-0.194,1.748c-0.946-0.685-1.968-1.275-3.132-1.694c-2.913-1.049-6.07-1.061-9.041-0.244
				c-5.78,1.59-9.917,6.389-10.709,12.201c-4.426-1.221-9.275-0.935-13.865,0.25c-3.512,0.906-7.182,2.339-9.531,5.239
				c-1.262,1.559-1.947,3.495-2.029,5.457c-1.201,0.009-2.394,0.126-3.562,0.437c-3.052,0.812-7.337,3.854-4.842,7.329
				c1.212,1.688,3.287,2.692,5.107,3.577c2.006,0.975,4.106,1.741,6.254,2.337c4.141,1.149,8.423,1.609,12.71,1.584
				c0.362,0.742,0.824,1.445,1.26,2.08c2.118,3.086,5.006,5.532,8.271,7.339c5.667,3.136,12.12,4.099,18.497,3.658
				c3.036,3.571,8.032,5.369,12.467,6.617c3.748,1.055,7.717,1.606,11.552,0.67c0.515-0.126,1.044-0.296,1.564-0.508
				c1.932,4.883,6.652,8.752,11.682,10.16c8.512,2.384,17.307-0.899,23.971-6.245c0.421-0.338,0.844-0.689,1.266-1.048
				c0.632,0.427,1.302,0.814,2.017,1.151c3.016,1.421,6.454,1.905,9.755,1.503c3.521-0.429,6.892-1.833,9.783-3.87
				c0.304-0.214,0.601-0.439,0.896-0.666c1.966,0.683,4.227,0.812,6.177,0.61c5.62-0.58,11.299-1.889,16.732-3.411
				c9.743-2.728,19.373-7.404,26.152-15.109c1.723-1.958,3.393-4.258,4.551-6.743c0.61-0.054,1.22-0.111,1.825-0.172
				c3.729-0.376,7.434-0.977,11.09-1.801c6.541-1.473,13.743-3.334,19.099-7.573C245.222,84.626,248.175,78.338,244.733,72.54z"/>
			<path style="opacity:0.73;fill:#E9E9EA;" d="M57.456,84.25c-1.576-1.468-3.429-2.601-5.426-3.38
				c0.071-0.118,0.076-0.25-0.067-0.308C46.27,78.271,39.435,78.42,34.37,82.22c-2.17,1.628-3.407,4.1-2.633,6.803
				c0.887,3.102,3.806,5.01,6.558,6.336c5.578,2.686,12.27,3.289,18.213,1.502c2.572-0.773,5.08-2.543,4.939-5.52
				C61.321,88.647,59.357,86.02,57.456,84.25z"/>
			<path style="opacity:0.73;fill:#E9E9EA;" d="M220.054,79.572c-0.435-1.232-1.65-1.941-2.761-2.483
				c-1.463-0.714-3.021-1.232-4.604-1.61c-3.133-0.748-6.387-0.869-9.593-0.719c-0.921,0.043-1.841,0.117-2.76,0.207
				c0.598-1.16,0.937-2.43,0.817-3.833c-0.299-3.495-3.059-6.031-6.087-7.409c-1.798-0.818-3.688-1.403-5.627-1.798
				c-2.205-2.451-5.458-4.213-8.259-5.349c-4.757-1.928-9.917-2.853-15.045-2.764c-2.454,0.042-4.876,0.329-7.253,0.823
				c-0.632-2.16-2.07-4.157-3.725-5.537c-3.11-2.596-7.197-3.978-11.227-4.047c-4.874-0.083-9.45,1.686-12.947,4.771
				c-1.511-3.16-4.245-5.67-7.904-6.329c-2.902-0.523-5.557,1.152-6.938,3.649c-1.116,2.018-1.268,4.313-1.003,6.568
				c-0.956-0.548-1.967-1.026-3.05-1.417c-4.279-1.545-8.848-1.273-12.995,0.567c-5.332,2.366-10.415,7.268-11.994,13.038
				c-0.974-0.015-1.95,0.077-2.901,0.28c-0.967,0.206-1.965,0.492-2.694,1.2c-0.701,0.682-1.142,1.73-0.774,2.69
				c0.012,0.032,0.035,0.062,0.049,0.094c-1.359-0.317-2.771-0.473-4.179-0.517c-4.02-0.126-8.494,0.294-12.27,1.746
				c-3.424,1.316-6.673,4.383-6.458,8.33c0.202,3.725,3.843,6.878,6.878,8.549c1.912,1.053,4.28,1.883,6.654,2.149
				c-0.345,0.213-0.693,0.421-1.025,0.659c-1.766,1.26-3.964,3.037-4.067,5.396c-0.1,2.267,1.983,3.673,4.02,3.933
				c1.4,0.179,2.877,0.007,4.257-0.245c0.923-0.169,1.839-0.394,2.711-0.727c0.359,0.641,0.866,1.204,1.494,1.635
				c2.946,2.019,6.94,1.568,10.321,0.701c0.223,0.491,0.497,0.979,0.84,1.458c3.141,4.386,8.788,5.128,13.777,4.386
				c0.499-0.074,0.994-0.178,1.49-0.273c-2.165,3.766-3.296,8.461-1.307,12.516c2.243,4.57,7.547,5.625,12.162,4.756
				c4.905-0.924,9.704-3.105,14.038-5.526c3.938-2.2,7.621-4.877,10.948-7.93c-0.137,1.019-0.029,2.044,0.525,2.965
				c1.192,1.979,3.844,2.281,5.92,1.902c3.483-0.636,6.725-3.197,8.096-6.502c6.41,2.346,13.356,2.834,20.135,1.504
				c4.057-0.796,7.96-2.231,11.554-4.278c3.355-1.91,6.949-4.542,8.191-8.379c1.029-3.181,0.138-6.291-1.552-8.979
				c4.28,1.364,9.021,1.127,13.371-0.06c3.079-0.841,6.114-2.104,8.885-3.692C218.123,84.532,220.967,82.158,220.054,79.572z"/>
			<path style="fill:#FFFFFF;" d="M87.018,76.188c-1.661-0.96-3.665-1.2-5.612-1.117c-0.859-0.502-1.8-0.872-2.767-1.102
				c-2.368-0.566-5.107-0.433-7.47,0.11c-1.967,0.452-3.742,1.561-4.278,3.619c-0.511,1.96,0.27,3.942,1.665,5.339
				c3.122,3.127,8.175,4.421,12.471,4.243c3.529-0.146,8.825-1.577,9.104-5.894C90.272,79.225,88.827,77.234,87.018,76.188z"/>
			<path style="fill:#FFFFFF;" d="M106.249,61.638c-0.443-1.68-1.58-3.12-3.296-3.6c-2.064-0.576-4.272,0.286-5.832,1.646
				c-0.593,0.517-1.11,1.112-1.571,1.754c-0.628,0.455-1.171,1.066-1.633,1.647c-1.251,1.575-2.386,3.42-2.616,5.458
				c-0.192,1.706,0.195,3.565,1.452,4.806c1.215,1.2,3.005,1.588,4.66,1.376c3.891-0.498,6.51-4.105,8.046-7.411
				C106.274,65.558,106.753,63.551,106.249,61.638z"/>
			<path style="fill:#FFFFFF;" d="M113.559,82.672c-1.199-2.425-3.7-3.875-6.319-4.226c-6.159-0.826-12.987,2.973-16.62,7.765
				c-0.154,0.203-0.19,0.39-0.157,0.548c-1.142,1.554-2.121,3.286-2.619,5.02c-1.829,6.368,5.658,8.457,10.518,7.704
				c5.632-0.873,11.176-4.934,14.301-9.644C114.082,87.7,114.746,85.073,113.559,82.672z"/>
			<path style="fill:#FFFFFF;" d="M49.091,86.465c-0.094-0.178-0.204-0.352-0.319-0.523c0.132-0.099,0.218-0.28,0.112-0.407
				c-0.719-0.867-1.538-1.453-2.523-1.821c-0.503-0.297-1.029-0.538-1.557-0.687c-0.85-0.241-2.041-0.1-2.909,0.409
				c-0.251,0.049-0.503,0.096-0.75,0.164c-1.427,0.392-2.823,1.163-3.815,2.275c-0.589,0.66-0.999,1.468-0.875,2.374
				c0.101,0.739,0.468,1.432,0.894,2.032c1.675,2.357,5.079,3.367,7.852,2.873c1.405-0.251,2.758-0.882,3.63-2.047
				C49.836,89.767,49.866,87.921,49.091,86.465z"/>
			<path style="fill:#FFFFFF;" d="M128.037,54.616c-0.554-0.78-1.287-1.464-2.202-1.79c-1.135-0.404-2.253-0.147-3.374,0.173
				c-0.347,0.099-0.687,0.214-1.021,0.339c-3.84-0.831-5.132,5.356-5.305,8.038c-0.237,3.675,0.702,8.82,4.576,10.355
				c4.121,1.632,7.132-2.184,8.34-5.678C130.285,62.48,130.306,57.807,128.037,54.616z"/>
			<path style="fill:#FFFFFF;" d="M177.024,64.291c-0.845-3.22-4.545-4.837-7.463-5.573c-0.109-0.027-0.22-0.044-0.33-0.069
				c-1.961-2.136-5.519-1.714-8.131-1.427c-3.47,0.381-6.967,1.316-10.087,2.898c-2.306,1.169-4.64,2.914-5.601,5.41
				c-1.006,2.615-0.091,5.412,1.9,7.289c2.315,2.183,5.609,2.772,8.681,2.851c3.044,0.078,6.112-0.196,9.068-0.938
				c2.979-0.748,5.87-1.971,8.332-3.83C175.452,69.347,177.77,67.135,177.024,64.291z"/>
			<path style="fill:#FFFFFF;" d="M181.461,72.351c-0.459-0.119-0.932-0.185-1.409-0.228c-0.011-0.059-0.045-0.106-0.134-0.107
				c-0.541-0.007-1.076,0.033-1.604,0.109c-1.864,0.186-3.686,0.919-5.056,2.154c-0.095,0.085-0.159,0.179-0.208,0.274
				c-0.826,0.695-1.745,1.605-1.996,2.618c-0.306,1.232,0.705,1.932,1.799,2.085c2.483,0.347,5.251-0.557,7.355-1.821
				c0.549-0.329,1.064-0.707,1.559-1.113c0.525-0.431,1.109-0.913,1.369-1.563C183.651,73.477,182.583,72.643,181.461,72.351z"/>
			<path style="fill:#FFFFFF;" d="M196.162,78.464c-1.597-0.169-3.237-0.056-4.797,0.322c-1.551,0.376-3.354,0.926-4.396,2.203
				c-0.128,0.156-0.149,0.372-0.083,0.538c-0.457,0.545-0.701,1.225-0.4,1.955c0.475,1.15,1.8,1.613,2.896,1.916
				c1.449,0.401,2.944,0.579,4.447,0.534c1.509-0.046,3.007-0.326,4.439-0.799c1.243-0.411,2.954-0.976,3.532-2.272
				C203.175,79.781,198.181,78.677,196.162,78.464z"/>
			<path style="fill:#FFFFFF;" d="M138.563,56.355c-1.224-0.261-2.613,0.367-3.561,1.101c-0.613,0.476-1.238,1.027-1.759,1.65
				c-0.766,0.534-1.407,1.266-1.863,2.074c-0.512,0.907-1.149,2.339-0.64,3.364c0.503,1.011,1.803,1.16,2.802,1.118
				c2.35-0.1,4.478-1.712,5.753-3.601c0.665-0.985,1.193-2.144,1.169-3.354C140.443,57.549,139.701,56.597,138.563,56.355z"/>
			<path style="fill:#FFFFFF;" d="M127.917,96.65c-1.693-1.8-4.596-2.119-6.916-2.105c-2.58,0.015-5.019,0.559-7.313,1.677
				c-0.995,0.21-1.989,0.473-2.987,0.819c-1.938,0.673-4.572,1.594-5.991,3.147c-1.552,1.699,0.298,3.044,1.843,3.711
				c4.07,1.759,9.275,1.277,13.414,0.044C122.14,103.295,131.128,100.065,127.917,96.65z"/>
			<path style="fill:#FFFFFF;" d="M132.321,107.891c-0.336-2.394-3.171-3.094-5.192-3.039c-2.848,0.078-5.488,1.285-7.858,2.782
				c-1.979,0.715-3.868,1.692-5.622,2.976c-1.843,1.349-3.812,2.991-4.69,5.164c-0.733,1.813-0.535,4.148,1.176,5.339
				c1.913,1.332,4.693,1.132,6.83,0.565c2.518-0.668,4.808-2.008,6.971-3.425c1.975-1.295,3.948-2.691,5.543-4.449
				C130.819,112.329,132.622,110.031,132.321,107.891z"/>
			<path style="fill:#FFFFFF;" d="M191.171,92.697c-2.221-3.259-6.537-4.842-10.324-5.129c-0.815-0.062-1.632-0.059-2.445-0.021
				c-4.62-0.756-9.57,0.145-14.005,1.923c-2.414,0.968-4.969,2.143-7.055,3.819c-2.821-4.058-8.822-3.688-12.833-1.572
				c-1.522,0.652-2.919,1.622-4.094,2.923c-2.577,2.853-4.652,8.257-0.755,10.956c1.969,1.364,4.478,1.33,6.737,0.869
				c2.313-0.472,4.53-1.334,6.563-2.532c0.242-0.142,0.486-0.291,0.731-0.445c0.296,0.74,0.731,1.437,1.333,2.057
				c2.736,2.813,7.304,3.484,11.034,3.544c4.008,0.064,8.055-0.481,11.899-1.619c3.702-1.097,7.21-2.853,10.164-5.355
				C190.844,99.813,193.562,96.206,191.171,92.697z"/>
			<path style="fill:#FFFFFF;" d="M144.592,80.028c-1.263-2.712-4.345-3.912-7.08-4.531c-3.142-0.711-6.461-0.551-9.543,0.364
				c-1.671,0.496-3.417,1.278-4.913,2.35c-2.391,0.449-4.576,1.716-5.916,3.917c-1.701,2.796-0.171,5.755,1.765,7.963
				c2.226,2.54,5.233,3.71,8.573,3.782c5.493,0.118,12.988-1.18,16.199-6.192C145.093,85.47,145.74,82.493,144.592,80.028z"/>
			<path style="fill:#FFFFFF;" d="M157.5,79.897c-1.483,0.073-2.975,0.431-4.334,1.029c-1.385,0.61-2.873,1.454-3.736,2.734
				c-0.221,0.328-0.164,0.64,0.029,0.813c-0.047,0.077-0.11,0.142-0.153,0.222c-0.638,1.201-0.158,2.433,1.061,2.992
				c1.358,0.624,3.023,0.386,4.412,0.01c1.491-0.404,2.919-1.031,4.265-1.784c0.664-0.372,1.305-0.785,1.919-1.234
				c0.576-0.422,1.242-0.869,1.672-1.448C164.804,80.304,159.153,79.816,157.5,79.897z"/>
			<path style="fill:#E9E9EA;" d="M65.928,105.81c-1.585-1.95-4.135-3.091-6.624-3.187c-1.27-0.049-2.908,0.168-4.202,0.819
				c-0.743,0.093-1.468,0.319-2.038,0.762c-2.507,1.952,0.252,5.108,2.13,6.292c2.449,1.544,5.693,1.672,8.42,0.871
				c1.138-0.334,2.29-0.992,2.875-2.061C67.157,108.086,66.758,106.832,65.928,105.81z M61.017,107.743
				c-0.476-0.079-0.926-0.267-1.34-0.512c-0.129-0.076-0.243-0.173-0.363-0.261c0.412,0.1,0.815,0.229,1.202,0.405
				c0.241,0.109,0.461,0.239,0.668,0.381C61.129,107.752,61.077,107.753,61.017,107.743z"/>
			<path style="fill:#E9E9EA;" d="M86.798,110.192c-0.132-0.203-0.231-0.307-0.436-0.437c-0.121-0.077-0.254-0.11-0.394-0.144
				c-0.289-0.071-0.597-0.014-0.876,0.072c-0.061,0.019-0.118,0.058-0.178,0.085c-0.203-0.04-0.424-0.039-0.624,0.006
				c-1.058,0.242-1.816,1.405-1.479,2.465c0.061,0.191,0.186,0.377,0.337,0.508c0.249,0.215,0.515,0.32,0.826,0.403
				c0.492,0.132,1.035,0.096,1.512-0.08c0.615-0.227,1.144-0.725,1.377-1.341C87.043,111.252,87.088,110.637,86.798,110.192z"/>
			<path style="fill:#E9E9EA;" d="M100.291,116.091c-0.101-0.189-0.259-0.3-0.473-0.337c-0.424-0.072-0.894,0.114-1.204,0.432
				c-0.066-0.013-0.132-0.027-0.195-0.032c-0.278-0.021-0.54,0.014-0.802,0.111c-0.255,0.095-0.458,0.292-0.583,0.53
				c-0.099,0.189-0.179,0.461-0.062,0.665c0.052,0.091,0.107,0.187,0.182,0.262c0.068,0.068,0.165,0.128,0.239,0.179
				c0.079,0.054,0.164,0.098,0.256,0.127c0.303,0.097,0.606,0.138,0.924,0.082c0.325-0.057,0.659-0.18,0.923-0.381
				c0.223-0.169,0.374-0.316,0.543-0.542c0.102-0.137,0.191-0.298,0.24-0.462C100.338,116.532,100.396,116.286,100.291,116.091z"/>
			<path style="fill:#E9E9EA;" d="M238.592,75.363c-1.523-0.451-3.053-0.209-4.494,0.325c-2.39,0.134-4.804,1.067-6.892,2.114
				c-1.639,0.821-3.285,1.855-4.081,3.582c-0.668,1.45-0.591,3.274,0.694,4.363c1.164,0.986,2.786,1.162,4.254,1.101
				c1.932-0.08,3.893-0.551,5.723-1.155c1.923-0.634,3.789-1.516,5.489-2.618c1.397-0.905,2.576-2.17,2.439-3.947
				C241.589,77.391,240.234,75.849,238.592,75.363z"/>
		</g>
		<path style="opacity:0.42;fill:#434E5A;" d="M189.986,224.544c-4.669-0.282-9.247,0.57-13.84,1.283
			c-4.763,0.739-9.577,1.184-14.399,1.214c-2.377,0.015-4.756-0.06-7.126-0.232c-1.831-0.133-3.714-0.326-5.44-0.99
			c-4.113-1.583-4.899-5.485-5.463-9.42c-2.673-18.655-1.983-37.6-4.463-56.275c-0.887-6.678-1.995-17.163-10.011-19.048
			c-0.81-0.191-1.45,0.76-1.459,1.443c-0.046,3.466-0.14,6.931-0.243,10.395c-0.247,2.799-0.496,5.597-0.684,8.404
			c-0.335,5.012-0.657,10.02-0.917,15.038c-0.521,10.026-0.881,20.07-1.563,30.086c-0.333,4.883-0.827,9.765-1.766,14.572
			c-0.747,3.825-1.826,8.266-5.196,10.655c-3.561,2.525-8.493,2.341-12.654,2.269c-4.844-0.084-9.677-0.51-14.475-1.168
			c-10.89-1.493-21.573-4.168-32.225-6.823c-0.891-0.222-1.847,1.273-0.964,1.828c15.235,9.569,32.314,16.328,49.952,19.848
			c4.446,0.887,8.935,1.572,13.445,2.034c4.849,0.497,9.761,0.676,14.581-0.178c4.696-0.832,9.218-2.435,13.698-4.03
			c4.742-1.688,9.452-3.465,14.127-5.328c4.941-1.969,9.882-3.982,14.704-6.228c4.508-2.1,8.818-4.539,12.573-7.828
			C190.606,225.691,190.805,224.593,189.986,224.544z"/>
		<g>
			<path style="opacity:0.42;fill:#434E5A;" d="M13.159,120.901c-0.054-0.792-0.153-1.715-0.515-2.433
				c-0.417-0.827-1.3-1.258-2.198-0.933c-1.003,0.362-1.301,1.376-1.467,2.316c-0.23,1.3-0.324,2.865,0.459,3.986
				c0.035,0.162,0.069,0.324,0.116,0.483c0.212,0.726,0.733,1.354,1.54,1.372c0.506,0.012,0.962-0.205,1.299-0.578
				c0.377-0.417,0.495-0.95,0.603-1.486C13.175,122.733,13.22,121.81,13.159,120.901z"/>
			<path style="opacity:0.42;fill:#434E5A;" d="M17.272,121.838c-0.023-0.043-0.047-0.086-0.07-0.129
				c-0.512-0.941-2.053,0.603-1.122,1.11c0.043,0.023,0.086,0.047,0.13,0.07C16.732,123.174,17.559,122.365,17.272,121.838z"/>
			<path style="opacity:0.42;fill:#434E5A;" d="M13.553,142.708c-0.095-0.376-0.205-0.809-0.507-1.079
				c-0.508-0.454-1.215-0.262-1.675,0.165c-0.332,0.308-0.528,0.762-0.686,1.179c-0.294,0.776-0.423,1.59-0.403,2.418
				c0.01,0.434,0.076,0.84,0.339,1.196c0.002,0.002,0.005,0.003,0.007,0.005c0.134,0.665,0.435,1.316,1.243,1.255
				c0.932-0.07,1.388-1.047,1.547-1.842c0.148-0.739,0.261-1.476,0.261-2.232C13.677,143.415,13.641,143.057,13.553,142.708z"/>
			<path style="opacity:0.42;fill:#434E5A;" d="M19.863,135.065c-0.048-0.21-0.104-0.329-0.229-0.503
				c-0.074-0.103-0.195-0.179-0.314-0.223c-0.003-0.001-0.005-0.001-0.008-0.001c0.011-0.087,0.004-0.174-0.049-0.251
				c-0.131-0.19-0.396-0.154-0.569-0.042c-0.849,0.551-1.227,1.715-0.841,2.653c0.06,0.146,0.232,0.261,0.386,0.275
				c0.197,0.018,0.37-0.045,0.54-0.142c0.514-0.293,0.995-0.755,1.09-1.367C19.889,135.336,19.892,135.192,19.863,135.065z"/>
			<path style="opacity:0.42;fill:#434E5A;" d="M14.274,172.532c-0.621-0.493-1.376-0.424-1.982,0.065
				c-0.14,0.113-0.264,0.249-0.378,0.396c-0.168,0.068-0.311,0.215-0.377,0.378c-0.103,0.257-0.189,0.518-0.271,0.78
				c-0.02,0.045-0.042,0.092-0.061,0.137c-0.478,1.109-0.681,2.33-0.623,3.534c0.041,0.85,0.204,2.223,0.988,2.777
				c0.012,0.012,0.019,0.029,0.031,0.041c0.497,0.466,1.211,0.441,1.791,0.153c0.61-0.302,1.041-0.842,1.286-1.471
				c0.215-0.553,0.334-1.163,0.455-1.743c0.118-0.565,0.205-1.136,0.224-1.713C15.394,174.755,15.212,173.276,14.274,172.532z"/>
			<path style="opacity:0.42;fill:#434E5A;" d="M19.349,172.288c-0.847,0-1.675,1.611-0.64,1.611
				C19.556,173.899,20.383,172.288,19.349,172.288z"/>
			<path style="opacity:0.42;fill:#434E5A;" d="M14.757,199.925c-0.045-0.084-0.112-0.144-0.203-0.182
				c-0.06-0.017-0.12-0.034-0.18-0.051c-0.104-0.015-0.205-0.005-0.302,0.029c-0.074,0.011-0.142,0.038-0.205,0.079
				c-0.11,0.048-0.208,0.116-0.291,0.205c-0.031,0.037-0.062,0.075-0.093,0.112c-0.034,0.027-0.069,0.052-0.1,0.081
				c-0.013,0.012-0.022,0.027-0.034,0.04c-0.009,0.007-0.018,0.014-0.027,0.022c-0.024,0.029-0.049,0.059-0.073,0.089
				c-0.077,0.081-0.135,0.174-0.174,0.279c-0.009,0.032-0.018,0.065-0.026,0.097c-0.033,0.091-0.044,0.186-0.031,0.284v0.001
				c0,0.03,0.008,0.059,0.023,0.086c0.031,0.112,0.014,0.074,0.079,0.169c0.007,0.01,0.036,0.06,0.058,0.082
				c0.002,0.002,0.004,0.004,0.006,0.005c0.001,0.001,0.002,0.002,0.003,0.003c0.024,0.019,0.121,0.087,0.146,0.103
				c0.006,0.004,0.012,0.007,0.018,0.01c0.003,0.001,0.006,0.002,0.009,0.003c0.029,0.01,0.082,0.023,0.092,0.026
				c0.023,0.007,0.062,0.019,0.093,0.027c0.006,0.002,0.012,0.003,0.019,0.003c0.003,0,0.007,0,0.01,0
				c0.051,0.001,0.149,0,0.199-0.002c0.002,0,0.005,0,0.007,0c0.007-0.001,0.013-0.002,0.02-0.003
				c0.073-0.017,0.153-0.032,0.226-0.06c0.041-0.016,0.091-0.046,0.121-0.061c0.031-0.016,0.076-0.037,0.111-0.058
				c0.039-0.022,0.082-0.064,0.108-0.085c0.139-0.112,0.116-0.086,0.257-0.272c0.001-0.001,0.002-0.003,0.003-0.004
				c0.003-0.003,0.005-0.007,0.008-0.011c0.005-0.008,0.01-0.015,0.014-0.023c0.038-0.07,0.077-0.144,0.113-0.215
				c0.002-0.003,0.003-0.007,0.005-0.011c0.004-0.008,0.007-0.016,0.01-0.025c0.015-0.042,0.026-0.09,0.037-0.132
				c0.011-0.04,0.026-0.086,0.034-0.13c0.002-0.01,0.003-0.02,0.004-0.03c0.007-0.074,0.005-0.152,0.006-0.225
				C14.853,200.083,14.819,199.997,14.757,199.925z"/>
			<path style="opacity:0.42;fill:#434E5A;" d="M156.752,155.649c-0.836-1.401-2.539-1.661-3.947-0.979
				c-1.626,0.789-2.449,2.346-2.863,4.036c-0.173,0.393-0.321,0.796-0.431,1.212c-0.19,0.716-0.333,1.538-0.167,2.272
				c0.355,1.564,2.094,2.044,3.473,1.52c0.794-0.302,1.47-0.874,2.021-1.508c0.551-0.634,1.087-1.311,1.511-2.038
				C157.129,158.826,157.604,157.078,156.752,155.649z"/>
			<path style="opacity:0.42;fill:#434E5A;" d="M156.181,167.032c-0.023-0.056-0.049-0.099-0.098-0.149
				c-0.051-0.052-0.092-0.077-0.148-0.1c-0.062-0.025-0.086-0.041-0.189-0.055c-0.224-0.031-0.436,0.054-0.624,0.168
				c-0.107,0.066-0.198,0.149-0.27,0.25c-0.082,0.086-0.144,0.186-0.186,0.3l-0.055,0.202c-0.023,0.026-0.046,0.052-0.068,0.078
				c-0.064,0.059-0.114,0.129-0.149,0.207c-0.042,0.067-0.068,0.14-0.078,0.22c-0.015,0.071-0.01,0.14,0.015,0.207
				c0.011,0.067,0.042,0.125,0.092,0.173c0.103,0.092,0.24,0.135,0.379,0.111c0.049-0.013,0.099-0.025,0.148-0.038
				c0.107-0.042,0.2-0.104,0.281-0.184c0.037-0.032,0.074-0.065,0.111-0.097c0.055-0.009,0.111-0.006,0.164-0.03
				c0.069-0.035,0.137-0.07,0.206-0.105c0.139-0.092,0.256-0.207,0.349-0.345c0.114-0.188,0.204-0.396,0.175-0.622
				C156.22,167.116,156.207,167.094,156.181,167.032z"/>
			<path style="opacity:0.42;fill:#434E5A;" d="M168.653,156.219c-0.005-0.086-0.035-0.161-0.089-0.224
				c-0.039-0.073-0.098-0.126-0.177-0.159c-0.052-0.015-0.105-0.03-0.157-0.045c-0.091-0.013-0.179-0.005-0.264,0.025
				c-0.065,0.01-0.124,0.033-0.179,0.069c-0.097,0.042-0.181,0.102-0.255,0.18c-0.045,0.055-0.09,0.109-0.136,0.164
				c-0.074,0.108-0.121,0.227-0.142,0.357c-0.015,0.116-0.029,0.232-0.044,0.348c-0.02,0.122-0.006,0.239,0.042,0.352
				c0.032,0.047,0.065,0.094,0.097,0.141c0.086,0.083,0.189,0.132,0.307,0.146c0.097,0.014,0.19,0.005,0.28-0.027
				c0.103-0.02,0.198-0.06,0.285-0.122c0.099-0.06,0.181-0.137,0.248-0.229c0.076-0.079,0.132-0.171,0.171-0.275
				c0.05-0.121,0.068-0.246,0.056-0.376C168.682,156.436,168.667,156.328,168.653,156.219z"/>
			<path style="opacity:0.42;fill:#434E5A;" d="M238.468,150.488c-0.537-0.928-1.318-1.626-2.38-1.868
				c-1.057-0.241-2.146,0.176-2.893,0.934c-0.75,0.761-1.241,1.798-1.627,2.781c-0.416,1.06-0.699,2.189-0.816,3.322
				c-0.16,1.545-0.075,4.012,1.813,4.487c0.212,0.053,0.422,0.06,0.63,0.046c0.886,0.283,1.904,0.23,2.767-0.04
				c1.823-0.572,2.971-2.253,3.359-4.058C239.708,154.301,239.388,152.077,238.468,150.488z M236.233,158.202
				c0.453-0.571,0.826-1.212,1.089-1.885c0.068-0.174,0.124-0.354,0.178-0.533c-0.048,0.477-0.16,0.95-0.363,1.382
				C236.893,157.686,236.587,157.996,236.233,158.202z"/>
			<path style="opacity:0.42;fill:#434E5A;" d="M237.701,109.684c-0.084-0.386-0.241-0.749-0.526-1.032
				c-0.107-0.107-0.233-0.2-0.378-0.241c-0.228-0.065-0.454-0.017-0.672,0.063c-0.253,0.093-0.496,0.246-0.677,0.449
				c-0.038,0.042-0.07,0.092-0.106,0.138c-0.018-0.005-0.035-0.019-0.053-0.021c-0.313-0.028-0.621,0.201-0.733,0.487
				c-0.158,0.403-0.228,0.817-0.233,1.248c0,0.02-0.001,0.04-0.001,0.061c0.001,0.1,0.002-0.008,0.003-0.024
				c-0.005,0.076-0.005,0.153-0.005,0.229c-0.001,0.096,0.002,0.192,0.011,0.288c0.019,0.21,0.055,0.435,0.127,0.634
				c0.096,0.269,0.407,0.35,0.659,0.4c0.179,0.036,0.371,0.033,0.552,0.016c0.372-0.037,0.765-0.191,1.065-0.413
				c0.382-0.283,0.708-0.656,0.866-1.111C237.727,110.483,237.785,110.069,237.701,109.684z"/>
			<path style="opacity:0.42;fill:#434E5A;" d="M239.477,185.504c-0.046-0.067-0.092-0.134-0.137-0.201
				c-0.04-0.059-0.087-0.149-0.128-0.186c-0.019-0.023-0.044-0.041-0.073-0.052c-0.024-0.018-0.048-0.035-0.073-0.052
				c-0.005-0.003-0.009-0.006-0.014-0.009c-0.008-0.005-0.017-0.011-0.025-0.017c-0.034-0.023-0.069-0.046-0.103-0.068
				c-0.054-0.015-0.108-0.031-0.162-0.046c-0.093-0.014-0.184-0.005-0.271,0.026c-0.066,0.01-0.128,0.034-0.184,0.071
				c-0.099,0.043-0.186,0.104-0.261,0.184c-0.046,0.056-0.093,0.112-0.139,0.169c-0.032,0.06-0.064,0.121-0.096,0.181
				c-0.04,0.088-0.057,0.179-0.052,0.274c-0.01,0.087,0.004,0.171,0.042,0.251c0.022,0.033,0.044,0.067,0.067,0.1
				c0.005,0.008,0.011,0.017,0.016,0.025c0.003,0.005,0.006,0.009,0.009,0.014c0.001,0.002,0.002,0.004,0.004,0.005
				c0.033,0.047,0.065,0.095,0.098,0.142c0.024,0.02,0.049,0.038,0.076,0.054c0.024,0.018,0.049,0.035,0.073,0.052
				c0.005,0.003,0.009,0.006,0.014,0.009c0.008,0.005,0.017,0.011,0.025,0.017c0.067,0.046,0.135,0.092,0.202,0.137
				c0.052,0.015,0.105,0.03,0.157,0.045c0.091,0.013,0.179,0.005,0.264-0.025c0.065-0.01,0.124-0.033,0.179-0.069
				c0.096-0.042,0.181-0.102,0.254-0.179c0.045-0.055,0.09-0.11,0.136-0.164c0.031-0.059,0.062-0.118,0.093-0.177
				c0.039-0.086,0.056-0.174,0.051-0.267C239.528,185.664,239.514,185.583,239.477,185.504z"/>
			<path style="opacity:0.42;fill:#434E5A;" d="M221.291,203.205c-0.205-0.487-0.536-0.926-1.008-1.178
				c-0.485-0.259-1.081-0.249-1.588-0.066c-1.025,0.371-1.701,1.416-2.066,2.392c-0.294,0.786-0.565,1.864-0.143,2.622
				c0.087,0.563,0.344,1.089,0.829,1.471c0.845,0.665,1.966,0.736,2.872,0.133c0.865-0.576,1.346-1.561,1.469-2.573
				C221.77,205.075,221.656,204.072,221.291,203.205z"/>
		</g>
	</g>
	<g>
		<g>
			<g>
				<circle style="fill:#F27121;" cx="223.641" cy="66.222" r="22.823"/>
				<path style="fill:#AA3614;" d="M223.641,89.531c-12.852,0-23.308-10.456-23.308-23.309s10.456-23.308,23.308-23.308
					c12.853,0,23.309,10.456,23.309,23.308S236.493,89.531,223.641,89.531z M223.641,43.884c-12.317,0-22.338,10.021-22.338,22.338
					c0,12.318,10.021,22.339,22.338,22.339c12.317,0,22.339-10.021,22.339-22.339C245.979,53.905,235.958,43.884,223.641,43.884z"/>
			</g>
			<ellipse style="opacity:0.56;fill:#F27121;" cx="224.064" cy="79.569" rx="13.905" ry="7.08"/>
			<path style="opacity:0.57;fill:#F9AF65;" d="M207.584,70.382c0.223-0.007,0.446-0.022,0.666-0.039
				c3.623-0.276,7.204-0.863,10.781-1.467c3.217-0.543,6.372-0.219,9.617,0.003c2.931,0.201,11.345,1.378,13.149-1.74
				c0.311-0.536,0.395-1.167,0.443-1.782c0.849-10.75-7.788-20.59-18.985-20.59c-10.529,0-19.064,8.337-19.064,18.621
				c0,1.768-0.345,5.849,1.686,6.736C206.409,70.357,206.996,70.4,207.584,70.382z"/>
			<path style="opacity:0.86;fill:#FFFACE;" d="M217.082,48.357c-3.555,0.87-7.715,3.81-8.092,7.74
				c-0.507,1.1-0.784,2.284-0.522,3.482c0.416,1.904,2.267,2.956,4.045,3.328c1.893,0.396,4.029-0.01,5.78-0.771
				c1.944-0.845,3.697-2.118,5.189-3.617c1.544-1.551,3.025-3.652,2.833-5.955C225.956,48.265,220.383,47.55,217.082,48.357z"/>
			<path style="opacity:0.86;fill:#FFFACE;" d="M210.359,70.738c-0.042-0.217-0.102-0.452-0.199-0.66
				c0.001-0.082,0.003-0.164,0.003-0.245c0-0.179-0.015-0.361-0.05-0.536c-0.107-0.534-0.274-0.991-0.643-1.401
				c-0.046-0.051-0.097-0.092-0.152-0.133c-0.144-0.107-0.293-0.233-0.46-0.304c-0.382-0.161-0.751-0.207-1.162-0.163
				c-0.367,0.039-0.68,0.162-0.999,0.326c-0.36,0.185-0.667,0.387-0.959,0.683c-0.55,0.557-0.886,1.225-1.045,1.987
				c-0.094,0.449-0.069,0.931-0.026,1.386c0.042,0.444,0.111,0.874,0.265,1.298c0.178,0.489,0.545,0.861,0.989,1.113
				c0.438,0.249,0.94,0.281,1.429,0.262c0.275-0.011,0.555-0.092,0.812-0.18c0.208-0.072,0.409-0.187,0.598-0.295
				c0.058-0.033,0.111-0.069,0.164-0.109c0.383-0.293,0.719-0.588,0.972-1.008c0.231-0.383,0.397-0.768,0.464-1.215
				c0.029-0.197,0.026-0.408,0.02-0.605C210.378,70.871,210.372,70.805,210.359,70.738z"/>
			<path style="opacity:0.56;fill:#F27121;" d="M239.498,74.026c-1.575-0.23-2.977,0.859-3.958,1.963
				c-0.939,1.056-1.858,2.107-2.967,2.995c-2.318,1.858-5.122,3.138-8.097,3.763c-0.818,0.172-1.776,0.786-2.025,1.65
				c-0.282,0.979-0.283,1.955,0.679,2.549c0.627,0.387,1.303,0.4,2.022,0.327c0.705-0.071,1.351-0.212,1.952-0.436
				c0.101-0.005,0.203-0.009,0.304-0.015c1.45-0.084,2.888-0.476,4.249-0.973c2.758-1.006,5.323-2.638,7.335-4.781
				c1.029-1.096,2.396-2.547,2.714-4.064C242.028,75.469,241.014,74.247,239.498,74.026z"/>
		</g>
		<g>
			<g>
				<path style="fill:#F27121;" d="M218.151,55.002c-6.849,10.582-20.98,13.607-31.562,6.758
					c-10.582-6.849-13.607-20.98-6.758-31.562c6.849-10.582,20.98-13.607,31.562-6.758C221.975,30.29,225.001,44.421,218.151,55.002
					z"/>
				<path style="fill:#AA3614;" d="M198.955,65.902c-4.338,0-8.724-1.207-12.628-3.735c-5.227-3.383-8.823-8.599-10.127-14.687
					c-1.303-6.088-0.158-12.319,3.225-17.545c3.383-5.227,8.599-8.823,14.687-10.127c6.089-1.303,12.32-0.158,17.546,3.225
					c10.789,6.984,13.885,21.443,6.902,32.233l0,0C214.102,62.15,206.602,65.902,198.955,65.902z M199.036,20.254
					c-1.57,0-3.151,0.166-4.722,0.503c-5.835,1.249-10.833,4.695-14.075,9.705c-3.243,5.009-4.34,10.981-3.091,16.815
					c1.249,5.835,4.696,10.834,9.705,14.076c10.34,6.692,24.198,3.724,30.891-6.614l0,0c6.693-10.341,3.726-24.198-6.614-30.891
					C207.47,21.478,203.296,20.254,199.036,20.254z"/>
			</g>
			
				<ellipse transform="matrix(0.5434 -0.8395 0.8395 0.5434 42.351 185.9315)" style="opacity:0.56;fill:#F27121;" cx="192.094" cy="54.034" rx="7.08" ry="13.905"/>
			<path style="opacity:0.57;fill:#F9AF65;" d="M190.874,24.056c-4.139,3.543-4.589,9.486-0.594,13.84
				c4.926,5.369,12.736,6.884,19.424,3.949c3.708-1.627,10.029-7.026,6.989-11.388c-2.937-4.214-7.397-7.341-12.36-8.667
				c-3.648-0.975-7.673-0.959-11.064,0.702C192.369,22.933,191.569,23.461,190.874,24.056z"/>
			<path style="opacity:0.86;fill:#FFFACE;" d="M205.763,24.478c-3.457-1.202-8.547-0.994-10.999,2.1
				c-1.024,0.647-1.899,1.491-2.33,2.64c-0.686,1.825,0.297,3.713,1.587,4.992c1.374,1.361,3.387,2.181,5.271,2.493
				c2.091,0.347,4.255,0.231,6.321-0.217c2.139-0.464,4.524-1.422,5.614-3.46C213.263,29.224,208.973,25.595,205.763,24.478z"/>
			<path style="opacity:0.86;fill:#FFFACE;" d="M185.388,39.174c0.083-0.205,0.159-0.435,0.191-0.662
				c0.045-0.068,0.091-0.136,0.135-0.204c0.097-0.151,0.183-0.311,0.249-0.478c0.2-0.506,0.308-0.981,0.222-1.526
				c-0.011-0.068-0.031-0.13-0.055-0.194c-0.063-0.168-0.119-0.355-0.221-0.505c-0.233-0.343-0.518-0.582-0.887-0.768
				c-0.329-0.167-0.659-0.233-1.016-0.269c-0.402-0.041-0.77-0.037-1.177,0.052c-0.764,0.168-1.409,0.547-1.957,1.1
				c-0.323,0.326-0.564,0.744-0.775,1.15c-0.206,0.396-0.382,0.794-0.483,1.233c-0.116,0.507-0.01,1.019,0.225,1.472
				c0.232,0.447,0.637,0.747,1.057,0.996c0.237,0.141,0.516,0.225,0.779,0.29c0.213,0.053,0.445,0.065,0.662,0.077
				c0.066,0.004,0.131,0.002,0.197-0.003c0.48-0.038,0.923-0.103,1.364-0.318c0.402-0.196,0.751-0.429,1.05-0.768
				c0.132-0.149,0.243-0.328,0.346-0.497C185.331,39.296,185.363,39.237,185.388,39.174z"/>
			<path style="opacity:0.56;fill:#F27121;" d="M207.2,57.21c-1.197-1.049-2.966-0.897-4.389-0.503
				c-1.362,0.376-2.705,0.759-4.118,0.902c-2.956,0.3-6.005-0.149-8.842-1.241c-0.78-0.3-1.918-0.305-2.596,0.285
				c-0.769,0.669-1.3,1.488-0.816,2.509c0.316,0.666,0.877,1.044,1.519,1.373c0.631,0.323,1.25,0.556,1.876,0.695
				c0.088,0.051,0.175,0.102,0.264,0.153c1.263,0.718,2.683,1.17,4.096,1.492c2.862,0.654,5.902,0.678,8.756-0.028
				c1.46-0.361,3.396-0.836,4.487-1.937C208.541,59.796,208.353,58.219,207.2,57.21z"/>
		</g>
		<g>
			<g>
				
					<ellipse transform="matrix(0.1712 -0.9852 0.9852 0.1712 106.3597 180.8175)" style="fill:#F27121;" cx="160.648" cy="27.194" rx="22.824" ry="22.824"/>
				<path style="fill:#AA3614;" d="M160.648,50.503c-12.852,0-23.308-10.456-23.308-23.308s10.456-23.309,23.308-23.309
					c12.853,0,23.308,10.456,23.308,23.309S173.501,50.503,160.648,50.503z M160.648,4.856c-12.317,0-22.339,10.021-22.339,22.338
					s10.021,22.338,22.339,22.338c12.317,0,22.338-10.021,22.338-22.338S172.965,4.856,160.648,4.856z"/>
			</g>
			<ellipse style="opacity:0.56;fill:#F27121;" cx="161.071" cy="40.541" rx="13.906" ry="7.08"/>
			<path style="opacity:0.57;fill:#F9AF65;" d="M143.757,16.038c-1.549,5.224,1.303,10.457,7.022,11.941
				c7.053,1.83,14.432-1.142,18.452-7.239c2.229-3.381,4.602-11.348-0.321-13.358c-4.756-1.941-10.199-2.143-15.086-0.56
				c-3.592,1.164-6.963,3.364-8.907,6.601C144.402,14.283,144.017,15.16,143.757,16.038z"/>
			<path style="opacity:0.86;fill:#FFFACE;" d="M156.485,8.302c-3.555,0.87-7.715,3.81-8.092,7.74
				c-0.508,1.1-0.784,2.284-0.522,3.482c0.416,1.904,2.267,2.956,4.045,3.328c1.893,0.396,4.029-0.01,5.78-0.771
				c1.944-0.845,3.697-2.118,5.189-3.617c1.544-1.551,3.025-3.652,2.833-5.955C165.36,8.21,159.787,7.495,156.485,8.302z"/>
			<path style="opacity:0.86;fill:#FFFACE;" d="M147.367,31.71c-0.042-0.217-0.102-0.452-0.199-0.659
				c0.001-0.082,0.003-0.164,0.002-0.245c0-0.18-0.015-0.361-0.05-0.536c-0.107-0.534-0.274-0.991-0.643-1.401
				c-0.046-0.051-0.097-0.092-0.152-0.133c-0.144-0.107-0.293-0.234-0.46-0.304c-0.382-0.161-0.751-0.207-1.162-0.163
				c-0.367,0.039-0.68,0.162-0.999,0.326c-0.36,0.184-0.667,0.387-0.959,0.683c-0.55,0.557-0.886,1.225-1.045,1.987
				c-0.094,0.449-0.069,0.931-0.026,1.386c0.042,0.444,0.111,0.874,0.265,1.298c0.178,0.488,0.545,0.861,0.989,1.113
				c0.438,0.249,0.94,0.281,1.429,0.262c0.275-0.011,0.555-0.092,0.811-0.18c0.208-0.072,0.409-0.187,0.598-0.295
				c0.058-0.033,0.111-0.069,0.164-0.11c0.383-0.293,0.719-0.588,0.972-1.008c0.231-0.383,0.397-0.768,0.464-1.215
				c0.029-0.197,0.026-0.408,0.02-0.605C147.385,31.843,147.379,31.776,147.367,31.71z"/>
			<path style="opacity:0.56;fill:#F27121;" d="M175.478,34.998c-1.575-0.229-2.977,0.859-3.958,1.963
				c-0.939,1.056-1.858,2.107-2.967,2.995c-2.318,1.858-5.122,3.138-8.097,3.763c-0.818,0.172-1.776,0.787-2.025,1.65
				c-0.282,0.979-0.283,1.955,0.679,2.549c0.627,0.387,1.303,0.4,2.022,0.327c0.705-0.071,1.351-0.212,1.952-0.436
				c0.101-0.005,0.203-0.009,0.304-0.015c1.45-0.084,2.888-0.476,4.249-0.973c2.758-1.006,5.323-2.638,7.335-4.781
				c1.03-1.096,2.396-2.547,2.714-4.064C178.008,36.441,176.994,35.219,175.478,34.998z"/>
		</g>
		<g>
			<g>
				
					<ellipse transform="matrix(0.109 -0.994 0.994 0.109 76.3601 164.9171)" style="fill:#F27121;" cx="130.179" cy="39.861" rx="22.823" ry="22.824"/>
				<path style="fill:#AA3614;" d="M130.179,63.17c-12.852,0-23.309-10.456-23.309-23.308s10.456-23.308,23.309-23.308
					c12.853,0,23.308,10.456,23.308,23.308S143.031,63.17,130.179,63.17z M130.179,17.523c-12.318,0-22.339,10.021-22.339,22.338
					c0,12.317,10.021,22.338,22.339,22.338c12.317,0,22.338-10.021,22.338-22.338C152.517,27.544,142.496,17.523,130.179,17.523z"/>
			</g>
			<ellipse style="opacity:0.56;fill:#F27121;" cx="130.602" cy="53.208" rx="13.906" ry="7.08"/>
			<path style="opacity:0.57;fill:#F9AF65;" d="M114.122,44.021c0.223-0.007,0.446-0.022,0.666-0.038
				c3.623-0.276,7.204-0.863,10.781-1.468c3.217-0.543,6.372-0.219,9.617,0.004c2.931,0.201,11.345,1.378,13.15-1.74
				c0.31-0.536,0.395-1.167,0.443-1.782c0.849-10.75-7.788-20.59-18.985-20.59c-10.529,0-19.065,8.337-19.065,18.621
				c0,1.768-0.344,5.849,1.686,6.736C112.947,43.996,113.534,44.039,114.122,44.021z"/>
			<path style="opacity:0.86;fill:#FFFACE;" d="M123.619,21.996c-3.555,0.87-7.715,3.81-8.092,7.74
				c-0.507,1.1-0.784,2.284-0.522,3.482c0.416,1.904,2.267,2.956,4.045,3.328c1.892,0.396,4.029-0.01,5.78-0.771
				c1.943-0.845,3.697-2.118,5.189-3.617c1.544-1.551,3.025-3.652,2.833-5.955C132.494,21.904,126.921,21.189,123.619,21.996z"/>
			<path style="opacity:0.86;fill:#FFFACE;" d="M116.897,44.377c-0.042-0.217-0.103-0.452-0.199-0.659
				c0.001-0.082,0.003-0.164,0.002-0.245c0-0.179-0.015-0.36-0.05-0.536c-0.107-0.534-0.274-0.991-0.643-1.401
				c-0.046-0.051-0.097-0.092-0.152-0.133c-0.144-0.107-0.293-0.234-0.461-0.304c-0.382-0.161-0.751-0.207-1.162-0.163
				c-0.367,0.039-0.68,0.163-0.999,0.326c-0.36,0.184-0.667,0.387-0.959,0.683c-0.55,0.557-0.886,1.225-1.044,1.987
				c-0.094,0.449-0.069,0.931-0.026,1.386c0.042,0.444,0.111,0.874,0.265,1.298c0.178,0.488,0.545,0.861,0.989,1.113
				c0.438,0.249,0.94,0.281,1.429,0.262c0.275-0.011,0.555-0.092,0.812-0.18c0.208-0.072,0.409-0.187,0.598-0.295
				c0.058-0.033,0.111-0.069,0.164-0.11c0.383-0.293,0.719-0.588,0.972-1.008c0.231-0.383,0.397-0.768,0.464-1.215
				c0.029-0.197,0.026-0.408,0.02-0.605C116.916,44.51,116.91,44.443,116.897,44.377z"/>
			<path style="opacity:0.56;fill:#F27121;" d="M146.036,47.665c-1.575-0.229-2.977,0.859-3.958,1.963
				c-0.939,1.056-1.858,2.107-2.967,2.995c-2.318,1.858-5.122,3.138-8.097,3.763c-0.818,0.172-1.776,0.787-2.025,1.65
				c-0.282,0.979-0.283,1.955,0.679,2.549c0.627,0.387,1.303,0.4,2.022,0.327c0.705-0.071,1.351-0.212,1.952-0.436
				c0.101-0.005,0.203-0.009,0.304-0.015c1.45-0.084,2.888-0.476,4.249-0.973c2.757-1.006,5.323-2.638,7.335-4.781
				c1.03-1.096,2.396-2.547,2.714-4.064C148.566,49.108,147.552,47.886,146.036,47.665z"/>
		</g>
		<g>
			<g>
				
					<ellipse transform="matrix(0.2924 -0.9563 0.9563 0.2924 19.9615 99.8534)" style="fill:#F27121;" cx="77.456" cy="36.438" rx="22.823" ry="22.823"/>
				<path style="fill:#AA3614;" d="M77.456,59.746c-12.853,0-23.308-10.456-23.308-23.308c0-12.853,10.456-23.308,23.308-23.308
					s23.308,10.456,23.308,23.308C100.765,49.29,90.309,59.746,77.456,59.746z M77.456,14.099
					c-12.317,0-22.338,10.021-22.338,22.338s10.021,22.338,22.338,22.338s22.338-10.021,22.338-22.338S89.774,14.099,77.456,14.099z
					"/>
			</g>
			<ellipse style="opacity:0.56;fill:#F27121;" cx="77.88" cy="49.785" rx="13.905" ry="7.08"/>
			<path style="opacity:0.57;fill:#F9AF65;" d="M61.4,40.598c0.223-0.007,0.446-0.022,0.666-0.039
				c3.623-0.276,7.204-0.863,10.781-1.467c3.217-0.543,6.372-0.219,9.617,0.003c2.931,0.201,11.345,1.378,13.149-1.74
				c0.311-0.536,0.395-1.167,0.443-1.782c0.849-10.75-7.788-20.59-18.985-20.59c-10.529,0-19.065,8.337-19.065,18.621
				c0,1.768-0.345,5.849,1.686,6.736C60.225,40.573,60.812,40.615,61.4,40.598z"/>
			<path style="opacity:0.86;fill:#FFFACE;" d="M70.897,18.573c-3.556,0.87-7.715,3.81-8.093,7.74
				c-0.507,1.099-0.784,2.284-0.522,3.482c0.416,1.904,2.267,2.956,4.045,3.328c1.893,0.396,4.029-0.01,5.78-0.771
				c1.944-0.845,3.697-2.118,5.189-3.617c1.544-1.551,3.024-3.652,2.833-5.955C79.772,18.481,74.199,17.765,70.897,18.573z"/>
			<path style="opacity:0.86;fill:#FFFACE;" d="M64.175,40.954c-0.042-0.218-0.103-0.452-0.199-0.66
				c0.001-0.082,0.003-0.164,0.002-0.245c0-0.18-0.015-0.361-0.05-0.536c-0.107-0.534-0.274-0.991-0.643-1.402
				c-0.046-0.051-0.097-0.092-0.152-0.133c-0.144-0.107-0.293-0.234-0.461-0.304c-0.382-0.161-0.751-0.207-1.162-0.163
				c-0.367,0.039-0.68,0.163-0.999,0.326c-0.36,0.185-0.667,0.387-0.959,0.683c-0.55,0.557-0.886,1.225-1.045,1.987
				c-0.094,0.449-0.069,0.931-0.026,1.386c0.042,0.444,0.111,0.874,0.265,1.298c0.178,0.488,0.545,0.861,0.989,1.113
				c0.438,0.249,0.94,0.281,1.429,0.262c0.275-0.011,0.555-0.092,0.812-0.18c0.208-0.071,0.409-0.187,0.598-0.295
				c0.058-0.033,0.111-0.069,0.164-0.11c0.383-0.293,0.719-0.588,0.972-1.008c0.231-0.383,0.397-0.768,0.464-1.215
				c0.029-0.197,0.026-0.408,0.02-0.606C64.193,41.086,64.188,41.02,64.175,40.954z"/>
			<path style="opacity:0.56;fill:#F27121;" d="M93.313,44.242c-1.575-0.229-2.977,0.859-3.958,1.963
				c-0.939,1.056-1.858,2.107-2.967,2.995c-2.318,1.858-5.122,3.138-8.097,3.763c-0.818,0.172-1.776,0.786-2.025,1.649
				c-0.282,0.979-0.283,1.956,0.679,2.549c0.627,0.387,1.303,0.4,2.022,0.327c0.705-0.071,1.351-0.212,1.952-0.436
				c0.101-0.005,0.203-0.009,0.304-0.015c1.45-0.084,2.888-0.476,4.249-0.973c2.757-1.006,5.323-2.638,7.335-4.781
				c1.03-1.096,2.396-2.547,2.714-4.064C95.844,45.684,94.83,44.463,93.313,44.242z"/>
		</g>
		<g>
			<g>
				
					<ellipse transform="matrix(0.7071 -0.7071 0.7071 0.7071 4.9707 138.9675)" style="fill:#F27121;" cx="170.234" cy="63.484" rx="22.823" ry="22.823"/>
				<path style="fill:#AA3614;" d="M170.234,86.792c-12.852,0-23.308-10.456-23.308-23.308s10.456-23.308,23.308-23.308
					c12.853,0,23.308,10.456,23.308,23.308S183.087,86.792,170.234,86.792z M170.234,41.145c-12.317,0-22.338,10.021-22.338,22.338
					s10.021,22.338,22.338,22.338c12.317,0,22.338-10.021,22.338-22.338S182.551,41.145,170.234,41.145z"/>
			</g>
			<ellipse style="opacity:0.56;fill:#F27121;" cx="170.657" cy="76.83" rx="13.905" ry="7.08"/>
			<path style="opacity:0.57;fill:#F9AF65;" d="M154.177,67.644c0.223-0.007,0.446-0.022,0.666-0.039
				c3.623-0.276,7.204-0.863,10.782-1.467c3.217-0.543,6.372-0.219,9.617,0.003c2.931,0.201,11.345,1.378,13.149-1.74
				c0.311-0.537,0.395-1.167,0.443-1.782c0.849-10.75-7.788-20.59-18.985-20.59c-10.529,0-19.065,8.337-19.065,18.621
				c0,1.768-0.344,5.849,1.686,6.736C153.002,67.618,153.589,67.661,154.177,67.644z"/>
			<path style="opacity:0.86;fill:#FFFACE;" d="M163.675,45.618c-3.555,0.87-7.715,3.81-8.093,7.74
				c-0.508,1.099-0.784,2.284-0.522,3.482c0.416,1.904,2.267,2.956,4.045,3.328c1.893,0.396,4.029-0.01,5.78-0.771
				c1.944-0.845,3.697-2.118,5.189-3.617c1.544-1.551,3.025-3.652,2.833-5.955C172.549,45.527,166.976,44.811,163.675,45.618z"/>
			<path style="opacity:0.86;fill:#FFFACE;" d="M156.953,68c-0.042-0.217-0.103-0.452-0.199-0.66
				c0.001-0.082,0.003-0.164,0.003-0.245c0-0.179-0.015-0.36-0.05-0.536c-0.107-0.534-0.274-0.991-0.643-1.401
				c-0.046-0.051-0.097-0.092-0.152-0.133c-0.144-0.107-0.293-0.234-0.46-0.304c-0.382-0.161-0.751-0.207-1.162-0.163
				c-0.367,0.039-0.68,0.162-0.999,0.326c-0.36,0.185-0.667,0.387-0.959,0.683c-0.55,0.557-0.886,1.225-1.045,1.987
				c-0.094,0.449-0.069,0.931-0.025,1.386c0.042,0.444,0.111,0.874,0.265,1.298c0.178,0.489,0.545,0.861,0.989,1.113
				c0.438,0.249,0.94,0.281,1.429,0.262c0.275-0.011,0.555-0.092,0.812-0.18c0.208-0.072,0.409-0.187,0.598-0.295
				c0.058-0.033,0.111-0.069,0.164-0.11c0.383-0.293,0.719-0.588,0.972-1.008c0.231-0.383,0.397-0.768,0.464-1.215
				c0.029-0.197,0.026-0.408,0.02-0.605C156.971,68.132,156.965,68.066,156.953,68z"/>
			<path style="opacity:0.56;fill:#F27121;" d="M186.091,71.287c-1.575-0.229-2.977,0.859-3.958,1.963
				c-0.939,1.056-1.858,2.107-2.967,2.995c-2.318,1.858-5.122,3.138-8.097,3.763c-0.818,0.172-1.776,0.787-2.025,1.65
				c-0.282,0.979-0.283,1.955,0.679,2.549c0.627,0.387,1.303,0.4,2.022,0.327c0.705-0.071,1.351-0.212,1.953-0.436
				c0.101-0.005,0.203-0.009,0.304-0.015c1.45-0.084,2.888-0.476,4.249-0.973c2.757-1.006,5.323-2.638,7.335-4.781
				c1.03-1.096,2.396-2.548,2.714-4.064C188.621,72.73,187.607,71.508,186.091,71.287z"/>
		</g>
		<g>
			<g>
				
					<ellipse transform="matrix(0.2586 -0.966 0.966 0.2586 60.1174 247.7484)" style="fill:#F27121;" cx="191.46" cy="84.709" rx="22.823" ry="22.824"/>
				<path style="fill:#AA3614;" d="M191.438,108.03c-3.551,0-7.079-0.821-10.352-2.447c-11.509-5.72-16.219-19.737-10.499-31.247
					c5.72-11.509,19.737-16.219,31.247-10.499c5.575,2.771,9.738,7.547,11.721,13.448c1.983,5.901,1.548,12.223-1.222,17.798l0,0
					c-2.771,5.575-7.547,9.738-13.448,11.721C196.446,107.623,193.936,108.03,191.438,108.03z M191.496,62.373
					c-8.219,0-16.141,4.549-20.04,12.395c-5.482,11.03-0.968,24.464,10.063,29.946c5.343,2.655,11.4,3.071,17.057,1.171
					c5.656-1.901,10.233-5.89,12.889-11.234l0,0c2.656-5.343,3.072-11.401,1.171-17.057c-1.9-5.656-5.89-10.233-11.233-12.889
					C198.217,63.123,194.832,62.373,191.496,62.373z"/>
			</g>
			<path style="opacity:0.56;fill:#F27121;" d="M198.351,103.038c-1.74,3.502-8.726,3.57-15.604,0.152
				c-6.877-3.418-11.042-9.027-9.301-12.529c1.74-3.502,8.726-3.57,15.604-0.152C195.927,93.927,200.092,99.537,198.351,103.038z"/>
			<path style="opacity:0.57;fill:#F9AF65;" d="M181.299,67.201c-3.712,3.989-3.487,9.944,0.974,13.819
				c5.501,4.778,13.432,5.401,19.745,1.729c3.5-2.035,9.171-8.115,5.657-12.105c-3.395-3.855-8.179-6.458-13.26-7.215
				c-3.735-0.556-7.732-0.086-10.914,1.948C182.657,65.917,181.922,66.531,181.299,67.201z"/>
			<path style="opacity:0.86;fill:#FFFACE;" d="M196.14,65.939c-3.571-0.804-8.604-0.021-10.692,3.33
				c-0.944,0.759-1.718,1.696-2.017,2.886c-0.475,1.891,0.715,3.656,2.141,4.781c1.518,1.197,3.612,1.784,5.519,1.882
				c2.117,0.108,4.254-0.252,6.256-0.93c2.073-0.702,4.334-1.924,5.187-4.072C204.128,69.806,199.456,66.685,196.14,65.939z"/>
			<path style="opacity:0.86;fill:#FFFACE;" d="M177.556,82.843c0.059-0.213,0.109-0.45,0.116-0.679
				c0.037-0.073,0.075-0.146,0.111-0.218c0.08-0.161,0.147-0.329,0.194-0.503c0.142-0.526,0.195-1.01,0.048-1.541
				c-0.018-0.066-0.046-0.125-0.077-0.187c-0.081-0.16-0.158-0.339-0.277-0.477c-0.271-0.314-0.581-0.519-0.968-0.663
				c-0.346-0.129-0.681-0.157-1.04-0.153c-0.404,0.005-0.77,0.05-1.163,0.185c-0.741,0.254-1.339,0.703-1.82,1.314
				c-0.284,0.361-0.476,0.803-0.64,1.23c-0.16,0.416-0.29,0.832-0.34,1.28c-0.058,0.517,0.105,1.014,0.39,1.437
				c0.282,0.418,0.717,0.67,1.163,0.87c0.251,0.113,0.538,0.165,0.807,0.2c0.218,0.028,0.449,0.014,0.667,0.002
				c0.066-0.004,0.13-0.013,0.195-0.025c0.473-0.092,0.906-0.206,1.319-0.47c0.377-0.24,0.698-0.511,0.956-0.882
				c0.114-0.163,0.205-0.354,0.288-0.533C177.514,82.97,177.538,82.908,177.556,82.843z"/>
			<path style="opacity:0.56;fill:#F27121;" d="M201.267,98.298c-1.308-0.906-3.048-0.556-4.418-0.004
				c-1.311,0.528-2.602,1.06-3.99,1.362c-2.903,0.632-5.984,0.53-8.926-0.234c-0.809-0.21-1.941-0.086-2.548,0.576
				c-0.688,0.752-1.124,1.625-0.527,2.585c0.389,0.626,0.989,0.938,1.665,1.193c0.663,0.25,1.305,0.411,1.943,0.479
				c0.093,0.041,0.186,0.082,0.279,0.122c1.336,0.571,2.798,0.859,4.238,1.02c2.917,0.326,5.941,0.006,8.696-1.017
				c1.41-0.524,3.28-1.215,4.239-2.432C202.891,100.716,202.526,99.171,201.267,98.298z"/>
		</g>
		<g>
			<g>
				<g>
					
						<ellipse transform="matrix(0.1253 -0.9921 0.9921 0.1253 39.9535 246.2324)" style="fill:#F27121;" cx="159.621" cy="100.458" rx="22.824" ry="22.823"/>
					<path style="fill:#AA3614;" d="M159.6,123.778c-3.551,0-7.079-0.821-10.352-2.448c-5.575-2.771-9.738-7.547-11.721-13.448
						c-1.983-5.902-1.549-12.223,1.222-17.798c2.771-5.575,7.547-9.738,13.448-11.721c5.902-1.984,12.222-1.549,17.798,1.222
						c11.509,5.72,16.219,19.737,10.499,31.246l0,0c-2.771,5.575-7.547,9.738-13.448,11.721
						C164.608,123.371,162.098,123.778,159.6,123.778z M159.642,78.107c-2.395,0-4.799,0.39-7.136,1.175
						c-5.656,1.901-10.233,5.89-12.889,11.234c-2.656,5.343-3.072,11.4-1.171,17.056c1.901,5.656,5.89,10.233,11.233,12.889
						c5.343,2.656,11.4,3.072,17.057,1.171c5.656-1.9,10.233-5.89,12.889-11.233l0,0c5.482-11.03,0.968-24.464-10.063-29.946
						C166.427,78.895,163.044,78.107,159.642,78.107z"/>
				</g>
				<path style="opacity:0.56;fill:#F27121;" d="M166.512,118.787c-1.74,3.502-8.726,3.57-15.604,0.152
					c-6.877-3.418-11.042-9.027-9.301-12.529c1.74-3.502,8.726-3.57,15.604-0.152C164.088,109.675,168.253,115.285,166.512,118.787z
					"/>
				<path style="opacity:0.57;fill:#F9AF65;" d="M149.46,82.95c-3.712,3.988-3.487,9.944,0.974,13.819
					c5.501,4.778,13.432,5.401,19.745,1.729c3.5-2.035,9.171-8.114,5.657-12.105c-3.395-3.855-8.18-6.458-13.26-7.215
					c-3.735-0.556-7.732-0.086-10.914,1.948C150.818,81.665,150.083,82.28,149.46,82.95z"/>
				<path style="opacity:0.86;fill:#FFFACE;" d="M164.301,81.687c-3.571-0.804-8.604-0.022-10.692,3.33
					c-0.944,0.759-1.718,1.696-2.017,2.886c-0.475,1.89,0.715,3.656,2.141,4.781c1.519,1.197,3.612,1.784,5.519,1.882
					c2.116,0.109,4.254-0.251,6.256-0.93c2.073-0.702,4.334-1.924,5.187-4.072C172.289,85.554,167.617,82.433,164.301,81.687z"/>
				<path style="opacity:0.86;fill:#FFFACE;" d="M145.717,98.591c0.059-0.213,0.109-0.45,0.116-0.679
					c0.037-0.073,0.075-0.146,0.111-0.218c0.08-0.161,0.147-0.329,0.194-0.503c0.142-0.525,0.195-1.01,0.048-1.541
					c-0.018-0.067-0.046-0.125-0.077-0.187c-0.081-0.16-0.158-0.339-0.277-0.477c-0.27-0.314-0.58-0.519-0.968-0.663
					c-0.346-0.129-0.681-0.157-1.04-0.152c-0.405,0.005-0.77,0.05-1.163,0.185c-0.741,0.254-1.338,0.703-1.82,1.314
					c-0.284,0.361-0.476,0.803-0.64,1.23c-0.16,0.417-0.29,0.832-0.34,1.28c-0.058,0.517,0.105,1.014,0.39,1.437
					c0.281,0.418,0.717,0.67,1.163,0.87c0.251,0.113,0.538,0.165,0.807,0.2c0.218,0.028,0.45,0.014,0.667,0.002
					c0.066-0.004,0.13-0.013,0.195-0.025c0.473-0.092,0.906-0.206,1.319-0.47c0.377-0.24,0.697-0.511,0.956-0.882
					c0.114-0.163,0.205-0.354,0.288-0.533C145.675,98.718,145.699,98.656,145.717,98.591z"/>
				<path style="opacity:0.56;fill:#F27121;" d="M169.428,114.046c-1.308-0.906-3.048-0.556-4.418-0.004
					c-1.311,0.528-2.602,1.06-3.99,1.362c-2.903,0.632-5.984,0.53-8.926-0.233c-0.809-0.21-1.941-0.086-2.547,0.576
					c-0.689,0.752-1.124,1.625-0.527,2.585c0.39,0.626,0.989,0.938,1.665,1.193c0.663,0.25,1.305,0.411,1.943,0.479
					c0.093,0.041,0.186,0.082,0.279,0.122c1.336,0.571,2.798,0.859,4.238,1.02c2.917,0.326,5.941,0.006,8.696-1.017
					c1.41-0.524,3.279-1.215,4.239-2.432C171.052,116.464,170.688,114.919,169.428,114.046z"/>
			</g>
			<g>
				<g>
					
						<ellipse transform="matrix(0.184 -0.9829 0.9829 0.184 43.9601 194.986)" style="fill:#F27121;" cx="139.422" cy="71.015" rx="22.824" ry="22.823"/>
					<path style="fill:#AA3614;" d="M139.384,94.322c-3.481,0-7.012-0.782-10.335-2.433c-11.509-5.72-16.219-19.737-10.5-31.246
						c5.72-11.509,19.737-16.218,31.247-10.5c11.509,5.72,16.219,19.737,10.5,31.246l0,0
						C156.227,89.575,147.96,94.322,139.384,94.322z M139.458,48.679c-8.219,0-16.141,4.549-20.04,12.395
						c-5.482,11.03-0.968,24.464,10.063,29.946c11.031,5.481,24.463,0.966,29.946-10.063l0,0
						c5.481-11.03,0.968-24.464-10.063-29.946C146.18,49.429,142.794,48.679,139.458,48.679z"/>
				</g>
				<path style="opacity:0.56;fill:#F27121;" d="M146.314,89.344c-1.74,3.502-8.726,3.57-15.604,0.152
					c-6.877-3.418-11.042-9.027-9.301-12.529c1.74-3.502,8.726-3.57,15.604-0.152C143.89,80.233,148.054,85.843,146.314,89.344z"/>
				<path style="opacity:0.57;fill:#F9AF65;" d="M129.261,53.507c-3.712,3.988-3.487,9.944,0.974,13.819
					c5.501,4.778,13.432,5.4,19.745,1.729c3.5-2.035,9.171-8.114,5.657-12.105c-3.395-3.855-8.18-6.458-13.26-7.215
					c-3.735-0.556-7.732-0.086-10.914,1.948C130.62,52.223,129.885,52.837,129.261,53.507z"/>
				<path style="opacity:0.86;fill:#FFFACE;" d="M144.102,52.245c-3.571-0.804-8.604-0.021-10.691,3.33
					c-0.944,0.759-1.718,1.696-2.017,2.886c-0.475,1.89,0.715,3.656,2.141,4.78c1.518,1.197,3.612,1.784,5.519,1.882
					c2.116,0.109,4.254-0.251,6.256-0.93c2.073-0.702,4.334-1.924,5.187-4.072C152.09,56.112,147.418,52.991,144.102,52.245z"/>
				<path style="opacity:0.86;fill:#FFFACE;" d="M125.519,69.149c0.06-0.213,0.109-0.45,0.116-0.679
					c0.037-0.073,0.075-0.146,0.111-0.218c0.08-0.161,0.147-0.329,0.194-0.503c0.142-0.525,0.195-1.009,0.048-1.541
					c-0.018-0.067-0.046-0.125-0.077-0.187c-0.081-0.16-0.158-0.339-0.277-0.477c-0.271-0.314-0.58-0.519-0.968-0.663
					c-0.346-0.129-0.681-0.157-1.04-0.153c-0.404,0.005-0.769,0.05-1.163,0.185c-0.741,0.254-1.338,0.703-1.82,1.314
					c-0.284,0.361-0.476,0.803-0.64,1.23c-0.16,0.417-0.29,0.832-0.34,1.28c-0.058,0.517,0.105,1.014,0.39,1.437
					c0.282,0.418,0.717,0.67,1.163,0.871c0.251,0.113,0.538,0.165,0.807,0.2c0.218,0.028,0.45,0.014,0.667,0.002
					c0.066-0.004,0.13-0.013,0.195-0.025c0.473-0.092,0.906-0.206,1.319-0.47c0.377-0.24,0.697-0.511,0.956-0.882
					c0.114-0.163,0.204-0.354,0.288-0.533C125.476,69.276,125.501,69.213,125.519,69.149z"/>
				<path style="opacity:0.56;fill:#F27121;" d="M149.229,84.604c-1.308-0.906-3.048-0.556-4.418-0.004
					c-1.311,0.528-2.602,1.06-3.99,1.362c-2.903,0.632-5.984,0.53-8.926-0.234c-0.809-0.21-1.941-0.086-2.547,0.576
					c-0.689,0.752-1.124,1.625-0.527,2.585c0.389,0.626,0.989,0.938,1.665,1.193c0.663,0.25,1.305,0.411,1.943,0.479
					c0.093,0.041,0.186,0.082,0.279,0.122c1.336,0.571,2.798,0.859,4.238,1.02c2.917,0.326,5.941,0.006,8.696-1.017
					c1.41-0.524,3.279-1.215,4.24-2.432C150.853,87.021,150.489,85.477,149.229,84.604z"/>
			</g>
			<g>
				<g>
					<g>
						
							<ellipse transform="matrix(0.0828 -0.9966 0.9966 0.0828 4.2425 133.6308)" style="fill:#F27121;" cx="74.718" cy="64.511" rx="22.824" ry="22.823"/>
						<path style="fill:#AA3614;" d="M74.717,87.819c-12.853,0-23.308-10.456-23.308-23.308s10.456-23.309,23.308-23.309
							s23.309,10.456,23.309,23.309S87.57,87.819,74.717,87.819z M74.717,42.172c-12.317,0-22.338,10.021-22.338,22.339
							c0,12.317,10.021,22.338,22.338,22.338c12.318,0,22.339-10.021,22.339-22.338C97.056,52.193,87.035,42.172,74.717,42.172z"/>
					</g>
					<path style="opacity:0.56;fill:#F27121;" d="M89.046,77.857c0,3.91-6.226,7.08-13.906,7.08s-13.905-3.17-13.905-7.08
						c0-3.91,6.226-7.08,13.905-7.08S89.046,73.947,89.046,77.857z"/>
					<path style="opacity:0.57;fill:#F9AF65;" d="M57.826,53.354c-1.549,5.224,1.303,10.457,7.022,11.941
						c7.052,1.83,14.432-1.142,18.452-7.239c2.229-3.381,4.602-11.348-0.321-13.358c-4.756-1.941-10.199-2.143-15.086-0.56
						c-3.592,1.164-6.963,3.364-8.907,6.601C58.471,51.6,58.087,52.477,57.826,53.354z"/>
					<path style="opacity:0.86;fill:#FFFACE;" d="M70.555,45.618c-3.556,0.87-7.715,3.81-8.093,7.74
						c-0.507,1.099-0.784,2.284-0.522,3.482c0.416,1.904,2.267,2.956,4.045,3.328c1.892,0.396,4.029-0.01,5.78-0.771
						c1.944-0.845,3.697-2.118,5.189-3.617c1.544-1.551,3.025-3.652,2.833-5.955C79.429,45.527,73.856,44.811,70.555,45.618z"/>
					<path style="opacity:0.86;fill:#FFFACE;" d="M61.436,69.027c-0.042-0.217-0.103-0.452-0.199-0.66
						c0.001-0.082,0.003-0.164,0.002-0.245c0-0.179-0.015-0.36-0.05-0.536c-0.107-0.534-0.274-0.991-0.643-1.401
						c-0.046-0.051-0.097-0.092-0.152-0.133c-0.144-0.107-0.293-0.233-0.461-0.304c-0.382-0.161-0.751-0.207-1.162-0.163
						c-0.367,0.039-0.68,0.162-0.999,0.326c-0.36,0.185-0.667,0.387-0.959,0.683c-0.55,0.557-0.886,1.225-1.045,1.987
						c-0.094,0.449-0.069,0.931-0.026,1.386c0.042,0.444,0.111,0.874,0.265,1.298c0.178,0.489,0.545,0.861,0.989,1.113
						c0.438,0.249,0.94,0.281,1.429,0.262c0.275-0.011,0.555-0.092,0.812-0.18c0.208-0.072,0.409-0.188,0.598-0.295
						c0.058-0.033,0.111-0.069,0.164-0.11c0.383-0.293,0.719-0.588,0.972-1.008c0.231-0.383,0.397-0.768,0.464-1.215
						c0.029-0.197,0.026-0.408,0.02-0.605C61.455,69.159,61.449,69.093,61.436,69.027z"/>
					<path style="opacity:0.56;fill:#F27121;" d="M89.548,72.314c-1.575-0.229-2.977,0.859-3.959,1.963
						c-0.939,1.056-1.858,2.107-2.967,2.995c-2.318,1.858-5.122,3.138-8.097,3.763c-0.818,0.172-1.776,0.786-2.025,1.649
						c-0.282,0.979-0.283,1.956,0.679,2.549c0.627,0.387,1.303,0.4,2.022,0.327c0.705-0.071,1.351-0.212,1.953-0.436
						c0.101-0.005,0.203-0.009,0.304-0.015c1.45-0.084,2.888-0.476,4.249-0.973c2.757-1.006,5.323-2.638,7.335-4.781
						c1.03-1.096,2.396-2.547,2.714-4.064C92.078,73.757,91.064,72.536,89.548,72.314z"/>
				</g>
				<g>
					<g>
						<circle style="fill:#F27121;" cx="46.302" cy="84.709" r="22.823"/>
						<path style="fill:#AA3614;" d="M46.302,108.018c-12.853,0-23.308-10.456-23.308-23.308S33.45,61.401,46.302,61.401
							S69.611,71.857,69.611,84.71S59.155,108.018,46.302,108.018z M46.302,62.371c-12.317,0-22.338,10.021-22.338,22.338
							s10.021,22.339,22.338,22.339c12.317,0,22.339-10.021,22.339-22.339S58.62,62.371,46.302,62.371z"/>
					</g>
					<path style="opacity:0.56;fill:#F27121;" d="M60.631,98.056c0,3.91-6.226,7.08-13.906,7.08c-7.68,0-13.905-3.17-13.905-7.08
						c0-3.91,6.226-7.08,13.905-7.08C54.405,90.976,60.631,94.146,60.631,98.056z"/>
					<path style="opacity:0.57;fill:#F9AF65;" d="M30.246,88.869c0.223-0.007,0.446-0.022,0.666-0.038
						c3.623-0.276,7.204-0.863,10.781-1.467c3.217-0.543,6.372-0.219,9.617,0.003c2.931,0.201,11.345,1.378,13.15-1.739
						c0.311-0.537,0.395-1.167,0.443-1.782c0.849-10.75-7.788-20.59-18.985-20.59c-10.529,0-19.065,8.337-19.065,18.621
						c0,1.768-0.345,5.849,1.686,6.736C29.071,88.844,29.658,88.887,30.246,88.869z"/>
					<path style="opacity:0.86;fill:#FFFACE;" d="M39.743,66.844c-3.555,0.87-7.715,3.81-8.092,7.74
						c-0.507,1.1-0.784,2.284-0.522,3.482c0.416,1.904,2.267,2.956,4.045,3.328c1.893,0.396,4.029-0.01,5.78-0.771
						c1.943-0.845,3.697-2.118,5.189-3.617c1.544-1.551,3.024-3.652,2.833-5.955C48.618,66.752,43.045,66.037,39.743,66.844z"/>
					<path style="opacity:0.86;fill:#FFFACE;" d="M33.021,89.226c-0.042-0.217-0.103-0.452-0.199-0.66
						c0.001-0.082,0.003-0.164,0.002-0.245c0-0.179-0.015-0.36-0.05-0.536c-0.107-0.534-0.274-0.991-0.643-1.401
						c-0.046-0.051-0.097-0.092-0.152-0.133c-0.144-0.107-0.293-0.233-0.461-0.304c-0.382-0.161-0.751-0.207-1.162-0.163
						c-0.367,0.039-0.68,0.162-0.999,0.326c-0.36,0.185-0.667,0.387-0.959,0.683c-0.55,0.557-0.886,1.225-1.045,1.987
						c-0.094,0.449-0.069,0.931-0.026,1.386c0.042,0.444,0.111,0.874,0.265,1.298c0.178,0.488,0.545,0.861,0.989,1.113
						c0.438,0.249,0.94,0.281,1.429,0.262c0.275-0.011,0.555-0.092,0.812-0.18c0.208-0.072,0.409-0.187,0.598-0.295
						c0.058-0.033,0.111-0.069,0.164-0.11c0.383-0.292,0.719-0.588,0.972-1.008c0.231-0.383,0.397-0.768,0.464-1.215
						c0.029-0.197,0.026-0.408,0.02-0.605C33.039,89.358,33.034,89.292,33.021,89.226z"/>
					<path style="opacity:0.56;fill:#F27121;" d="M62.159,92.513c-1.575-0.229-2.977,0.859-3.958,1.963
						c-0.939,1.056-1.858,2.107-2.967,2.995c-2.318,1.858-5.122,3.138-8.097,3.763c-0.818,0.172-1.776,0.786-2.025,1.649
						c-0.282,0.979-0.283,1.956,0.679,2.549c0.627,0.387,1.303,0.4,2.022,0.327c0.705-0.071,1.351-0.212,1.952-0.436
						c0.101-0.005,0.203-0.009,0.304-0.015c1.45-0.084,2.888-0.476,4.249-0.973c2.757-1.006,5.323-2.638,7.335-4.781
						c1.029-1.096,2.396-2.548,2.714-4.064C64.69,93.956,63.676,92.734,62.159,92.513z"/>
				</g>
				<g>
					<g>
						<circle style="fill:#F27121;" cx="84.303" cy="100.8" r="22.823"/>
						<path style="fill:#AA3614;" d="M84.303,124.109c-12.853,0-23.308-10.456-23.308-23.309c0-12.853,10.456-23.308,23.308-23.308
							s23.309,10.456,23.309,23.308C107.612,113.652,97.156,124.109,84.303,124.109z M84.303,78.461
							c-12.317,0-22.338,10.021-22.338,22.338c0,12.318,10.021,22.339,22.338,22.339c12.318,0,22.339-10.021,22.339-22.339
							C106.642,88.482,96.621,78.461,84.303,78.461z"/>
					</g>
					<ellipse style="opacity:0.56;fill:#F27121;" cx="84.727" cy="114.147" rx="13.906" ry="7.08"/>
					<path style="opacity:0.57;fill:#F9AF65;" d="M68.247,104.96c0.223-0.007,0.446-0.022,0.666-0.038
						c3.623-0.276,7.204-0.863,10.782-1.467c3.217-0.543,6.372-0.219,9.617,0.004c2.931,0.201,11.345,1.378,13.149-1.74
						c0.311-0.536,0.395-1.167,0.443-1.782c0.849-10.75-7.788-20.59-18.985-20.59c-10.529,0-19.065,8.337-19.065,18.621
						c0,1.768-0.345,5.849,1.686,6.736C67.072,104.935,67.659,104.977,68.247,104.96z"/>
					<path style="opacity:0.86;fill:#FFFACE;" d="M77.744,82.935c-3.556,0.87-7.715,3.81-8.092,7.74
						c-0.507,1.1-0.784,2.284-0.522,3.482c0.416,1.904,2.267,2.956,4.045,3.328c1.893,0.396,4.029-0.01,5.78-0.771
						c1.944-0.845,3.697-2.118,5.189-3.617c1.544-1.551,3.025-3.652,2.833-5.955C86.619,82.843,81.046,82.127,77.744,82.935z"/>
					<path style="opacity:0.86;fill:#FFFACE;" d="M71.022,105.316c-0.042-0.217-0.103-0.452-0.199-0.66
						c0.001-0.082,0.003-0.164,0.002-0.245c0-0.179-0.015-0.36-0.05-0.536c-0.107-0.534-0.274-0.991-0.643-1.401
						c-0.046-0.051-0.097-0.092-0.152-0.133c-0.144-0.107-0.293-0.233-0.46-0.304c-0.382-0.161-0.751-0.207-1.162-0.163
						c-0.367,0.039-0.68,0.162-0.999,0.326c-0.36,0.185-0.667,0.387-0.959,0.683c-0.55,0.557-0.886,1.225-1.045,1.987
						c-0.094,0.449-0.069,0.931-0.026,1.386c0.042,0.444,0.111,0.874,0.265,1.298c0.178,0.488,0.545,0.861,0.989,1.113
						c0.438,0.249,0.94,0.281,1.429,0.262c0.276-0.011,0.555-0.092,0.812-0.18c0.208-0.072,0.409-0.187,0.598-0.295
						c0.058-0.033,0.111-0.069,0.164-0.11c0.383-0.293,0.719-0.588,0.972-1.008c0.231-0.383,0.397-0.768,0.464-1.215
						c0.029-0.197,0.026-0.408,0.02-0.605C71.04,105.449,71.035,105.382,71.022,105.316z"/>
					<path style="opacity:0.56;fill:#F27121;" d="M100.16,108.604c-1.575-0.229-2.977,0.859-3.958,1.963
						c-0.939,1.056-1.858,2.107-2.967,2.995c-2.318,1.858-5.122,3.138-8.097,3.763c-0.818,0.172-1.776,0.787-2.025,1.65
						c-0.282,0.979-0.283,1.955,0.679,2.549c0.627,0.387,1.303,0.4,2.022,0.327c0.705-0.071,1.351-0.212,1.952-0.436
						c0.101-0.005,0.203-0.009,0.304-0.015c1.45-0.084,2.888-0.476,4.249-0.973c2.757-1.006,5.323-2.638,7.335-4.781
						c1.029-1.096,2.396-2.548,2.714-4.064C102.691,110.046,101.677,108.825,100.16,108.604z"/>
				</g>
				<g>
					<g>
						
							<ellipse transform="matrix(0.6794 -0.7338 0.7338 0.6794 -2.0857 88.6432)" style="fill:#F27121;" cx="100.394" cy="46.708" rx="22.824" ry="22.823"/>
						<path style="fill:#AA3614;" d="M100.357,70.015c-3.482,0-7.013-0.782-10.336-2.434c-11.509-5.72-16.219-19.737-10.499-31.246
							c5.72-11.509,19.738-16.218,31.247-10.499c11.509,5.72,16.219,19.737,10.499,31.246l0,0
							C117.199,65.268,108.932,70.015,100.357,70.015z M100.415,24.358c-2.395,0-4.799,0.39-7.136,1.175
							c-5.656,1.901-10.234,5.89-12.889,11.233c-5.482,11.03-0.968,24.464,10.063,29.946c11.03,5.482,24.463,0.967,29.946-10.062
							l0,0c5.482-11.03,0.968-24.464-10.063-29.946C107.2,25.145,103.817,24.358,100.415,24.358z"/>
					</g>
					<path style="opacity:0.56;fill:#F27121;" d="M107.285,65.037c-1.74,3.502-8.726,3.57-15.604,0.152
						c-6.877-3.418-11.042-9.027-9.301-12.529c1.74-3.502,8.726-3.57,15.604-0.152C104.861,55.926,109.026,61.536,107.285,65.037z"
						/>
					<path style="opacity:0.57;fill:#F9AF65;" d="M90.233,29.2c-3.712,3.988-3.487,9.944,0.974,13.819
						c5.501,4.778,13.432,5.401,19.745,1.729c3.5-2.035,9.171-8.114,5.657-12.105c-3.395-3.855-8.18-6.458-13.26-7.215
						c-3.735-0.556-7.732-0.086-10.914,1.948C91.591,27.916,90.857,28.53,90.233,29.2z"/>
					<path style="opacity:0.86;fill:#FFFACE;" d="M105.074,27.938c-3.571-0.804-8.604-0.021-10.692,3.33
						c-0.944,0.759-1.718,1.696-2.017,2.886c-0.475,1.89,0.715,3.656,2.141,4.78c1.518,1.197,3.612,1.784,5.519,1.882
						c2.116,0.108,4.254-0.251,6.256-0.93c2.073-0.702,4.334-1.924,5.187-4.072C113.062,31.805,108.39,28.684,105.074,27.938z"/>
					<path style="opacity:0.86;fill:#FFFACE;" d="M86.491,44.842c0.059-0.213,0.109-0.45,0.116-0.679
						c0.037-0.073,0.075-0.146,0.111-0.218c0.079-0.161,0.147-0.33,0.194-0.503c0.142-0.526,0.195-1.009,0.048-1.541
						c-0.018-0.067-0.046-0.125-0.077-0.187c-0.081-0.16-0.158-0.339-0.277-0.477c-0.271-0.314-0.58-0.519-0.968-0.663
						c-0.346-0.129-0.681-0.157-1.04-0.153c-0.404,0.005-0.77,0.05-1.163,0.185c-0.741,0.254-1.338,0.703-1.82,1.314
						c-0.284,0.361-0.476,0.803-0.64,1.23c-0.16,0.417-0.29,0.832-0.34,1.28c-0.058,0.517,0.105,1.014,0.39,1.437
						c0.281,0.417,0.717,0.67,1.163,0.87c0.251,0.113,0.538,0.165,0.807,0.2c0.218,0.028,0.45,0.014,0.667,0.002
						c0.066-0.004,0.13-0.013,0.195-0.025c0.473-0.092,0.906-0.206,1.319-0.47c0.377-0.24,0.697-0.511,0.956-0.882
						c0.114-0.163,0.204-0.354,0.288-0.533C86.448,44.969,86.473,44.906,86.491,44.842z"/>
					<path style="opacity:0.56;fill:#F27121;" d="M110.201,60.297c-1.308-0.907-3.048-0.556-4.418-0.004
						c-1.311,0.528-2.602,1.06-3.99,1.362c-2.903,0.632-5.983,0.53-8.926-0.234c-0.809-0.21-1.941-0.086-2.547,0.576
						c-0.689,0.751-1.124,1.625-0.527,2.585c0.39,0.626,0.989,0.938,1.665,1.193c0.663,0.25,1.304,0.411,1.943,0.479
						c0.093,0.041,0.186,0.082,0.279,0.122c1.336,0.57,2.798,0.859,4.238,1.02c2.917,0.326,5.941,0.006,8.696-1.017
						c1.41-0.524,3.28-1.215,4.24-2.432C111.825,62.715,111.461,61.17,110.201,60.297z"/>
				</g>
				<g>
					<g>
						
							<ellipse transform="matrix(0.1591 -0.9873 0.9873 0.1591 17.0557 175.7481)" style="fill:#F27121;" cx="111.692" cy="77.862" rx="22.823" ry="22.824"/>
						<path style="fill:#AA3614;" d="M111.692,101.171c-12.852,0-23.308-10.456-23.308-23.308s10.456-23.308,23.308-23.308
							S135,65.01,135,77.862S124.544,101.171,111.692,101.171z M111.692,55.524c-12.317,0-22.338,10.021-22.338,22.338
							c0,12.317,10.021,22.338,22.338,22.338S134.03,90.18,134.03,77.862C134.03,65.545,124.009,55.524,111.692,55.524z"/>
					</g>
					<ellipse style="opacity:0.56;fill:#F27121;" cx="112.115" cy="91.209" rx="13.905" ry="7.08"/>
					<path style="opacity:0.57;fill:#F9AF65;" d="M94.8,66.706c-1.549,5.224,1.303,10.457,7.022,11.941
						c7.052,1.83,14.432-1.142,18.452-7.239c2.229-3.38,4.602-11.348-0.321-13.358c-4.756-1.941-10.199-2.143-15.086-0.56
						c-3.592,1.164-6.963,3.364-8.907,6.601C95.445,64.951,95.061,65.829,94.8,66.706z"/>
					<path style="opacity:0.86;fill:#FFFACE;" d="M107.529,58.97c-3.555,0.87-7.715,3.81-8.092,7.74
						c-0.507,1.099-0.784,2.284-0.522,3.482c0.416,1.904,2.267,2.956,4.045,3.328c1.892,0.396,4.029-0.01,5.78-0.771
						c1.943-0.845,3.697-2.118,5.189-3.617c1.544-1.551,3.025-3.652,2.833-5.955C116.403,58.878,110.83,58.163,107.529,58.97z"/>
					<path style="opacity:0.86;fill:#FFFACE;" d="M98.41,82.378c-0.042-0.217-0.103-0.452-0.199-0.66
						c0.001-0.082,0.003-0.164,0.002-0.245c0-0.179-0.015-0.361-0.05-0.536c-0.107-0.534-0.274-0.991-0.643-1.401
						c-0.046-0.051-0.097-0.092-0.152-0.133c-0.144-0.107-0.293-0.234-0.46-0.304c-0.382-0.161-0.751-0.207-1.162-0.163
						c-0.367,0.039-0.68,0.162-0.999,0.326c-0.36,0.185-0.667,0.387-0.959,0.683c-0.55,0.557-0.886,1.225-1.045,1.987
						c-0.094,0.449-0.069,0.931-0.026,1.386c0.042,0.444,0.111,0.874,0.265,1.298c0.178,0.488,0.545,0.861,0.989,1.113
						c0.438,0.249,0.94,0.281,1.429,0.262c0.275-0.011,0.555-0.092,0.811-0.18c0.208-0.072,0.409-0.187,0.598-0.295
						c0.058-0.033,0.111-0.069,0.164-0.11c0.383-0.293,0.719-0.588,0.972-1.008c0.231-0.383,0.397-0.768,0.464-1.215
						c0.029-0.197,0.026-0.408,0.02-0.606C98.429,82.511,98.423,82.445,98.41,82.378z"/>
					<path style="opacity:0.56;fill:#F27121;" d="M126.521,85.666c-1.575-0.23-2.977,0.859-3.958,1.963
						c-0.939,1.056-1.858,2.107-2.967,2.995c-2.318,1.858-5.122,3.138-8.097,3.763c-0.818,0.172-1.776,0.787-2.025,1.65
						c-0.282,0.979-0.283,1.955,0.679,2.549c0.627,0.387,1.303,0.4,2.022,0.327c0.705-0.071,1.351-0.212,1.953-0.436
						c0.101-0.005,0.203-0.009,0.304-0.015c1.45-0.084,2.888-0.476,4.249-0.973c2.758-1.006,5.323-2.638,7.335-4.781
						c1.029-1.096,2.396-2.547,2.714-4.064C129.052,87.109,128.038,85.887,126.521,85.666z"/>
				</g>
				<g>
					<g>
						
							<ellipse transform="matrix(0.9873 -0.1591 0.1591 0.9873 -16.303 20.4987)" style="fill:#F27121;" cx="119.908" cy="112.098" rx="22.824" ry="22.823"/>
						<path style="fill:#AA3614;" d="M119.908,135.406c-12.853,0-23.309-10.456-23.309-23.308c0-12.853,10.456-23.309,23.309-23.309
							s23.308,10.456,23.308,23.309C143.217,124.95,132.761,135.406,119.908,135.406z M119.908,89.759
							c-12.317,0-22.339,10.021-22.339,22.339c0,12.317,10.021,22.338,22.339,22.338c12.317,0,22.338-10.021,22.338-22.338
							C142.247,99.78,132.225,89.759,119.908,89.759z"/>
					</g>
					<path style="opacity:0.56;fill:#F27121;" d="M134.237,125.444c0,3.91-6.226,7.08-13.906,7.08s-13.906-3.17-13.906-7.08
						c0-3.91,6.226-7.08,13.906-7.08S134.237,121.534,134.237,125.444z"/>
					<path style="opacity:0.57;fill:#F9AF65;" d="M103.851,116.258c0.223-0.007,0.446-0.022,0.666-0.039
						c3.623-0.276,7.204-0.863,10.781-1.467c3.217-0.543,6.372-0.219,9.617,0.003c2.931,0.201,11.345,1.378,13.149-1.74
						c0.311-0.536,0.395-1.167,0.443-1.782c0.849-10.75-7.788-20.59-18.985-20.59c-10.529,0-19.065,8.337-19.065,18.621
						c0,1.768-0.345,5.849,1.686,6.736C102.677,116.232,103.263,116.275,103.851,116.258z"/>
					<path style="opacity:0.86;fill:#FFFACE;" d="M113.349,94.232c-3.555,0.869-7.715,3.81-8.092,7.74
						c-0.507,1.1-0.784,2.284-0.522,3.482c0.416,1.904,2.267,2.956,4.045,3.328c1.892,0.396,4.029-0.01,5.78-0.771
						c1.943-0.845,3.697-2.118,5.189-3.617c1.544-1.551,3.025-3.652,2.833-5.955C122.223,94.141,116.65,93.425,113.349,94.232z"/>
					<path style="opacity:0.86;fill:#FFFACE;" d="M106.627,116.614c-0.042-0.217-0.103-0.451-0.199-0.66
						c0.001-0.082,0.002-0.164,0.002-0.245c0-0.179-0.015-0.36-0.05-0.536c-0.107-0.534-0.275-0.991-0.643-1.401
						c-0.046-0.051-0.097-0.092-0.152-0.133c-0.144-0.107-0.293-0.233-0.46-0.304c-0.382-0.161-0.751-0.207-1.162-0.163
						c-0.367,0.039-0.68,0.162-0.999,0.326c-0.36,0.185-0.667,0.387-0.959,0.683c-0.55,0.557-0.886,1.225-1.045,1.987
						c-0.094,0.449-0.069,0.931-0.026,1.386c0.042,0.444,0.111,0.874,0.265,1.298c0.178,0.489,0.545,0.861,0.989,1.113
						c0.438,0.249,0.94,0.281,1.429,0.262c0.275-0.011,0.555-0.092,0.812-0.18c0.208-0.072,0.409-0.188,0.598-0.295
						c0.058-0.033,0.111-0.069,0.164-0.11c0.383-0.293,0.719-0.588,0.972-1.008c0.231-0.383,0.397-0.768,0.464-1.215
						c0.029-0.197,0.026-0.408,0.02-0.606C106.645,116.746,106.639,116.68,106.627,116.614z"/>
					<path style="opacity:0.56;fill:#F27121;" d="M135.765,119.901c-1.575-0.229-2.977,0.859-3.958,1.963
						c-0.939,1.056-1.858,2.107-2.967,2.995c-2.318,1.858-5.122,3.138-8.097,3.763c-0.818,0.172-1.776,0.786-2.025,1.65
						c-0.282,0.979-0.283,1.956,0.679,2.549c0.627,0.387,1.303,0.4,2.022,0.327c0.705-0.071,1.351-0.212,1.952-0.436
						c0.101-0.005,0.203-0.009,0.304-0.015c1.45-0.084,2.888-0.476,4.249-0.973c2.757-1.006,5.323-2.638,7.335-4.781
						c1.03-1.096,2.396-2.547,2.714-4.064C138.295,121.344,137.281,120.123,135.765,119.901z"/>
				</g>
			</g>
		</g>
	</g>
</g>
</svg>
